<svg id="_-UI-Kit" data-name="⚡️-UI-Kit" xmlns="http://www.w3.org/2000/svg" width="523" height="373" viewBox="0 0 523 373">
  <g id="Homepage-Desktop" transform="translate(-752 -2333)">
    <g id="Feature-02" transform="translate(0 2084)">
      <g id="Content" transform="translate(165 220)">
        <g id="Illustration" transform="translate(587 29)">
          <path id="Path" d="M342,85.259a27.215,27.215,0,0,1-19.67,17.783V115H310V103.042a27.254,27.254,0,0,1-21-24.075l.164-5.9A27.206,27.206,0,0,1,310.94,50Z" fill="#fff"/>
          <rect id="Rectangle" width="126" height="126" transform="translate(396 66)" fill="#fff"/>
          <path id="Path-2" data-name="Path" d="M264.207,66.155,300.533,75a.59.59,0,0,1,0,1.154L177,106V45l31.581,7.846,31.271,6,10.266,16.922V61.924Z" fill="#48c2b6" fill-rule="evenodd"/>
          <path id="Path-3" data-name="Path" d="M109,45l30,7.154V98.77L109,106Z" fill="#48c2b6" fill-rule="evenodd"/>
          <rect id="Rectangle-2" data-name="Rectangle" width="139" height="29" transform="translate(29 158)"/>
          <rect id="Rectangle-3" data-name="Rectangle" width="29" height="29" transform="translate(1 158)" fill="#48c2b6"/>
          <rect id="Rectangle-4" data-name="Rectangle" width="148" height="91" transform="translate(1 186)" fill="#fff"/>
          <circle id="Oval" cx="33.5" cy="33.5" r="33.5" transform="translate(129 41)" fill="#fff"/>
          <path id="Path-4" data-name="Path" d="M162.5,64A24.131,24.131,0,0,0,143,74a24.014,24.014,0,0,0,39,0,24.131,24.131,0,0,0-19.5-10Z" fill="#fff"/>
          <circle id="Oval-2" data-name="Oval" cx="33.5" cy="33.5" r="33.5" transform="translate(61 41)" fill="#fff"/>
          <path id="Path-5" data-name="Path" d="M115,73.963A23.594,23.594,0,0,1,95.818,84,24.494,24.494,0,0,1,89,82.989V65.012A21.978,21.978,0,0,1,95.818,64,23.316,23.316,0,0,1,115,73.963Z" fill="#fff"/>
          <rect id="Rectangle-5" data-name="Rectangle" width="19" height="53" transform="translate(149 186)" fill="#48c2b6"/>
          <rect id="Rectangle-6" data-name="Rectangle" width="19" height="37" transform="translate(149 240)" fill="#ffdb43"/>
          <path id="Path-6" data-name="Path" d="M88,65V83a24.847,24.847,0,0,1-13-9.038A25.814,25.814,0,0,1,88,65Z"/>
          <path id="Path-7" data-name="Path" d="M156,65V83a24.845,24.845,0,0,1-13-9.038A25.162,25.162,0,0,1,156,65Z"/>
          <path id="Path-8" data-name="Path" d="M373.97,238l-97.613-36.978,1.243-24.909-14.534,14.854a25.7,25.7,0,0,1-34.585,1.778l-.311-.232A25.284,25.284,0,0,1,219,173.02V123.045h44.394v22.517L298.141,114h41.891s32.952,114.029,33.575,116.969A38.9,38.9,0,0,1,373.97,238Z" fill="#71a7c3"/>
          <path id="Path-9" data-name="Path" d="M374,238.281l-95.96-36.354A44.123,44.123,0,0,0,262.251,199h-.463a44.173,44.173,0,0,0-43.806,37.737L208,306.2,275.486,330l-9.133-79.94,57.116,21.64a37.292,37.292,0,0,0,37.3-6.468l.386-.309A34.831,34.831,0,0,0,374,238.281Z" fill="#ededed"/>
          <path id="Path-10" data-name="Path" d="M306.227,266l17.24,6.557a36.933,36.933,0,0,0,29.995-1.617h0l-12.369,49.913,32.932-12.189L400,372H321.921a34.863,34.863,0,0,1-33.551-44.513Z" fill="#d8d8d8"/>
          <path id="Path-11" data-name="Path" d="M400.055,372H453l-47.872-61L380,323.2Z" fill="#48c2b6" fill-rule="evenodd"/>
          <path id="Path-12" data-name="Path" d="M342.152,53,309,43.667,327.712,6.286a9.621,9.621,0,0,1,11.18-4.932l.154.077a9.464,9.464,0,0,1,6.909,10.02Z"/>
          <rect id="Rectangle-7" data-name="Rectangle" width="44" height="13" transform="translate(219 123)" fill="#ff6363"/>
          <path id="Path-13" data-name="Path" d="M264,42.915V123H219.463V100.784L197.94,64.97a6.38,6.38,0,0,1,2.261-8.863l.078-.078a6.433,6.433,0,0,1,8.9,2.254,6.361,6.361,0,0,1,2.261-8.863l.078-.078a6.475,6.475,0,0,1,8.889,2.171,6.394,6.394,0,0,1,2.263-8.854l.078-.078a6.43,6.43,0,0,1,8.9,2.252L249.892,75.2V42.915A6.941,6.941,0,0,1,256.832,36h.156A6.862,6.862,0,0,1,264,42.915Z" fill="#fff"/>
          <path id="Path-14" data-name="Path" d="M279,372l-4.643-41.089L229.381,315,181,372Z" fill="#48c2b6" fill-rule="evenodd"/>
          <path id="Path-15" data-name="Path" d="M343,76.313A27.056,27.056,0,0,1,341.615,85L311,49.547A28.236,28.236,0,0,1,316.155,49a26.585,26.585,0,0,1,18.989,7.992A27.533,27.533,0,0,1,343,76.313Z" fill="#ffdb43"/>
          <path id="Shape" d="M379.789,321l-5.8-14.253L342.031,318.68l11.683-47.495a35.324,35.324,0,0,0,7.041-4.8l.387-.311a38.565,38.565,0,0,0,13.308-28.046l.155-.388-.155-.078a39.447,39.447,0,0,0-1.315-10.769L340.328,112.81h-16.79v-9.839a28.222,28.222,0,0,0,6.808-51.68l34.82,9.923.619-2.248L342.8,52.614l3.715-40.832A10.761,10.761,0,0,0,338.771.469l-.154-.078A9.285,9.285,0,0,0,335.676,0a10.608,10.608,0,0,0-9.594,5.967L307.986,42.7,285.005,36.19l-.618,2.246,22.522,6.432h0l10.214,2.867h-.776a31.448,31.448,0,0,0-4.721.386h0a28.259,28.259,0,0,0-22.9,22.7L264.5,64.857V43.389a8.044,8.044,0,0,0-8.046-8.058h-.31a8.046,8.046,0,0,0-8.047,8.058V71.28L232.163,44.55a7.645,7.645,0,0,0-10.451-2.634l-.077.078a7.762,7.762,0,0,0-3.714,6.43A13.9,13.9,0,0,0,216.3,47.8a7.783,7.783,0,0,0-5.726.853l-.078.078a6.457,6.457,0,0,0-2.32,2.246l-36.29-8.909h0a32.97,32.97,0,0,0-9.207-1.24,34.21,34.21,0,0,0-23.832,9.685l-34.208-8.446h0a33.16,33.16,0,0,0-9.285-1.317,34.4,34.4,0,0,0,0,68.8,35.131,35.131,0,0,0,10.755-1.705h0l32.729-7.98a34.067,34.067,0,0,0,23.91,9.685,35.5,35.5,0,0,0,10.754-1.705h0l42.324-10.383,2.322,3.875v71.9a26.589,26.589,0,0,0,9.6,20.455l.31.233a26.567,26.567,0,0,0,17.021,6.12c.852,0,1.78-.078,2.631-.156a45.371,45.371,0,0,0-31.182,36.727l-10.136,70.816,21.819,7.759L179.378,373H281.126L266.978,251.967l36.985,14.1L286.4,326.812A36.1,36.1,0,0,0,321.064,373H455l-50.217-64.231ZM328.258,6.974a8.334,8.334,0,0,1,7.505-4.65,7.974,7.974,0,0,1,2.322.31l.155.078a8.342,8.342,0,0,1,6.034,8.841l-3.713,40.366L310.23,43.311Zm-11.992,43a25.907,25.907,0,0,1,25.846,25.876,24.033,24.033,0,0,1-.775,6.277l-28.012-32c1.006-.078,1.941-.155,2.941-.155Zm-5.571.619,29.943,34.17a25.868,25.868,0,0,1-18.416,16.348l-.928.233v11.7h-9.909v-11.7l-.928-.233a25.374,25.374,0,0,1-12.225-6.741,11.364,11.364,0,0,0,1.621.078,18.289,18.289,0,0,0,14.005-6.432l-1.778-1.55a16.336,16.336,0,0,1-12.3,5.656,14.585,14.585,0,0,1-4.1-.541,26.28,26.28,0,0,1-5.1-12.476l8.977-2.165a.271.271,0,0,0,.155-.077l11.218,4.417.852-2.165-10.211-4.038,10.369-6.663L310.7,66.477l-11.065,7.051c-.078,0-.078,0-.155-.078l-8.829-2.165A26.424,26.424,0,0,1,310.7,50.593Zm-90.449,73.762h41.86v10.228H220.242Zm44.1-38.818,24.07-5.891A28.013,28.013,0,0,0,309,103.125v9.84H297.316L264.355,143.1Zm32.5-10.382-32.5,7.98V67.174ZM136.833,52.375a34.555,34.555,0,0,0-7.971,16.04,34.281,34.281,0,0,0-14-21.387ZM63.171,75.156A32.027,32.027,0,1,1,95.2,107.231,32.078,32.078,0,0,1,63.171,75.156Zm65.691,6.818a34.916,34.916,0,0,0,7.893,15.96l-21.819,5.346a34.962,34.962,0,0,0,13.926-21.306Zm1.621-6.818a32.027,32.027,0,1,1,32.034,32.075,32.079,32.079,0,0,1-32.034-32.075ZM182.326,103.2a34.359,34.359,0,0,0-.155-56.25l24.915,6.122c0,.077-.078.231-.078.308a6.462,6.462,0,0,0-.232,1.705,7.542,7.542,0,0,0-7.352.233l-.077.078a7.669,7.669,0,0,0-2.631,10.465l17.651,29.519Zm16.326-38.507a5.632,5.632,0,0,1-.62-4.029,4.9,4.9,0,0,1,2.4-3.248l.077-.078a5.365,5.365,0,0,1,7.272,1.781L224.107,86.4l2.013-1.164L209.794,57.959a5.627,5.627,0,0,1-.62-4.029,4.912,4.912,0,0,1,2.4-3.248l.075-.077a5.369,5.369,0,0,1,7.274,1.783l16.326,27.273,2.013-1.162L220.936,51.3a5.382,5.382,0,0,1,1.778-7.284l.078-.078a5.366,5.366,0,0,1,7.273,1.783l21.441,35.8,2.011-1.162-3.1-5.191V43.389a5.717,5.717,0,0,1,5.726-5.734h.155a5.718,5.718,0,0,1,5.726,5.734v78.721H220.165V100.794Zm30.563,127.456-.31-.233a24.27,24.27,0,0,1-8.744-18.672V136.907h41.861v13.171h2.32V146.2l33.814-30.991h40.388l32.267,112.268a34.051,34.051,0,0,1,1.238,9.222l-94.24-35.955c-.154-.077-.308-.077-.463-.155l1.237-23.635,21.82-22.393-1.622-1.624L262.1,190.446a24.377,24.377,0,0,1-32.884,1.705Zm34.509-.078,12.38-12.629-1.081,20.377a45.937,45.937,0,0,0-13.385-2.014h-.463a42.187,42.187,0,0,0-6.964.542,26.478,26.478,0,0,0,9.524-6.276Zm-79.7,178.672,46.2-54.625,43.484,15.419,4.411,39.206Zm89.367-41.763-64.84-23.013,9.91-68.958a43.425,43.425,0,0,1,42.713-36.958h.463a42.063,42.063,0,0,1,15.4,2.867l95.094,36.34a36.268,36.268,0,0,1-12.457,25.1l-.388.308a35.677,35.677,0,0,1-36.132,6.277l-58.878-22.47Zm20.737,28.28a33.573,33.573,0,0,1-5.416-29.752L306.2,266.92l16.093,6.12A38.29,38.29,0,0,0,351,272.421l-12.3,49.9,33.968-12.63,24.915,60.983H321.139a33.051,33.051,0,0,1-27-13.41Zm106,13.483-19.421-47.574,23.445-11.39,46.114,58.964Z"/>
          <path id="Shape-2" data-name="Shape" d="M95,63A25.111,25.111,0,0,0,74.534,73.315L74,74l.534.686a25.469,25.469,0,0,0,40.934,0L116,74l-.533-.688A25.115,25.115,0,0,0,95,63ZM76.9,74a22.916,22.916,0,0,1,10-7.256V81.252A23.373,23.373,0,0,1,76.9,74ZM95,82.7a20.913,20.913,0,0,1-5.8-.763V65.979a24.149,24.149,0,0,1,5.8-.765,22.908,22.908,0,0,1,18.1,8.707A22.761,22.761,0,0,1,95,82.7Z"/>
          <path id="Shape-3" data-name="Shape" d="M163,63a25.115,25.115,0,0,0-20.467,10.314L142,74l.533.686a25.47,25.47,0,0,0,40.934,0L184,74l-.533-.688A25.218,25.218,0,0,0,163,63ZM144.817,74a22.911,22.911,0,0,1,10.005-7.256V81.252A23.829,23.829,0,0,1,144.817,74Zm18.176,8.7a20.916,20.916,0,0,1-5.8-.763V65.979a24.149,24.149,0,0,1,5.8-.765,22.906,22.906,0,0,1,18.1,8.714A22.978,22.978,0,0,1,163,82.7Z"/>
          <path id="Shape-4" data-name="Shape" d="M28.307,157H0V278H169V157ZM16.97,172.352l11.337-11.4v22.8Zm-1.7-1.625-11.339-11.4H26.612Zm-1.617,1.625-11.339,11.4v-22.8Zm1.617,1.626,11.339,11.4H3.934ZM2.313,275.665V187.791h145.87v87.881Zm164.374,0H150.412V240.986h16.271Zm0-37H150.412V187.791h16.271Zm0-79.346v26.139H30.623v-26.13Z"/>
          <path id="Shape-5" data-name="Shape" d="M480.775,65H394V193H523V65Zm-42.222,2.312h39.894V106.9H438.553Zm39.894,81.481H438.553V109.209h39.894ZM396.33,67.312h39.9V106.9h-39.9Zm0,41.9h39.9v39.586h-39.9Zm39.9,81.56h-39.9V151.1h39.9Zm42.222,0H438.553V151.1h39.894Zm42.225,0h-39.9V151.1h39.9Zm0-41.965h-39.9V109.209h39.9Zm-39.9-41.9V67.312h39.9V106.9Z"/>
          <path id="Shape-6" data-name="Shape" d="M92.056,209.893A26.71,26.71,0,0,0,72.975,202a27.028,27.028,0,0,0-19.081,7.893A26.713,26.713,0,0,0,46,228.973a26.952,26.952,0,0,0,45.213,19.846L104.394,262,106,260.394,92.818,247.213A26.889,26.889,0,0,0,92.056,209.893ZM55.58,246.376a24.511,24.511,0,0,1-7.2-17.471,24.829,24.829,0,0,1,7.2-17.47,24.708,24.708,0,1,1,34.944,34.941,24.792,24.792,0,0,1-34.944,0Z"/>
        </g>
      </g>
    </g>
  </g>
</svg>
