<?xml version="1.0" encoding="UTF-8"?>
<svg width="88px" height="88px" viewBox="0 0 88 88" version="1.1" xmlns="http://www.w3.org/2000/svg" xmlns:xlink="http://www.w3.org/1999/xlink">
    <title>Combined Shape</title>
    <g id="âš™ï¸-Symbols" stroke="none" stroke-width="1" fill="none" fill-rule="evenodd">
        <g id="Vector/Chart" transform="translate(-31.000000, -31.000000)" fill="#000000">
            <path d="M113.5,31 C116.540125,31 119,33.459875 119,36.5 L119,36.5 L119,113.5 C119,116.540125 116.540125,119 113.5,119 L113.5,119 L36.5,119 C33.459875,119 31,116.540125 31,113.5 L31,113.5 L31,36.5 C31,33.459875 33.459875,31 36.5,31 L36.5,31 Z M113.5,33.75 L36.5,33.75 C34.9812169,33.75 33.75,34.9812169 33.75,36.5 L33.75,36.5 L33.75,113.5 C33.75,115.018783 34.9812169,116.25 36.5,116.25 L36.5,116.25 L113.5,116.25 C115.018783,116.25 116.25,115.018783 116.25,113.5 L116.25,113.5 L116.25,36.5 C116.25,34.9812169 115.018783,33.75 113.5,33.75 L113.5,33.75 Z M79.625,42 C80.3843915,42 81,42.6156085 81,43.375 L81,43.375 L81,108 L70,108 L70,43.375 C70,42.6156085 70.6156085,42 71.375,42 L71.375,42 Z M65.625,53 C66.3843915,53 67,53.6156085 67,54.375 L67,54.375 L67,108 L56,108 L56,54.375 C56,53.6156085 56.6156085,53 57.375,53 L57.375,53 Z M106.625,64 C107.384392,64 108,64.6156085 108,65.375 L108,65.375 L108,108 L97,108 L97,65.375 C97,64.6156085 97.6156085,64 98.375,64 L98.375,64 Z M92.625,75 C93.3843915,75 94,75.6156085 94,76.375 L94,76.375 L94,108 L83,108 L83,76.375 C83,75.6156085 83.6156085,75 84.375,75 L84.375,75 Z M51.625,64 C52.3843915,64 53,64.6156085 53,65.375 L53,65.375 L53,108 L42,108 L42,65.375 C42,64.6156085 42.6156085,64 43.375,64 L43.375,64 Z M78.25,86 L72.75,86 L72.75,105.25 L78.25,105.25 L78.25,86 Z M64.25,91.5 L58.75,91.5 L58.75,105.25 L64.25,105.25 L64.25,91.5 Z M105.25,91.5 L99.75,91.5 L99.75,105.25 L105.25,105.25 L105.25,91.5 Z M91.25,97 L85.75,97 L85.75,105.25 L91.25,105.25 L91.25,97 Z M50.25,97 L44.75,97 L44.75,105.25 L50.25,105.25 L50.25,97 Z M91.25,77.75 L85.75,77.75 L85.75,94.25 L91.25,94.25 L91.25,77.75 Z M50.25,66.75 L44.75,66.75 L44.75,94.25 L50.25,94.25 L50.25,66.75 Z M64.25,55.75 L58.75,55.75 L58.75,88.75 L64.25,88.75 L64.25,55.75 Z M105.25,66.75 L99.75,66.75 L99.75,88.75 L105.25,88.75 L105.25,66.75 Z M78.25,44.75 L72.75,44.75 L72.75,83.25 L78.25,83.25 L78.25,44.75 Z" id="Combined-Shape"></path>
        </g>
    </g>
</svg>