<svg xmlns="http://www.w3.org/2000/svg" viewBox="0 0 1185.39 937.54"><defs><style>.cls-1,.cls-10,.cls-12,.cls-13,.cls-2,.cls-3,.cls-5,.cls-6,.cls-7,.cls-8,.cls-9{fill-rule:evenodd;}.cls-2{fill:#5056d0;}.cls-3{fill:#5a60dd;}.cls-11,.cls-14,.cls-15,.cls-4{fill:none;}.cls-4{stroke:#000;}.cls-11,.cls-12,.cls-13,.cls-4{stroke-linecap:round;stroke-linejoin:round;stroke-width:3px;}.cls-5{fill:#ffae96;}.cls-6{fill:#31bc55;}.cls-7{fill:#1baa3e;}.cls-8{fill:#fcbf52;}.cls-12,.cls-9{fill:#fff;}.cls-10{fill:#ffcc71;}.cls-11{stroke:#002b50;}.cls-12,.cls-13{stroke:#f2b1c3;}.cls-13{fill:#ffefec;}.cls-14{stroke:#ff604f;stroke-width:10px;}.cls-15{stroke:#ffcc71;stroke-width:6px;}</style></defs><g id="Layer_2" data-name="Layer 2"><g id="Layer_1-2" data-name="Layer 1"><path class="cls-1" d="M280,321q40-9,57,37c17,46,37-41,96-29L353,450l-59-33Z"/><path class="cls-2" d="M589,254.5v630H115.61a69,69,0,0,1-55.5-110l.69-.91L278,489.5l73-65,71-81Zm-275,448-49,62,113,15Z"/><path class="cls-3" d="M155.37,767.64c40.2,2.35,87,23.38,113.41,67.59a99.57,99.57,0,0,1,13.89,49.27H115.61a69,69,0,0,1-64-43.31l.17-.29C75,801.82,108.87,764.93,155.37,767.64Zm302-129c40.2,2.35,87,23.38,113.41,67.59,19.11,32.06,16,67.8,5.94,97.64-10.13,30.11-28.24,54.44-53,68.39a109.42,109.42,0,0,1-34,12.24H443.26l-1.82-.28c-25.27-4-52.38-11.91-75.61-28.47-10.29-7.34-20.39-16.55-26.91-28.77-6.18-11.6-8.94-25.39-8.92-37.82a123.75,123.75,0,0,1,1.06-15.89L378,779.5l-36.43-43.83a197.07,197.07,0,0,1,12.16-23.77C377,672.82,410.87,635.93,457.37,638.64ZM327.78,515.23c19.11,32.06,16,67.8,5.94,97.64-10.13,30.11-28.24,54.44-53,68.39-23.09,13-49.18,16.64-76.73,12.79-21.81-3-45.35-8.77-66.8-20.37L278,489.5l14.74-13.12A134.42,134.42,0,0,1,327.78,515.23ZM527.37,368.64A147.24,147.24,0,0,1,589,386.59V604.76c-21.9,11-46.32,13.88-72,10.29l-1.81-.26c-26.31-3.84-55-11.66-79.35-29-10.29-7.34-20.39-16.55-26.91-28.77-6.18-11.6-8.94-25.39-8.92-37.82.06-29.34,10.68-55.35,23.73-77.26C447,402.82,480.87,365.93,527.37,368.64Z"/><line class="cls-4" x1="265" y1="764.5" x2="341" y2="666.5"/><path class="cls-5" d="M322.51,354c-17.68-30.61-53.13-43.23-79.2-28.18s-32.87,52.07-15.2,82.68c10.42,18,27,29.83,44.23,33.39l7.8,46.84Q337,504.5,358,481.5t-7-57l-3.33-.72-3.12-.68q-13.91-3.11-19.24-4.9C335.26,400.21,334.93,375.54,322.51,354Z"/><line class="cls-4" x1="299.1" y1="358.6" x2="318.1" y2="373.6"/><path class="cls-1" d="M281.05,366.7a3.05,3.05,0,1,1,3.05-3.05A3.06,3.06,0,0,1,281.05,366.7Z"/><path class="cls-1" d="M303.55,347.6a3.05,3.05,0,1,1,3.05-3.05A3.06,3.06,0,0,1,303.55,347.6Z"/><path class="cls-1" d="M325.31,418.2l.07-.12-1.24.68-.89.67-.87.65a50.05,50.05,0,0,1-8.72,5.48l-.24.1a3.72,3.72,0,0,0,.67,7.08q10.14,2.1,21.67-10.56l.82-.92-2.1-.51-2-.51C329.41,419.46,327,418.78,325.31,418.2Z"/><circle cx="891.63" cy="344.13" r="20.13"/><path class="cls-6" d="M668,46.5l31,178.69a99.68,99.68,0,0,0,11.73,32.56L821,450.5l82,52,245.1,278.94a63,63,0,0,1-48.63,103.06H630l-61-668V46.5Zm183,630-18,102,87-13Z"/><path class="cls-6" d="M668,46.5l30.39,175.16a100,100,0,0,0,15.35,38.43L835.5,442.5l67.5,60,245.1,278.94a63,63,0,0,1-48.63,103.06H630l-61-668V46.5Zm183,630-20,102,89-13Z"/><path class="cls-7" d="M880.43,775.14l-1,.74-5.29,3.81c-4.23,3.07-6.82,5.08-9.26,7.24l-.54.48-1.2,1.11c-1.85,1.68-7.57,6.73-10.09,9l-.62.57-.89.83c-5.23,4.93-8.86,9.07-11.06,12.86a17,17,0,0,0-1.93,4.6,10.39,10.39,0,0,0-.21,1.5c-.08,1.77.33,3.67,1.43,6.79l.28.79,1.49,4.08,1.64,4.45c8,21.54,14.8,38,21.78,51.49H854.5c-6.21-12.58-12.35-27.52-19.34-46.27L834,836l-2.69-7.34c-1.71-4.71-2.43-7.72-2.26-11.21a18.35,18.35,0,0,1,.43-3.1,26,26,0,0,1,2.95-7.21c2.81-4.84,7.08-9.67,13.1-15.31l1-.9,1.61-1.46h0l8.19-7.31,2.25-2,.59-.52.61-.54.75-.63c1.77-1.48,3.71-3,6.22-4.83l.59-.43,19.44-2.83-.71.58c-1.58,1.26-3.37,2.61-5.58,4.22Zm159.84-95.54c22.22,10.1,36.65,27.65,50.62,56.46l.42.88,1.37,2.87c11.72,25.12,16,60.75,9.37,85.71-6.38,23.9-23.64,40.06-47.85,45.15l-1.77.37-1.82.36h0l-.93.19-3.73.71-11.66,2.17-2.16.42c-9.61,1.9-15.87,3.52-22.14,5.89l-.92.36-1.51.6a87,87,0,0,0-8,3.76H985l.45-.33,1.18-.84,1.48-1a93.58,93.58,0,0,1,16.54-8.76l1.07-.43c7.25-2.88,14.06-4.7,24.77-6.82l2.28-.44,3.94-.75L1043,865l4-.76,1.75-.34,1.69-.33,2.17-.45c21.36-4.5,36.33-18.51,42-39.57,6.17-23.11,2.08-56.89-8.91-80.43-13.83-29.52-27.49-46.84-48.62-56.45-19.07-8.76-39.95-.73-63,20.47l-.7.65-.71.66-1.34,1.27c-2.68,2.58-5.41,5.34-8.21,8.32l-1.31,1.39c-2.18,2.34-4.37,4.77-6.76,7.48l-.67.76-3,3.37-7.12,8.23-3.76,4.29-.52.61-.57.69c-1.51,1.84-3,3.86-4.95,6.6l-1,1.44-4.72,6.86-.75,1.09a94.57,94.57,0,0,1-11,13.66l-.57.57-.39.39a81.86,81.86,0,0,1-7.56,6.41l-.43.33-4.33,3.3-1.49,1.16-1.18.93c-1.48,1.18-2.63,2.16-3.72,3.17l-.45.43-1.41,1.35-1,.94L893,794.85l-3.65,3.42-1.6,1.53-.95.94a60.93,60.93,0,0,0-5.54,6.16,16.72,16.72,0,0,0-3.13,5.73c-.42,1.87,1.28,6.1,3.17,7.86l.18.16,1.38,1.16v1.79a12.67,12.67,0,0,0,1.22,4.66l1.19,2.89,1.4,3.34c9.41,22.38,16.16,36,24.1,46.67l.29.39,1,1.3c.7.92,1.44,1.8,2.19,2.65h-9.9l-.66-.9c-8-11.11-14.79-24.82-24.06-46.85l-.72-1.72-1.85-4.45a25.68,25.68,0,0,1-1.77-5.71l-.05-.37,0-.14-.33-.38c-3-3.51-5-9-4.47-13.22l0-.34.1-.53a23.8,23.8,0,0,1,4.52-8.68,72.79,72.79,0,0,1,7.55-8.25l1.06-1,5.89-5.52,2.08-2a77.29,77.29,0,0,1,6.23-5.24l1.68-1.29,3-2.33,1.16-.89a74.47,74.47,0,0,0,6.73-5.69l.46-.44.83-.83.52-.55c.56-.59,1.11-1.18,1.66-1.8l6-.87-2.6-3.27.56-.73c1.22-1.64,2.56-3.51,4.11-5.74l1.06-1.54,3-4.42,1-1.49,1-1.47c2.43-3.45,4.24-5.82,6.24-8.17l.53-.62,2.21-2.5,10.35-11.94,1.34-1.52,1.46-1.65c1.43-1.61,2.8-3.13,4.16-4.6l1.19-1.3,1.73-1.85c3.37-3.57,6.64-6.86,9.88-9.92C993,678.67,1017.18,669,1040.27,679.6Zm88.56,79.79,11.81,13.43c3.39,24.25,2.63,48.88-3.23,67.71a77.27,77.27,0,0,1-35.84,45h-25.79c26-5.85,45.07-23,52.75-47.74C1135.13,816.55,1134.7,786.8,1128.83,759.39ZM1020.7,721.11c15.71,5.44,27.19,16.94,37.12,34.58,8.51,15.23,12.24,37.2,8.88,54.78-3.45,18-14,30-30.12,35.13l-1.14.35c-1.48.46-2.82.85-4.56,1.33l-.56.16-9.44,2.54-1.72.48c-2.56.71-4.57,1.3-6.49,1.92l-.66.21-1.68.57a76.66,76.66,0,0,0-17.05,8.16l-.73.47c-1.71,1.14-6.33,4.55-8.76,6.31l-.24.17-1.07.75c-5.77,3.86-10.87,5.38-17.89,4.65-9.3-1-16.54-4-22.13-9.6l-.59-.59c-5.1-5.27-9.46-11.87-15.77-23.18l-.72-1.3L923,834.61a19.27,19.27,0,0,1-1.07-2.29l-.13-.37-.19-.6-.42-.36c-6-5.18-10.59-15.55-9.57-22.7l0-.35.11-.54c.75-2.72,2.72-5.54,6.09-9.25l.36-.38.41-.45.58-.62.31-.32,3.44-3.57,1.87-2c1.11-1.16,2.26-2.24,3.86-3.65l.38-.33,3.66-3.16.73-.64.67-.61c.53-.48,1-.93,1.47-1.38l.53-.53.71-.73.49-.52a70.29,70.29,0,0,0,5.87-7.36l.61-.85,3.05-4.28,1.18-1.63c1.38-1.89,2.45-3.28,3.56-4.62l.61-.72L959,752l1.48-1.68,1.4-1.57h0l.9-1,1.41-1.55c3-3.23,5.75-6.06,8.47-8.6l.63-.58.83-.76C989.9,722,1005.74,715.93,1020.7,721.11Zm-43.21,20.48c-2.59,2.38-5.24,5-8.08,8.11l-.66.71c-1.27,1.38-2.53,2.79-3.94,4.38l-.53.61-7.09,8.13c-1.51,1.73-2.79,3.39-4.78,6.14l-.29.4-3.34,4.69-.62.86a80.57,80.57,0,0,1-5.66,7.19l-.46.5-1.12,1.18-.51.53-.53.52c-1.07,1-2.27,2.12-3.85,3.49l-2.87,2.47-.66.58-.72.65c-.92.83-1.65,1.53-2.35,2.25l-1,1.09L924,800.64,922.76,802l-.57.63-.54.6c-2.25,2.57-3.55,4.49-3.88,5.69-1.07,4.85,3.26,14.35,8.12,18l.25.18,1.09.76.19,1.32a8.31,8.31,0,0,0,1,2.54l1.4,2.57.7,1.27c6.33,11.46,10.6,18.11,15.25,23.09l.25.26.83.86c4.5,4.52,10.41,7,18.38,7.81,5.31.54,8.94-.47,13.4-3.37l.41-.27c.92-.62,5.22-3.81,8.14-5.89l1.32-.93.63-.43a82.67,82.67,0,0,1,19.17-9.32l1.05-.36c2.07-.69,4.08-1.31,6.59-2l1.95-.55,11.21-3,1.12-.31c1.08-.31,2-.58,3-.88l1.5-.46.83-.28c13.49-4.56,22.11-14.6,25.07-30.1,3.08-16.13-.39-36.62-8.2-50.58-9.25-16.44-19.68-26.9-33.74-31.76C1006.08,722.61,992,728.19,977.49,741.59ZM726.7,486.3l1.36.15,1.39.15,3.38.4c38,4.62,83.09,24.95,106,49.74,20.94,22.68,26.57,53.24,15.38,83.42l-.35.91-.43,1.11c-.91,2.37-1.87,4.81-3,7.55l-5,12.33-.94,2.38-.93,2.37c-5.39,13.9-8.07,22.79-9.55,32.59l-.16,1.08-.22,1.67a102.87,102.87,0,0,0-.44,21.13l.1,1.11,0,.63c.62,6.23,3.22,23.5,3.61,27.32l.11,1.21c1.4,16.79-2.43,28.93-15.36,42.72-15.34,16.37-34.08,25.79-55.6,27.76s-45.51-.36-81.88-6.57l-1.11-.19-7.71-1.35-1-.18c-4.34-.82-7.1-1.71-9.84-3.47a18,18,0,0,1-2.47-1.92,26.12,26.12,0,0,1-4.77-6.16c-2.79-4.85-4.84-11-6.71-19l-.29-1.29-.32-1.48c-.08-.34-.15-.69-.23-1.06L647.7,751l-.65-3-.17-.8c-.58-2.92-1-5.9-1.45-10.07l-.19-1.79-.58-5.78-.24-2.28a92.17,92.17,0,0,0-2-12.46l-.25-1L642,713c-1.67-6.28-3.94-11.84-8.52-21.35l-.6-1.25-3.51-7.19-.88-1.81a147.93,147.93,0,0,1-6.67-15.51l-.38-1.1-1.1-3.29-.88-2.6h0l-.2-.57L612.8,639.9l-.77-2.25c-1.76-5.17-3.28-9.84-4.68-14.4l-.43-1.4L599.27,538c3.53-13,10.28-23.68,20.65-31.85,1.51-1.19,3.08-2.31,4.72-3.38C652.31,484.81,681.88,481.42,726.7,486.3Zm-97,24.26q-2.12,1.37-4,2.88c-23.77,18.74-25.26,52.6-11.3,100.85l.43,1.46.42,1.43.59,2c1.49,4.91,3.11,9.91,5,15.53l.76,2.23,1.19,3.45,4.67,13.36,1,2.9h0l.3.87,1.25,3.75.41,1.2.3.85a137,137,0,0,0,5.59,13l1.14,2.36,3.28,6.73c5.77,11.85,8.42,18.22,10.43,26.06l.22.88.15.59.2.86a100.16,100.16,0,0,1,1.9,12.21l.2,1.87.66,6.48.17,1.67.13,1.12c.41,3.64.8,6.25,1.33,8.82l.15.75.36,1.59.31,1.48,2.08,10,.23,1.06.33,1.5.27,1.18.33,1.33c1.56,6.33,3.24,11.13,5.28,14.69a17.21,17.21,0,0,0,3,4,8.43,8.43,0,0,0,1.2.93c1.48,1,3.33,1.55,6.59,2.16l.83.15,4.27.76,4.51.77c35.56,6.07,58.89,8.36,79.44,6.48,19.22-1.76,35.86-10.12,49.66-24.86,11.15-11.89,14.14-21.49,12.85-36l-.05-.54-.07-.62-.08-.7c-.59-4.64-2.43-17.09-3.23-24l-.2-1.75-.09-1-.17-2.12a110.63,110.63,0,0,1,.54-22.29l.14-1.11.16-1.14c1.74-12.06,5-22.44,12.13-40.23l1-2.49,4.1-10.19,1-2.44.61-1.55h0l.29-.76,1.29-3.32c10.4-27.21,5.54-54.42-13.18-74.7-21.27-23-64.27-42.45-100.27-46.82C685.41,490.62,656.31,493.3,629.71,510.56Zm93.46,14.1,1.91.13,1,.08,3.17.25c27.61,2.4,60.63,16.48,78.91,34.73,17.51,17.48,22.87,40.51,15.18,64l-.86,2.58-.61,1.79-1.24,3.58-4,11.18-.74,2.13-.51,1.51a123.78,123.78,0,0,0-5.51,21l-.08.5-.23,1.61a85.41,85.41,0,0,0-.59,17.72l.08,1.08.08.9.08.8.11,1c.51,4.53,1.49,11.78,1.95,15.53l.12,1,.1,1c1,12.17-1.44,21-10.11,30.88-10.42,11.93-22.94,19-37.55,21.05-14.79,2-30.8,1.09-57.24-2.27l-.93-.12-4.78-.62a25.74,25.74,0,0,1-5.83-1.32l-.34-.14-.14-.06-.49.1c-4.53.82-10.28-.17-13.68-2.73l-.28-.22-.4-.35a23.8,23.8,0,0,1-5.26-8.26,73.58,73.58,0,0,1-3.37-10.66l-.17-.69-.6-2.52-1.42-6.08-.68-2.8-.17-.74c-.5-2.23-.88-4.5-1.33-7.81l-.2-1.56-.49-3.81-.26-2-.15-1a66.25,66.25,0,0,0-1.33-7.1l-.17-.66-.31-1.13-.21-.73-.22-.76a102.6,102.6,0,0,0-5.67-13.85l-.8-1.69-2.32-4.84-1-2.15-.51-1.08c-1.78-3.86-2.94-6.62-4-9.55l-.26-.74-1.06-3.16-5.16-14.94-.65-1.92-.69-2.06c-.78-2.36-1.5-4.58-2.18-6.77l-.26-.84-.74-2.42c-1.41-4.71-2.62-9.18-3.65-13.52-8-34.28-4.32-60.08,16.41-74.77C670.34,526.5,692.25,522.64,723.17,524.66Zm-67.81,22.06c-17.3,12.25-20.69,34.68-13.57,65.74l.22.94.43,1.79c.89,3.62,1.92,7.36,3.1,11.27,1.09,3.66,2.26,7.31,3.64,11.43l.32,1,1.45,4.24,3.57,10.29,1.83,5.39.27.75.29.79c.9,2.38,2,4.83,3.51,8.16l.5,1.07,3,6.35c4.14,8.7,6,13.32,7.58,19.07l.24.92.19.75a81,81,0,0,1,1.51,8.46l.15,1.08.69,5.4.19,1.42c.42,3,.77,5,1.24,7l.07.3.41,1.65,2,8.43.52,2.15a65.77,65.77,0,0,0,2.9,9.17,16.93,16.93,0,0,0,3.4,5.58c1.41,1.29,5.94,1.94,8.4,1.18l.23-.08,1.68-.61,1.56.89a13,13,0,0,0,4.65,1.27l3.09.41,3.55.46c23.83,3,38.89,4,52,2.52l.95-.11,1.63-.21c12.69-1.74,23.54-7.9,32.76-18.47,7.09-8.11,9.05-14.72,8.28-24.6l-.05-.51-.07-.76-.16-1.32c-.47-3.78-1.47-11.17-2-15.73l-.11-1-.13-1.45-.13-1.77a93.69,93.69,0,0,1,.68-18.71l.16-1.11.17-1.1c1.2-7.64,3.14-14.58,6.81-25.24l.26-.75,1.33-3.78,2.13-6,1.36-3.87.58-1.69.55-1.62.7-2.11c6.79-20.75,2.14-40.72-13.29-56.12-16.93-16.9-48.23-30.25-74.11-32.5C696.07,530.05,674.24,533.23,655.36,546.72ZM1018,633.33l7,8c-20.36,3-42,17.9-65.95,42.56l-1,1.08L957,686l-1,1.08-1.4,1.49-1.41,1.51c-3,3.3-6.15,6.75-9.54,10.61l-1.54,1.77-2.4,2.76L930.43,716l-1.7,1.95h0L927.8,719l-2.61,3-.56.64-.57.66a135.88,135.88,0,0,0-9.12,12.2l-1.12,1.66-4.19,6.2L908,745.64l-.91,1.34-.88,1.27-6.06-7.6.74-1.07h0l.39-.58,4.11-6.11,1.12-1.65a149.92,149.92,0,0,1,10.71-14.36l.52-.59,2.3-2.6,1.81-2.06h0l.39-.45,12.78-14.81,1.56-1.78,1.64-1.86c3.22-3.65,6.21-7,9.2-10.15l.7-.74,2.09-2.21c16.53-17.35,31.91-30.19,47.5-38.43A86.89,86.89,0,0,1,1018,633.33ZM725.55,563.25c17.44.24,38.33,8,51.87,19.7,13.9,12,19,27.09,15.36,43.65l-.26,1.16-.34,1.48c-.2.82-.4,1.64-.64,2.57l-.29,1.13-2.38,8.94c-1,3.87-1.69,6.53-2.24,9.15l-.07.34-.35,1.74a76.43,76.43,0,0,0-1.41,19.71l.05.75.07.73c.22,2.49.67,6.47.92,8.94l.07.62.11,1.3c.46,6.93-.78,12.1-4.91,17.82-5.49,7.57-11.72,12.34-19.38,14.37-7.47,2-15.63,2.49-29.5,2.26h-.75l-5-.11a19.22,19.22,0,0,1-2.52-.22l-.39-.07-.61-.14-.53.19c-7.45,2.58-18.74,1.4-24.42-3l-.3-.24-.41-.36c-2-2-3.43-5.12-5-9.9l-.16-.5-.3-1-.25-.84-1.37-4.76-.77-2.61c-.41-1.42-.75-2.83-1.13-4.69l-.2-1-.9-4.74-.2-1-.18-.88c-.16-.71-.31-1.35-.46-2l-.2-.72-.27-1a71.59,71.59,0,0,0-3.86-9.92l-.22-.48-2.18-4.78-.6-1.33c-1.19-2.66-2-4.53-2.66-6.5l-.1-.29L673,647l-.72-2.13-.66-2h0l-.42-1.28-.63-2c-1.31-4.19-2.38-8-3.22-11.64l-.19-.84-.24-1.09c-4.44-20.79-1.8-37.56,10.16-47.92C689.6,567.22,705.3,563,725.55,563.25Zm-44.46,19.54c-10.06,8.72-12.25,23.68-7.93,43,.77,3.43,1.76,7.05,3,11.05l.29.92c.56,1.79,1.14,3.59,1.82,5.61l.26.76,3.5,10.2c.75,2.18,1.54,4.12,2.93,7.21l.2.45,2.39,5.24.44,1a84.06,84.06,0,0,1,3.38,8.46l.22.69.46,1.56.2.7.18.72c.37,1.45.71,3,1.1,5.08l.71,3.72.17.86.2.95c.26,1.21.5,2.2.78,3.16l.42,1.43,1.76,6.11.53,1.73.25.81.26.76c1.1,3.23,2.11,5.32,3,6.21,3.66,3.35,14,4.34,19.61,2l.29-.13,1.21-.56,1.24.48a8,8,0,0,0,2.7.41l2.92.07c13.73.3,21.9,0,28.71-1.55l.72-.16,1.16-.29c6.16-1.64,11.25-5.52,16-12,3.13-4.33,4.06-8,3.77-13.31l0-.46c-.08-1.23-.83-7.67-1.13-11.11l-.05-.49,0-.77a83,83,0,0,1,1.51-21.27l.22-1.08c.43-2.13.9-4.19,1.54-6.72l.5-2,3-11.22.42-1.67c.26-1,.49-2,.72-3l.23-1,.18-.86c2.79-14-1.6-26.44-13.54-36.76-12.43-10.73-31.91-18-47.9-18.19C706.61,569.24,692.34,573.05,681.09,582.79ZM846.63,454.3l14,12,.8,2.33h0l.3.87,1.25,3.75.41,1.2.3.85a137,137,0,0,0,5.59,13l1.14,2.36,3.28,6.73c5.77,11.85,8.42,18.22,10.43,26.06l.22.88.15.59.2.86a100.16,100.16,0,0,1,1.9,12.21l.2,1.87.66,6.48.17,1.67.13,1.12c.41,3.64.8,6.25,1.33,8.82l.15.75.36,1.59.31,1.48,2.08,10,.23,1.06.33,1.5.27,1.18.33,1.33c1.56,6.33,3.24,11.13,5.28,14.69a17.21,17.21,0,0,0,3,4,8.43,8.43,0,0,0,1.2.93c1.48,1,3.33,1.55,6.59,2.16l.83.15,4.27.76,3.22.55c34.32,5.9,57.34,8.34,77.33,7l7.57,8.63c-1.1.14-2.21.26-3.32.36-21.61,2-45.51-.36-81.88-6.57l-1.11-.19-7.71-1.35-1-.18c-4.34-.82-7.1-1.71-9.84-3.47a18,18,0,0,1-2.47-1.92,26.12,26.12,0,0,1-4.77-6.16c-2.79-4.85-4.84-11-6.71-19l-.29-1.29-.32-1.48c-.08-.34-.15-.69-.23-1.06L880.7,563l-.65-3-.17-.8c-.58-2.92-1-5.9-1.45-10.07l-.19-1.79-.58-5.78-.24-2.28a92.17,92.17,0,0,0-2-12.46l-.25-1L875,525c-1.67-6.28-3.94-11.84-8.52-21.35l-.6-1.25-3.51-7.19-.88-1.81a147.93,147.93,0,0,1-6.67-15.51l-.38-1.1-1.1-3.29-.88-2.6h0l-.2-.57Zm43.43,37.13L903,502.5l.3.34c.45,1.36.85,2.7,1.23,4.12l.24.92.19.75a81,81,0,0,1,1.51,8.46l.15,1.08.69,5.4.19,1.42c.42,3,.77,5,1.24,7l.07.3.41,1.65,2,8.43.52,2.15a65.77,65.77,0,0,0,2.9,9.17,16.93,16.93,0,0,0,3.4,5.58c1.41,1.29,5.94,1.94,8.4,1.18l.23-.08,1.68-.61,1.56.89a13,13,0,0,0,4.65,1.27l3.09.41,2.33.3c6.52.83,12.39,1.52,17.74,2l7.41,8.43-1.66-.13c-7-.56-14.79-1.42-23.84-2.57l-.93-.12-4.78-.62a25.74,25.74,0,0,1-5.83-1.32l-.34-.14-.14-.06-.49.1c-4.53.82-10.28-.17-13.68-2.73l-.28-.22-.4-.35a23.8,23.8,0,0,1-5.26-8.26,73.58,73.58,0,0,1-3.37-10.66l-.17-.69-.6-2.52-1.42-6.08-.68-2.8-.17-.74c-.5-2.23-.88-4.5-1.33-7.81l-.2-1.56-.49-3.81-.26-2-.15-1a66.25,66.25,0,0,0-1.33-7.1l-.17-.66-.31-1.13-.21-.73-.22-.76a102.6,102.6,0,0,0-5.67-13.85ZM584.32,333.51l.12.47.16.66.22.91a114.94,114.94,0,0,1,2.17,14l.21,2,.74,7.31.12,1.18.25,2.28c.46,4,.89,6.84,1.47,9.68l.17.77.4,1.8c.56,2.61,2.13,10.35,3,14.33l.33,1.52.31,1.33c1.87,7.88,3.86,13.76,6.32,18a18.62,18.62,0,0,0,3.4,4.46,8.58,8.58,0,0,0,1.35,1.06c1.68,1.09,3.79,1.75,7.51,2.45l.85.15,4.81.85c42.95,7.49,70.47,10.38,94.58,8.18,21.65-2,40.39-11.41,56-28,10.36-11.05,14.46-20.35,14.76-32.43l8.68,13.25c-2.42,9.07-7.41,17.39-15.8,26.34-17.28,18.44-38.38,29.05-62.63,31.28l-1.47.13-1.41.11c-23.11,1.74-48.9-.82-86.93-7.24l-3.69-.63-8.68-1.51c-5.55-1-8.9-2-12.21-4.11a21.05,21.05,0,0,1-2.78-2.17,28.69,28.69,0,0,1-5.37-6.94,54.42,54.42,0,0,1-4-8.89l-8-87.74A101.51,101.51,0,0,1,584.32,333.51Zm-10.68-112,.25,1.06.49,2c1,4.07,2.16,8.28,3.48,12.69,1.15,3.82,2.36,7.64,3.78,11.88l.69,2.07L584,256l4,11.59,2.07,6.08.29.82c1,2.85,2.25,5.69,4.07,9.62l.79,1.69,3.41,7.15c4.67,9.82,6.81,15,8.54,21.51l.27,1,.19.78.19.81c.6,2.56,1,5.15,1.55,8.87l.15,1.13.78,6.09.28,2c.42,3,.79,5.12,1.26,7.2l.15.65.45,1.83.87,3.66h0l1.37,5.86.59,2.43a74.21,74.21,0,0,0,3.27,10.33,18.89,18.89,0,0,0,3.82,6.28c1.6,1.46,6.71,2.19,9.49,1.33l.23-.08L634,374l1.76,1a15.33,15.33,0,0,0,5.66,1.49l4.71.62,3.74.47c26.09,3.26,42.74,4.27,57.32,2.66l1-.11,1.84-.24c14.29-2,26.51-8.9,36.9-20.8,8-9.15,10.19-16.61,9.32-27.77l-.05-.53-.06-.6c-.14-1.34-.48-3.92-.86-6.9l9.81,15c-.5,9.73-3.88,17.75-11.58,26.57-11.74,13.44-25.84,21.45-42.3,23.71l-1.1.14c-16,2-33.5,1.05-61.54-2.46l-2.89-.37-5.39-.7a28.48,28.48,0,0,1-6.59-1.5l-.37-.14-.15-.07-.56.11c-5.11.93-11.61-.19-15.43-3.1l-.29-.22-.46-.4a27,27,0,0,1-5.92-9.3,83.05,83.05,0,0,1-3.81-12.09l-.31-1.25L604.21,348l-.76-3.1-.24-1.06c-.6-2.72-1.05-5.51-1.61-9.81l-.63-4.86-.27-2.08-.15-1.08a76.84,76.84,0,0,0-1.56-8.29l-.17-.66-.34-1.27-.21-.73-.23-.77a111.54,111.54,0,0,0-6.24-15.36l-1.1-2.32-2.61-5.45-.82-1.74-.81-1.73a117.89,117.89,0,0,1-4.72-11.37l-.14-.39-1.2-3.57-5.81-16.82-.68-2c-.29-.86-.58-1.71-.85-2.54L570,217.5V198.4A153.69,153.69,0,0,0,573.64,221.46ZM668,166a86.94,86.94,0,0,1,21.82,3.3l1.37,7.68a83,83,0,0,0-23.28-4c-21.24-.24-37.32,4.06-50,15-11.34,9.82-13.81,26.67-8.93,48.42.93,4.16,2.15,8.58,3.69,13.49l.48,1.54.43,1.33c.37,1.13.75,2.29,1.17,3.53l.26.77,3.94,11.5c.77,2.22,1.57,4.22,2.88,7.17l.65,1.46,2.69,5.9.68,1.5.45,1a81.88,81.88,0,0,1,3.19,8.16l.23.72.52,1.75.21.76c.45,1.64.83,3.34,1.27,5.57l.3,1.59.69,3.6.18.92.19.91c.34,1.61.66,2.88,1,4.13l.38,1.25,2,6.88.6,1.95.27.85c1.35,4.17,2.6,6.83,3.66,7.92,4.13,3.77,15.85,4.89,22.11,2.19l.32-.14,1.35-.63,1.4.55a9.28,9.28,0,0,0,3,.46l3.06.07,2.27.05c14.29.26,23-.15,30.38-1.8l.73-.17,1.31-.33c6.94-1.84,12.67-6.22,18-13.54,3.54-4.89,4.59-9,4.25-15l0-.46c-.09-1.39-.94-8.7-1.27-12.56l0-.51-.06-.86c-.18-3-.21-5.85-.11-8.73L735,292.36l.18,1.8h0l.82,7.74.13,1.47c.52,7.81-.87,13.63-5.53,20.07-6.18,8.54-13.2,13.9-21.84,16.19l-.84.22c-8.2,2.06-17.31,2.58-32.45,2.33h-.79L669,342a19.12,19.12,0,0,1-2.84-.25l-.43-.07-.7-.16-.59.21c-8.41,2.91-21.14,1.58-27.53-3.45l-.31-.25-.47-.41c-2.24-2.26-3.88-5.79-5.6-11.18l-.17-.53-.34-1.11-.28-.94-1.54-5.36-.87-3-.21-.74c-.38-1.38-.71-2.81-1.08-4.61l-.2-1-1-5.35-.2-1-.21-1c-.22-1-.43-1.87-.65-2.71l-.1-.37-.31-1.1-.21-.69-.22-.71a84.1,84.1,0,0,0-3.48-8.8l-.69-1.52-2.41-5.28-.83-1.85c-1.22-2.75-2-4.74-2.78-6.79l-.22-.62-3.8-11-.72-2.14-.67-2h0l-.62-1.93L606,252c-1.48-4.75-2.69-9.07-3.64-13.18l-.2-.88-.27-1.23c-5-23.42-2-42.31,11.45-54C627.51,170.49,645.19,165.77,668,166Zm-1.6-43.4,2.17.15,3.57.29c3.17.28,6.41.69,9.68,1.23l1.63,9.15c-4.1-.77-8.13-1.34-12.06-1.68-36.6-3.14-61.19.44-82.46,15.63-11.54,8.18-17.58,20.37-18.93,36.22V154.77a51.22,51.22,0,0,1,13.87-14.48C606,124.46,631,120.19,666.4,122.63Zm2.9-43.3,1.53.17,1.57.18,1.53.18,1.91,10.78-.9-.12h0c-46.45-5.63-77.53-3.85-104.94,10.34V89.18C597,76.65,627.14,74.74,669.3,79.33Z"/><path class="cls-5" d="M796,808.5q-144,7.23-144,76.2H796Z"/><polyline class="cls-4" points="796 884.5 796 783.5 1010 753.5"/><line class="cls-4" x1="920" y1="765.5" x2="844" y2="667.5"/><polygon class="cls-8" points="396 231.5 655 231.5 655 370.5 396 370.5 396 231.5"/><polygon class="cls-9" points="563 231.5 655 231.5 655 370.5 563 370.5 563 231.5"/><polygon class="cls-9" points="509 370.5 768 370.5 768 509.5 509 509.5 509 370.5"/><polygon class="cls-8" points="460 509.5 719 509.5 719 648.5 460 648.5 460 509.5"/><polygon class="cls-9" points="544 648.5 803 648.5 803 787.5 544 787.5 544 648.5"/><polygon class="cls-8" points="467 787.5 726 787.5 726 884.5 467 884.5 467 787.5"/><polygon class="cls-8" points="637 370.5 768 370.5 768 509.5 637 509.5 637 370.5"/><polygon class="cls-9" points="553 509.5 719 509.5 719 648.5 553 648.5 553 509.5"/><line class="cls-4" x1="553.5" y1="560.5" x2="553.5" y2="648.5"/><polygon class="cls-8" points="631 648.5 803 648.5 803 787.5 631 787.5 631 648.5"/><polygon class="cls-9" points="605 787.5 726 787.5 726 884.5 605 884.5 605 787.5"/><path class="cls-5" d="M860.64,367.77c17.67-30.61,53.13-43.23,79.19-28.18s32.88,52.07,15.2,82.68c-10.42,18-27,29.84-44.22,33.39L903,502.5q-44,25-71,5t3.5-65l3.58-1.53q13.77-5.93,19-8.64C847.88,414.3,848.13,389.43,860.64,367.77Z"/><path class="cls-1" d="M932,368.5q-13-10-9-19-22,1-32-16c-10-17-1-43,32-41s25,28,38,36l.8.5c13.5,8.66,44.74,36.94,22.2,58.5q7,33-21,47a401.34,401.34,0,0,1-52,22l8-32q24-1,27-13c3-12-7-20-19-16l.45-8.17a53.59,53.59,0,0,1,4.24-18.11Z"/><line class="cls-4" x1="887" y1="367.5" x2="868" y2="382.5"/><circle cx="905.05" cy="372.55" r="3.05"/><circle cx="882.55" cy="353.45" r="3.05"/><path class="cls-1" d="M857.77,431.82l1.23.68h0l.89.68a53,53,0,0,0,9.59,6.12l.24.1a3.72,3.72,0,0,1-.66,7.08q-9.66,2-20.57-9.37l2.88-1.41q4.27-2.1,6.67-3.39Z"/><polygon class="cls-9" points="366.78 1.09 620.12 54.94 591.22 190.91 337.88 137.06 366.78 1.09"/><polygon class="cls-8" points="530.13 35.81 620.12 54.94 591.22 190.91 501.23 171.78 530.13 35.81"/><polygon class="cls-10" points="526.39 53.42 616.38 72.55 615.13 78.42 525.14 59.29 526.39 53.42"/><line class="cls-4" x1="338" y1="137.5" x2="591" y2="190.5"/><path class="cls-5" d="M648.56,46.23Q622.47,4.5,557.65,4.5T466,22.38l91.22,19.06a7,7,0,0,1,5.42,8.29,6.81,6.81,0,0,1-.75,2,95.76,95.76,0,0,1-15.47,19.88l-.69.7h0a7.51,7.51,0,0,0,9.76,11.36L605.34,47Z"/><path class="cls-4" d="M562.64,49.73a6.81,6.81,0,0,1-.75,2,96.75,96.75,0,0,1-16.16,20.58h0a7.51,7.51,0,0,0,9.76,11.36L605.34,47h0"/><path class="cls-1" d="M245,388.5c-5,11,3,23,20,19s53,38,13,83l-116,151q-28.17-36.11-10-57c40-46,6-68,20-90s54-31.5,35-62c-38-61-5-118,35-128q40-10,63,28-15,8-40,4,15,26-3,49Q250,377.51,245,388.5Z"/><line class="cls-11" x1="1.5" y1="884.7" x2="1183.89" y2="884.7"/><path class="cls-12" d="M481,640.2H826a10,10,0,0,1,10,10v225a10,10,0,0,1-10,10H481a10,10,0,0,1-10-10v-225A10,10,0,0,1,481,640.2Z"/><path class="cls-13" d="M471,672.17H814M471,717.44H814M471,762.7H814M471,808H814M471,853.23H814"/><path class="cls-5" d="M453.22,884.5H389V828.84h0l1.76-.34q25.37-4.9,26.55-10c9.72-42.11,37.05-59.9,52.69-74.64v94c-.08,3.86,2.39,5.59,6.25,5.67a6.87,6.87,0,0,0,2.12-.28,95.74,95.74,0,0,0,22.85-10.6l.84-.52a7.51,7.51,0,0,1,8.87,12.07L472.11,877.5A29,29,0,0,1,453.22,884.5Z"/><polyline class="cls-4" points="389 884.5 389 782.5 175 752.5"/><polyline class="cls-14" points="276 529 471 725 487 707 514 743 549 698 680 845 757 768 773 789 791 768 957 934"/><line class="cls-4" x1="483" y1="509.5" x2="719" y2="509.5"/><line class="cls-4" x1="483" y1="370" x2="719" y2="370"/><line class="cls-4" x1="526" y1="57.5" x2="501" y2="171.5"/><line class="cls-4" x1="563.5" y1="282.5" x2="563.5" y2="370.5"/><line class="cls-4" x1="637.5" y1="421.5" x2="637.5" y2="509.5"/><line class="cls-15" x1="396" y1="253.5" x2="563" y2="253.5"/><line class="cls-15" x1="637.5" y1="393.5" x2="768" y2="393.5"/><line class="cls-15" x1="460.15" y1="533.2" x2="552.9" y2="533.2"/><line class="cls-4" x1="367" y1="1.5" x2="558" y2="41.5"/></g></g></svg>