<?xml version="1.0" encoding="UTF-8"?>
<svg width="1600px" height="1200px" viewBox="0 0 1600 1200" version="1.1" xmlns="http://www.w3.org/2000/svg" xmlns:xlink="http://www.w3.org/1999/xlink">
    <title>Engaged more customer Isolated</title>
    <g id="Engaged-more-customer-Isolated" stroke="none" stroke-width="1" fill="none" fill-rule="evenodd">
        <circle id="Shape" fill="#FFDEE5" cx="800.501078" cy="608" r="533"></circle>
        <g id="Engaged-more-customer" transform="translate(-0.500000, 59.000000)">
            <path d="M802.501078,907.799 L802.501078,1029 C802.501078,1029.82843 801.829505,1030.5 801.001078,1030.5 C800.221381,1030.5 799.580629,1029.90511 799.507944,1029.14446 L799.501078,1029 L799.499021,907.808804 C799.999465,907.810855 800.500151,907.811881 801.001078,907.811881 L802.501078,907.799 Z M895.3413,895.280835 L926.683108,1012.25617 C926.897521,1013.05637 926.422647,1013.87887 925.622448,1014.09329 C924.869319,1014.29509 924.096431,1013.88631 923.829352,1013.17039 L923.78533,1013.03263 L892.442845,896.055524 C893.4106,895.801229 894.376757,895.542993 895.3413,895.280835 Z M709.55931,896.055524 L678.216825,1013.03263 C678.002412,1013.83282 677.179906,1014.3077 676.379707,1014.09329 C675.626579,1013.89149 675.161628,1013.15103 675.288291,1012.39748 L675.319047,1012.25617 L706.659855,895.280563 C707.62473,895.542815 708.591221,895.801141 709.55931,896.055524 Z M981.734286,859.037659 L1042.30012,963.942194 C1042.71433,964.659633 1042.46852,965.577018 1041.75108,965.991232 C1041.07584,966.38108 1040.22349,966.186268 1039.78022,965.563867 L1039.70204,965.442194 L979.136666,860.540636 L980.437192,859.791784 L980.437192,859.791784 L981.734286,859.037659 Z M622.864492,860.540064 L562.300116,965.442194 C561.885902,966.159633 560.968516,966.405445 560.251078,965.991232 C559.575841,965.601384 559.318377,964.765819 559.635756,964.070733 L559.702039,963.942194 L620.267869,859.037659 C621.131121,859.541969 621.996668,860.042778 622.864492,860.540064 Z M1055.778,801.6553 L1141.47299,887.350595 C1142.05878,887.936381 1142.05878,888.886129 1141.47299,889.471915 C1140.92382,890.02109 1140.05476,890.055413 1139.46559,889.574885 L1139.35167,889.471915 L1053.65638,803.776921 C1054.36652,803.072656 1055.07373,802.365442 1055.778,801.6553 Z M548.345777,803.776921 L462.650483,889.471915 C462.064696,890.057702 461.114949,890.057702 460.529162,889.471915 C459.979988,888.92274 459.945664,888.053678 460.426192,887.464517 L460.529162,887.350595 L546.224157,801.6553 C546.928422,802.365442 547.635635,803.072656 548.345777,803.776921 Z M1112.54114,727.136586 L1217.44327,787.700962 C1218.16071,788.115175 1218.40652,789.032561 1217.99231,789.75 C1217.60246,790.425237 1216.7669,790.682701 1216.07181,790.365321 L1215.94327,790.299038 L1111.03874,729.733208 C1111.54305,728.869957 1112.04386,728.00441 1112.54114,727.136586 Z M490.963419,729.733208 L386.058884,790.299038 C385.341445,790.713252 384.424059,790.467439 384.009846,789.75 C383.619998,789.074763 383.814809,788.222411 384.437211,787.779139 L384.558884,787.700962 L489.461013,727.136586 L490.209582,728.436612 L490.209582,728.436612 L490.963419,729.733208 Z M1148.0566,640.441767 L1265.0337,671.784253 C1265.8339,671.998666 1266.30878,672.821171 1266.09436,673.62137 C1265.89256,674.374499 1265.15211,674.83945 1264.39856,674.712787 L1264.25725,674.68203 L1147.28164,643.341222 C1147.54389,642.376348 1147.80222,641.409857 1148.0566,640.441767 Z M454.720514,643.341222 L337.744909,674.68203 C336.94471,674.896443 336.122205,674.421569 335.907792,673.62137 C335.705992,672.868242 336.114771,672.095354 336.830692,671.828275 L336.968452,671.784253 L453.945292,640.44077 C454.199759,641.409193 454.458173,642.376016 454.720514,643.341222 Z M1159.80008,547.5 L1281.00108,547.5 C1281.8295,547.5 1282.50108,548.171573 1282.50108,549 C1282.50108,549.779696 1281.90619,550.420449 1281.14554,550.493133 L1281.00108,550.5 L1159.80988,550.50231 C1159.81193,550.001781 1159.81296,549.50101 1159.81296,549 L1159.80008,547.5 Z M442.189196,549 L442.201078,550.5 L321.001078,550.5 C320.17265,550.5 319.501078,549.828427 319.501078,549 C319.501078,548.220304 320.095966,547.579551 320.856617,547.506867 L321.001078,547.5 L442.192274,547.497943 C442.190223,547.998388 442.189196,548.499074 442.189196,549 Z M337.603595,423.287213 L337.744909,423.31797 L454.720242,454.659778 C454.457994,455.624652 454.199671,456.591142 453.945292,457.55923 L336.968452,426.215747 C336.168253,426.001334 335.693379,425.178829 335.907792,424.37863 C336.109592,423.625501 336.850049,423.16055 337.603595,423.287213 Z M1266.09436,424.37863 C1266.29616,425.131758 1265.88738,425.904646 1265.17146,426.171725 L1265.0337,426.215747 L1148.0566,457.558233 C1147.80222,456.590143 1147.54389,455.623652 1147.28164,454.658778 L1264.25725,423.31797 C1265.05744,423.103557 1265.87995,423.578431 1266.09436,424.37863 Z M385.930344,307.634679 L386.058884,307.700962 L490.963419,368.266792 C490.458915,369.130374 489.957916,369.996254 489.460441,370.864412 L384.558884,310.299038 C383.841445,309.884825 383.595632,308.967439 384.009846,308.25 C384.399694,307.574763 385.235258,307.317299 385.930344,307.634679 Z M1217.99231,308.25 C1218.38216,308.925237 1218.18735,309.777589 1217.56494,310.220861 L1217.44327,310.299038 L1112.54114,370.863414 C1112.04386,369.99559 1111.54305,369.130043 1111.03874,368.266792 L1215.94327,307.700962 C1216.66071,307.286748 1217.5781,307.532561 1217.99231,308.25 Z M462.53656,208.425115 L462.650483,208.528085 L548.345777,294.223079 C547.635635,294.927344 546.928422,295.634558 546.224157,296.3447 L460.529162,210.649405 C459.943376,210.063619 459.943376,209.113871 460.529162,208.528085 C461.078337,207.97891 461.9474,207.944587 462.53656,208.425115 Z M1141.47299,208.528085 C1142.02217,209.07726 1142.05649,209.946322 1141.57596,210.535483 L1141.47299,210.649405 L1055.778,296.3447 C1055.07373,295.634558 1054.36652,294.927344 1053.65638,294.223079 L1139.35167,208.528085 C1139.93746,207.942298 1140.88721,207.942298 1141.47299,208.528085 Z M562.221939,132.436133 L562.300116,132.557806 L622.864492,237.459936 C621.996668,237.957222 621.131121,238.458031 620.267869,238.962341 L559.702039,134.057806 C559.287826,133.340367 559.533639,132.422982 560.251078,132.008768 C560.926314,131.61892 561.778666,131.813732 562.221939,132.436133 Z M1041.75108,132.008768 C1042.42631,132.398616 1042.68378,133.234181 1042.3664,133.929267 L1042.30012,134.057806 L981.734286,238.962341 C980.870704,238.457837 980.004824,237.956838 979.136666,237.459364 L1039.70204,132.557806 C1040.11625,131.840367 1041.03364,131.594555 1041.75108,132.008768 Z M678.172803,84.8296144 L678.216825,84.9673748 L709.560308,201.944214 C708.591885,202.198682 707.625061,202.457095 706.659855,202.719437 L675.319047,85.7438319 C675.104634,84.9436328 675.579508,84.1211274 676.379707,83.9067146 C677.132836,83.7049144 677.905724,84.1136932 678.172803,84.8296144 Z M925.622448,83.9067146 C926.375576,84.1085148 926.840527,84.8489716 926.713864,85.6025171 L926.683108,85.7438319 L895.3413,202.719165 C894.376426,202.456917 893.409936,202.198594 892.441847,201.944214 L923.78533,84.9673748 C923.999743,84.1671757 924.822249,83.6923019 925.622448,83.9067146 Z M801.001078,67.5 C801.780774,67.5 802.421526,68.0948881 802.494211,68.85554 L802.501078,69 L802.503387,190.191197 C802.002859,190.189146 801.502088,190.188119 801.001078,190.188119 L799.501078,190.2 L799.501078,69 C799.501078,68.1715729 800.17265,67.5 801.001078,67.5 Z" id="Shape" fill="#F2B1C3" fill-rule="nonzero"></path>
            <polygon id="Shape" fill="#FFAE96" points="1146.00108 338 1156.00108 680 1105.00108 704 901.001078 736 858.001078 480"></polygon>
            <polygon id="Shape" fill="#000000" points="1038.00108 557 946.001078 590 946.001078 560"></polygon>
            <path d="M898.001078,505 C966.001078,600.333333 1038.66774,665.666667 1116.00108,701 C1113.33441,727 1096.66774,742.333333 1066.00108,747 C1063.33441,776.333333 1046.00108,789.666667 1014.00108,787 C1013.33441,812.333333 992.667744,823 952.001078,819 C941.334411,837 913.001078,840 867.001078,828 C763.667744,800.666667 667.001078,762.666667 577.001078,714 C498.334411,630.666667 412.001078,573.666667 318.001078,543 L472.001078,280 C600.667744,328.666667 669.001078,353.666667 677.001078,355 C685.001078,356.333333 748.334411,353.666667 867.001078,347 L898.001078,505 Z" id="Shape" fill="#E28B71"></path>
            <path d="M1146.00108,338 C1101.33441,350.666667 1048.66774,350.666667 988.001078,338 C897.001078,319 813.001078,357 752.001078,436 C711.334411,488.666667 679.334411,532.333333 656.001078,567 C685.334411,591 724.667744,587.666667 774.001078,557 C823.334411,526.333333 853.001078,507.666667 863.001078,501 C903.667744,566.333333 962.001078,585 1038.00108,557" id="Shape" stroke="#000000" stroke-width="3" fill="#FFAE96" stroke-linecap="round" stroke-linejoin="round"></path>
            <path d="M490.436635,287.287487 L360.430622,549.707031 C343.81791,583.240097 309.872446,604.691235 272.454852,605.301507 C216.983164,606.206238 175.442699,587.821583 147.833457,550.147542 L147.001078,549 C109.667744,497 60.6677442,470 0.00107750541,468 L0.00107750541,-2.27373675e-13 L482.033041,260.818898 C491.501426,265.942073 495.215705,277.640844 490.436635,287.287487 Z" id="Shape" fill="#31BC55"></path>
            <path d="M393.050425,483.865454 L360.430622,549.707031 C359.812392,550.95494 359.170157,552.186117 358.504633,553.40011 L358.197796,553.637217 L357.044488,554.412013 C353.344841,556.868648 354.109444,556.040388 353.181602,556.831905 L348.985012,560.515801 L347.68282,560.679682 L347.713825,561.893289 C345.229031,561.445937 342.540492,564.989316 340.782091,564.072467 C340.352456,565.228494 338.921817,565.139909 337.393735,567.026758 C338.935105,567.394384 340.870675,565.410092 342.234876,565.370229 L341.78784,565.719774 C333.993225,571.742722 302.370805,592.920351 295.590728,597.278352 C296.581608,596.441229 296.069236,596.127155 294.963065,596.506902 L294.83776,596.551959 L292.476984,598.651411 C292.95534,598.691274 293.668445,598.208489 293.424837,598.71342 C292.450408,599.723283 290.727441,600.002324 290.758445,601.202644 C290.536984,600.65342 288.725432,601.862598 288.667852,601.720863 C288.326975,602.55656 286.728171,603.369326 285.160736,604.282778 C280.985514,604.887914 276.742984,605.231569 272.454852,605.301507 C257.718242,605.541858 243.96483,604.420856 231.194619,601.9385 L231.318272,601.822735 L231.104533,601.920963 L230.908458,601.882614 L230.908458,601.882614 C236.393776,597.54222 259.662032,582.120613 264.468654,578.338908 L264.772193,578.095387 L264.524157,578.613606 C268.15612,575.141095 273.847671,572.208949 277.311324,568.324521 L278.109534,567.836649 C287.429597,562.077632 319.455293,540.444068 327.472275,533.905028 L328.609294,533.028167 C333.777678,528.978147 328.46112,532.06965 334.115027,528.112609 L335.015242,527.487084 C336.095973,526.773979 336.228849,525.97229 334.674192,526.672107 C337.243141,525.108591 340.325881,522.632656 343.116291,521.605076 C355.015157,511.84228 377.549407,495.38561 393.050425,483.865454 Z M444.427124,380.16153 L414.594094,440.376682 L410.856969,443.193066 C410.516327,443.44682 410.202517,443.678848 409.917504,443.887152 L409.274078,444.350872 L409.296461,444.309371 C409.513906,443.752173 409.105035,441.369939 409.360534,440.96496 L406.764227,443.801343 L408.956692,443.345133 C406.262827,447.114795 386.910888,462.391394 383.339144,466.426792 L383.209618,466.576408 L384.321353,465.796865 C382.030368,468.133142 380.118892,469.687888 377.345432,471.77111 L375.817245,472.910197 L377.872405,470.95691 C376.482613,470.665566 374.903841,471.746077 373.048987,473.162554 L372.340305,473.707458 L373.987976,473.100654 C372.288687,475.630422 369.848192,476.391121 366.465674,478.95806 L366.055237,479.274991 L367.658616,478.522023 C367.020808,479.314854 365.855922,479.939374 364.744187,480.714488 L364.925554,480.501648 C366.089765,479.061127 362.939703,481.044984 362.002498,481.006817 C363.946927,481.082114 360.239667,483.646634 359.176654,484.550196 C358.095924,484.231292 356.133778,487.531063 355.411814,486.972981 C354.556516,487.858825 355.432617,487.819721 355.93177,487.630336 L355.975078,487.612872 L355.8857,487.659396 C353.362105,489.021612 352.034074,491.497784 348.130737,494.603243 L347.744829,494.905719 L346.585478,495.697093 C341.032126,499.445879 345.155936,495.969656 339.730793,500.868152 L338.288438,502.165216 L336.941954,502.395535 L336.972959,503.604713 C334.426155,503.259234 331.671179,506.953206 329.868485,506.089507 C329.421133,507.285398 327.963919,507.249964 326.395974,509.220968 C327.968348,509.539872 329.957069,507.453708 331.356704,507.347407 L330.645178,507.921585 C322.2361,514.603644 290.386125,536.905118 283.503378,541.53658 C284.525459,540.651346 283.995027,540.356563 282.860902,540.787777 L282.737122,540.836762 L280.305479,543.055803 C280.797122,543.077949 281.536803,542.555301 281.279908,543.086808 C280.278903,544.136534 278.511643,544.490871 278.542648,545.713337 C278.321187,545.155255 276.460913,546.453017 276.403333,546.311282 C275.694658,548.060825 269.768357,549.894524 269.396302,552.454615 C266.017203,555.312875 267.661996,552.41046 264.298994,554.742749 L263.802194,555.098861 L264.315983,556.352331 L264.272769,556.372004 C264.158263,556.43509 263.852156,556.644855 263.394731,556.96961 L256.026446,562.283225 L256.026446,562.283225 L253.380232,564.183197 L249.703718,566.888825 C245.961735,569.666614 243.070729,571.905222 243.445484,571.925479 L242.952387,571.88748 C242.549864,571.867069 242.025918,571.900565 241.173293,572.235525 C237.581193,575.189817 233.825212,577.73662 229.852199,580.943377 L229.972886,580.80236 C230.252836,580.48959 230.491668,580.293389 230.069231,580.270135 C222.718518,585.620217 215.366529,590.617665 207.974147,595.532161 C196.615015,591.372558 186.21258,585.888356 176.766554,579.079895 L177.942826,578.360925 C180.270399,576.944959 182.436059,575.661006 184.222343,574.512145 C186.337712,572.907383 192.056959,569.199318 194.828441,566.391964 L195.087227,566.123197 L195.361839,566.809727 C198.86314,564.093644 203.141747,559.719029 205.330563,557.825458 L205.535764,557.650093 L205.655353,557.929134 L205.982435,557.657659 C207.548782,556.319146 210.480837,553.320785 209.327179,552.645071 C213.069357,550.456005 213.278928,551.824901 217.14984,548.294843 L217.432657,548.03425 L216.630968,548.401875 L216.995322,548.111688 C222.653837,543.67922 246.77252,527.684261 251.648568,523.512682 L251.954022,523.243888 L251.697127,523.766537 C255.422104,520.112428 261.25539,516.927816 264.816486,512.839643 L265.634744,512.314172 C275.188953,506.114875 308.020988,482.931403 316.244195,475.988507 L317.12244,475.286934 C323.182498,470.395952 316.587927,474.521936 323.977618,469.18965 C325.098212,468.423394 325.244376,467.608417 323.640997,468.370244 C326.30296,466.704856 329.536293,464.11819 332.441863,463.010884 L333.678269,462.004781 C348.491591,450.019944 376.654256,429.558124 391.773968,418.144525 L393.636009,416.734361 L393.325964,417.128562 L393.817878,416.737478 C402.235265,410.089444 429.20302,390.829982 444.427124,380.16153 Z M467.215399,282.435755 L467.28956,282.444747 C466.873213,282.573194 465.801341,283.361596 464.72504,284.154427 C465.916501,285.616071 475.000837,311.154971 475.674079,312.647619 C473.003258,316.253007 466.992802,318.901682 464.224538,323.291042 C465.420428,322.772823 461.76189,325.293051 463.515862,324.89885 C462.665451,325.164603 461.660017,326.09474 460.933625,326.630676 L461.205762,326.326488 C462.060636,325.367504 462.820896,324.465841 462.656593,324.097161 C457.266228,328.083461 451.711982,332.747433 446.264038,336.591999 C442.995038,338.662078 443.047585,341.013502 442.39025,341.626467 L442.335317,341.672318 L442.025272,340.999076 L438.791939,343.395286 C439.823948,343.532592 439.956824,344.883505 441.511482,344.095103 C441.697509,344.502591 440.49719,345.02524 439.487327,345.955377 L439.563277,345.843018 C439.849262,345.38899 440.18456,344.522154 439.474039,344.883505 L439.085672,345.177576 C437.176136,346.664522 438.846228,346.100149 436.307145,348.488892 C436.245135,348.347157 437.613765,346.079395 434.911939,347.53218 L434.504161,347.807909 C427.556074,352.586859 397.576158,376.730367 389.993967,382.514018 L389.445078,382.928872 L389.46492,382.890634 C389.659517,382.339507 389.178645,379.982493 389.41764,379.576267 L389.451078,379.536 L386.916878,382.434458 L389.091627,381.951672 C386.53375,385.733831 367.754913,401.252231 364.329444,405.335319 L364.203822,405.488564 L365.280123,404.709021 C362.953492,407.19501 361.013874,408.817387 358.065618,411.12007 L357.037339,411.919796 L359.021631,409.948791 C357.689747,409.688452 356.222873,410.694456 354.516966,412.052343 L353.604691,412.787923 L355.221358,412.150115 C353.602988,414.701177 351.20246,415.491361 347.913461,418.107787 L347.51451,418.430754 L349.086884,417.65121 C348.484509,418.457329 347.34177,419.090708 346.25661,419.883539 C347.820126,418.036553 344.511496,420.237877 343.545926,420.224589 C345.468209,420.264452 341.86725,422.877694 340.835241,423.794543 C339.750082,423.497785 337.894237,426.810844 337.163415,426.26162 C336.338663,427.174193 337.209103,427.119025 337.6976,426.916188 L337.644007,426.948156 C335.183449,428.357181 333.933452,430.838692 330.15321,433.983938 L329.766613,434.30066 L328.639272,435.107009 C323.321136,438.867669 327.085357,435.503807 322.261193,440.141008 L320.642413,441.688604 L319.335792,441.932211 L319.397802,443.154677 C316.882003,442.835773 314.290907,446.565179 312.488214,445.736914 C312.080725,446.932804 310.645657,446.923946 309.170725,448.925955 C310.729812,449.200566 312.616661,447.092256 313.98972,446.972667 L313.550519,447.350967 C305.890184,453.874419 274.707384,477.042751 268.001097,481.821794 C268.971861,480.923731 268.443788,480.645022 267.333807,481.097293 L267.212695,481.148552 L264.900641,483.403027 C265.387855,483.403027 266.092102,482.880379 265.870641,483.403027 C264.918358,484.474899 263.182102,484.855812 263.261828,486.051702 C263.013792,485.515766 261.233244,486.840104 261.166806,486.702798 C260.537856,488.434624 254.731145,490.39677 254.478679,492.916998 C251.178613,495.896586 252.824507,492.795351 249.292952,495.488118 L249.044022,495.680833 L249.606534,496.89444 C248.986442,496.814714 229.431423,513.477452 230.374847,513.450876 L229.891055,513.440928 C229.497774,513.443783 228.992099,513.507349 228.19124,513.88494 C224.935761,517.042976 221.498684,519.793524 217.897726,523.230601 C218.172337,522.823112 218.522246,522.5485 218.04389,522.557359 C206.288211,532.653903 194.418751,541.687189 182.354273,551.112128 L180.089878,552.884249 C177.667092,554.810961 178.845266,552.388176 176.772389,554.044706 C175.253166,554.886258 174.216728,556.64466 173.326454,557.72539 L173.463178,557.670084 C173.869445,557.484482 174.402988,557.095275 174.216728,557.574796 C173.415038,557.95571 172.555769,558.566942 171.683212,559.218038 L171.843884,558.922823 C172.346749,558.037381 173.049134,557.027165 171.32434,558.221062 L171.178281,558.323335 L173.937687,556.122011 C173.603003,555.491262 173.260007,556.776762 171.233538,558.130198 L171.032116,558.261326 L169.446454,559.709682 L169.100975,559.049728 C158.305487,561.823288 149.088669,542.006035 147.541729,538.476378 L147.313627,537.94448 L147.787554,537.284526 L153.275361,535.357814 C159.028922,529.267632 167.218555,524.023432 172.183714,520.227588 L172.592208,519.87157 C174.81908,517.960896 179.697084,514.155044 182.056776,511.317448 L182.291201,511.028091 L182.623393,511.705762 C185.880118,508.732231 189.772821,504.050287 191.800845,501.98474 L191.9912,501.793161 L192.124077,502.063344 L192.435861,501.75902 C193.890026,500.29814 196.554565,497.100399 195.361839,496.49581 C198.905011,494.021214 199.219819,495.387695 202.786183,491.568765 L203.046541,491.287044 L202.275856,491.70782 L202.700095,491.310779 C205.399135,488.832673 212.312073,483.225133 219.137908,477.6849 L219.895467,477.062779 C226.592632,471.591637 233.373908,466.789899 235.56771,464.769037 L235.796216,464.552254 L235.557038,465.08376 C239.131421,461.354354 244.831831,458.028008 248.224616,453.891114 L249.021547,453.348255 C258.32271,446.946341 290.167144,423.07816 298.115385,415.954818 L298.96508,415.236102 C304.826532,410.225769 298.40971,414.456431 305.583055,409.005367 C306.603409,408.275357 306.777003,407.525926 305.507299,408.059269 L305.230078,408.184 L305.664688,407.897861 C308.161915,406.220493 311.099652,403.821453 313.772688,402.738016 C327.697117,390.794291 356.072968,369.212205 371.10927,357.324098 L372.933821,355.876836 L372.641492,356.271037 L373.920872,355.294382 C385.111688,346.665868 418.60029,319.01759 428.241917,311.710998 L428.538287,311.487163 L429.94678,309.356706 C432.334131,308.315839 433.871072,306.455565 436.913948,304.745885 C438.26929,303.563283 437.312578,303.536707 436.537464,303.944196 C439.100636,302.558812 441.213987,300.188683 442.796115,299.427024 L443.008559,299.333374 L442.787098,299.856023 C446.870209,297.707691 447.790312,294.529735 451.97315,292.065603 L452.451663,291.794837 L452.509243,291.932143 C454.489105,291.015294 455.893169,288.889266 457.190931,287.564929 C459.458694,286.253879 457.988191,288.238171 459.897187,287.184016 C460.069926,285.908399 462.240246,284.982692 464.109378,283.640637 L463.393693,284.242908 C461.667985,285.714408 460.064692,287.250588 460.636867,287.733239 C462.996991,285.80301 461.802136,287.870047 463.843799,285.944113 L464.03851,285.757806 L463.591159,284.814381 C464.459109,283.840484 466.391746,282.536683 467.126536,282.441227 L467.215399,282.435755 Z M418.934333,256.308166 L419.006599,256.321189 C418.585823,256.423061 417.496234,257.176029 416.397787,257.91128 C417.4608,259.479225 425.065776,285.704655 425.699155,287.219449 C422.961895,290.674243 417.00459,292.977439 414.138883,297.233923 C415.321486,296.773284 411.671806,299.094196 413.394774,298.78858 C412.55765,299.005612 411.538929,299.882598 410.821395,300.378671 L411.391241,299.773604 C412.126421,298.981163 412.715331,298.270361 412.584226,297.93374 C407.185003,301.627712 401.604182,305.97278 396.151808,309.525017 C392.889506,311.408275 392.87681,313.735995 392.213513,314.32145 L392.156649,314.366158 L391.873179,313.679628 L388.630987,315.89424 C389.645279,316.084696 389.738293,317.422322 391.288521,316.722504 C391.461261,317.129993 390.2698,317.586203 389.251079,318.467618 L389.333883,318.354536 C389.63118,317.915498 389.972464,317.07222 389.268796,317.395746 L388.870028,317.675858 C386.974274,319.048061 388.613792,318.567927 386.070896,320.810677 C386.013317,320.668942 387.408522,318.480906 384.719983,319.791956 L384.313709,320.03658 C377.544885,324.201748 349.146382,345.506888 340.69733,352.1869 L339.429078,353.200872 L339.440394,353.179079 C339.634304,352.636851 339.162502,350.281051 339.398858,349.881771 L336.937525,352.692225 L339.07241,352.231586 C336.550376,355.968743 318.051391,371.097672 314.66196,375.109072 L314.534515,375.263546 L315.601957,374.49729 C313.447583,376.786313 311.628002,378.323631 309.007024,380.360121 L307.469904,381.544184 L309.43205,379.604184 C308.001078,379.309811 306.426678,380.479755 304.559074,381.964394 L304.085977,382.341444 L305.684927,381.747928 C304.090407,384.243884 301.728476,384.996838 298.497248,387.545369 L298.088809,387.873544 L299.643467,387.125005 C299.045522,387.89569 297.924928,388.52021 296.844198,389.286466 C298.389997,387.479343 295.125659,389.618658 294.168947,389.592082 C296.077942,389.654091 292.521276,392.192036 291.506984,393.095598 C290.439541,392.789981 288.605843,396.049889 287.883879,395.487378 C287.079026,396.375754 287.920759,396.343213 288.403609,396.154009 L288.445078,396.135872 L288.359677,396.182658 C285.938899,397.546473 284.703622,399.988979 280.978731,403.053979 L280.597807,403.362537 L279.718149,403.983033 C273.681714,408.207445 278.738428,403.899922 271.8053,410.228555 L271.500183,410.506874 L270.184704,410.723906 L270.246713,411.933083 C267.726485,411.565458 265.091097,415.192992 263.301691,414.329293 C262.885344,415.511896 261.454705,415.463174 259.953199,417.398745 C261.503427,417.730936 263.416851,415.666918 264.79434,415.587192 L264.351198,415.951547 C256.62296,422.232363 225.201337,444.439417 218.464666,449.01011 C219.452536,448.137706 218.933311,447.847494 217.82392,448.251101 L217.70284,448.297005 L215.36421,450.48947 C215.842566,450.502758 216.555671,449.993397 216.312064,450.529333 C215.350922,451.556913 213.623525,451.893534 213.676676,453.089424 C213.446356,452.540201 211.652521,453.811388 211.586083,453.674082 C210.926129,455.397049 205.141563,457.151022 204.827088,459.684537 C201.479383,462.560186 203.200441,459.494752 199.643267,462.073229 L199.392432,462.257916 L199.906222,463.506957 C199.823215,463.528611 198.908,464.182508 197.508011,465.209869 L195.667783,466.567959 C193.840666,467.925412 191.626527,469.596253 189.342525,471.173942 L187.21287,472.697633 C182.854987,475.830456 179.17257,478.578839 179.584946,478.601749 L179.099532,478.559317 C178.702683,478.532006 178.185588,478.549706 177.348188,478.854215 C173.822527,481.697776 170.128555,484.129419 166.230839,487.212159 L166.348412,487.074611 C166.621579,486.770136 166.85702,486.582655 166.434583,486.547775 C153.778469,495.527113 141.114508,503.423575 128.254373,511.680995 L125.840753,513.233844 C123.258516,514.925807 124.684726,512.600465 122.478973,514.048821 C121.149937,514.625854 120.077481,515.897531 119.174817,516.888133 C119.003196,516.721812 118.830053,516.558667 118.65672,516.395932 L119.471531,515.860374 C119.325662,515.463009 119.096968,515.733962 118.504083,516.254022 C111.800709,509.972561 104.811324,504.303411 97.5365176,499.245879 L97.2480453,498.413864 C96.8526035,497.251982 96.5494022,496.27037 96.3410399,495.56382 L96.0010775,494.356496 L96.5192966,493.745263 L101.940666,492.500651 C108.052993,487.083711 116.406508,482.818369 121.548836,479.607183 L121.989561,479.289181 C124.314912,477.639716 129.350329,474.411955 131.873933,471.880582 L132.125821,471.621294 L132.396003,472.307823 C135.690281,469.820561 139.672873,465.821327 141.86877,463.912436 L142.304175,463.542391 L142.410477,463.825861 L142.629288,463.65084 C144.133297,462.419737 147.134405,459.434556 145.971572,458.705679 C149.62083,456.65189 149.834342,458.012744 153.591934,454.654723 L153.873306,454.400474 L153.084904,454.728237 L153.527975,454.384724 C156.343972,452.244069 163.512584,447.453117 170.598052,442.729471 L172.576272,441.348029 C179.001258,436.842253 184.947248,432.487625 187.049399,430.729144 L187.287365,430.526962 L187.043758,431.054039 C190.62257,427.475227 196.2654,424.3792 199.658185,420.38847 L200.448387,419.878639 C209.673327,413.861535 241.324639,391.291797 249.22562,384.525051 L250.081779,383.830519 C255.546574,379.349708 250.25502,382.630617 255.517881,378.713737 L256.653428,377.876787 C257.72087,377.110532 257.844889,376.304413 256.29466,377.057381 C258.850322,375.414139 261.937491,372.854048 264.741189,371.746742 L265.95338,370.724365 C279.865208,359.061243 306.123552,339.301804 320.706483,327.930074 L323.180358,325.992868 L322.879171,326.378211 L323.458957,325.909892 C333.053555,318.198722 366.355532,293.142805 377.859928,284.845876 L379.506788,283.667212 L380.981719,281.603195 C383.391216,280.65977 384.981308,278.879222 388.059618,277.29799 C389.454823,276.164109 388.511398,276.102099 387.722997,276.474154 C390.315825,275.20316 392.503409,272.923106 394.103565,272.227207 L394.31811,272.142374 L394.070073,272.660593 C398.191624,270.683103 399.24901,267.535959 403.481319,265.256495 L403.964958,265.006896 L404.026967,265.144202 C406.011259,264.320366 407.495048,262.24306 408.841532,260.985161 C411.131441,259.758266 409.585642,261.693837 411.516783,260.728266 C411.751532,259.439362 413.93071,258.611098 415.826417,257.366486 L415.093015,257.936586 C413.324492,259.331011 411.678383,260.799134 412.207742,261.312924 C414.619454,259.494467 413.342665,261.531412 415.440211,259.672457 L415.64039,259.492513 L415.259476,258.522513 C416.160026,257.58529 418.121513,256.366899 418.846914,256.308166 L418.934333,256.308166 Z M134.487829,313.140582 L134.559728,313.151071 C134.116805,313.283947 132.943061,314.059061 131.764888,314.847463 C132.827902,316.40212 139.821645,342.919879 140.415161,344.45239 C137.367855,348.040061 130.989774,350.55143 127.778587,354.958507 C129.054203,354.458005 125.098907,356.933941 126.923747,356.575174 C126.042332,356.832069 124.926168,357.73563 124.142195,358.271566 L124.852626,357.550187 C125.625253,356.751693 126.231983,356.046486 126.10877,355.724763 C120.257766,359.631338 114.180872,364.206725 108.272289,367.962706 C104.7464,369.986748 104.622353,372.372419 103.889012,372.976897 L103.829778,373.020879 L103.572883,372.321062 L100.060509,374.664121 C101.114664,374.84129 101.14124,376.218778 102.811057,375.452522 C102.96608,375.868869 101.690463,376.369372 100.574299,377.286221 L100.659656,377.179531 C100.997102,376.728458 101.415674,375.841763 100.649596,376.192203 L100.238422,376.472893 C98.1455401,377.940406 99.9180359,377.411469 97.1195051,379.766586 C97.0619252,379.62928 98.6475871,377.34823 95.7553044,378.765581 C89.1289724,382.607307 55.2320685,407.253214 47.1058033,413.49981 L46.5463366,413.930124 L46.5616593,413.904547 C46.7898374,413.341894 46.4143862,410.936397 46.6830583,410.522548 L43.9643991,413.450827 L46.2277321,412.941467 C43.3930293,416.812936 23.2459443,432.669568 19.5186511,436.824165 L19.3866402,436.974431 L20.5426675,436.172742 C18.0032604,438.72817 15.9166138,440.388944 12.7334289,442.756769 L11.6842213,443.53411 L13.8279653,441.523243 C12.4621241,441.25913 10.9002245,442.28386 9.07381867,443.663805 L8.09655064,444.411096 L9.80623075,443.777718 C8.00632573,446.362415 5.49176647,447.181013 1.9619662,449.864284 L1.55015894,450.182374 L3.21111759,449.380685 C2.55116335,450.195662 1.34198546,450.855616 0.181529011,451.661735 C0.950685374,450.808452 0.651886433,450.802106 0.000559685025,451.049957 L0.000559685025,409.358356 L22.4963432,392.652055 C25.3995749,390.488771 28.0597063,388.496947 30.3743805,386.744836 L30.9734878,386.290831 L30.6413366,386.688124 L31.6164722,385.935959 C43.0316945,377.166313 80.991875,349.511608 91.6488301,342.129521 L91.9727479,341.905587 L93.6115605,339.761843 C96.1716514,338.756409 97.9167653,336.882848 101.216536,335.21746 C102.722472,334.030428 101.739185,333.990565 100.897632,334.371478 L101.258059,334.19084 C103.884753,332.826089 106.145937,330.615565 107.778917,329.913291 L107.997677,329.827096 L107.709778,330.363032 C112.131669,328.258998 113.365953,325.015353 117.914848,322.6015 L118.41521,322.346138 L118.46836,322.492302 C120.589958,321.602028 122.2332,319.458284 123.694844,318.133947 C126.148633,316.845043 124.45667,318.847052 126.516259,317.82833 C126.797344,316.554929 128.953969,315.682843 130.934664,314.448187 L131.164337,314.301124 L130.230513,315.011913 C128.381331,316.436604 126.694434,317.900154 127.224934,318.404129 C129.830179,316.483569 128.403754,318.594678 130.699541,316.641672 L130.905619,316.46413 L130.537993,315.485271 C131.523325,314.508117 133.644635,313.217719 134.400622,313.143424 L134.487829,313.140582 Z M63.7349719,284.842892 L63.8117477,284.852765 C63.3954007,284.963495 62.3589625,285.729751 61.3092366,286.496006 C62.5139853,287.948791 71.7887784,313.283947 72.4708788,314.758879 C69.875354,318.28454 63.957912,320.822485 61.2649444,325.136548 C62.4431177,324.631617 58.855447,327.076548 60.582844,326.72221 C59.8195413,326.941457 58.9185327,327.722692 58.2278046,328.250536 L58.0450775,328.386 L58.463097,327.920174 C59.2377222,327.04675 59.8854629,326.249169 59.7235748,325.902804 C54.4350824,329.773945 48.9959965,334.300611 43.645495,338.030017 C40.4521449,340.025322 40.5084015,342.35607 39.8651003,342.966085 L39.8097878,343.012893 L39.5086007,342.335222 L36.3372769,344.656134 C37.351569,344.806728 37.4844457,346.153212 39.0169569,345.391385 C39.2029843,345.798874 38.0159525,346.299376 37.0238065,347.216225 C37.3161352,346.817595 37.7767744,345.76344 37.0105188,346.144353 C34.5478708,347.942618 36.5498796,347.202938 33.9144919,349.670015 C33.8524828,349.532709 35.1901082,347.287093 32.5414328,348.691157 L32.2426591,348.887602 C28.8686592,351.139817 19.5697148,358.358808 10.2624407,365.686086 L9.37836344,366.386082 C6.18352441,368.90738 2.96775537,371.356987 0,373.581898 L0,333.506349 L12.4035488,323.555834 C17.8002337,319.236615 22.4145024,315.575687 25.2616698,313.430653 L26.0216164,312.863171 L27.3813879,310.785866 C29.7200177,309.79372 31.2038074,307.982167 34.1758161,306.352213 C35.504583,305.205045 34.5611585,305.169611 33.8037613,305.550524 C36.3118571,304.220216 38.3539215,301.925427 39.9066971,301.197348 L40.1154042,301.108013 L39.8939431,301.626232 C43.8959043,299.571864 44.7678059,296.446685 48.8480186,294.08946 L49.3149005,293.8308 L49.3769097,293.968106 C51.3080509,293.091119 52.6678224,291.013814 53.9345802,289.742627 C56.1447625,288.480298 54.7229819,290.415869 56.5965433,289.410435 C56.7427076,288.152536 58.8687347,287.27112 60.6891454,285.986646 L59.9928726,286.56539 C58.3140162,287.981679 56.75519,289.475397 57.3273651,289.946371 C59.6251923,288.090929 58.4786865,290.1088 60.4587229,288.245786 L60.6537116,288.059522 L60.2019309,287.129385 C61.0383158,286.187437 62.9130767,284.940303 63.6427707,284.848161 L63.7349719,284.842892 Z M37.6686872,20.383035 L96.0080597,51.9497502 L97.0034701,53.6218106 C97.310615,54.1406228 97.5924181,54.6197998 97.8468309,55.0560597 L98.0440761,55.3951554 L97.8854027,54.9011108 L99.9556694,58.3520293 C110.59045,75.9938232 129.812898,106.799463 138.918273,123.35368 C141.253842,125.577566 143.377665,129.330552 145.291495,131.971624 C144.046821,130.618424 143.893474,131.435449 144.667453,132.617584 L145.734152,134.377978 C149.065106,139.961034 144.947275,134.189711 149.392041,142.289182 L149.729752,142.940284 C155.589855,154.095145 178.086046,190.377797 183.794586,198.704643 C185.519098,203.792606 189.496688,209.003038 191.692317,213.844099 L191.99342,214.533114 L191.953632,213.91035 L192.020485,214.052177 C193.311678,216.740464 198.185162,224.249897 202.795588,232.2854 L203.297315,233.163881 L207.840086,241.049767 C210.730518,246.09077 213.195617,250.463284 214.340369,252.751439 L214.598533,253.279235 L214.012927,252.564928 L214.158265,252.922152 C216.258876,258.016587 217.018813,256.822909 219.559081,260.605083 C218.14241,260.714312 219.820202,265.281152 220.689989,267.102013 L220.749312,267.224504 L220.959746,267.022901 L221.073235,267.272216 L221.323233,267.846189 C222.53841,270.703103 224.417442,275.966235 226.313188,279.813668 L226.523344,280.234118 L227.060566,279.720278 L227.182476,280.078369 C228.557611,283.969305 232.275688,290.080655 233.564797,292.542427 C236.90375,297.967886 242.664051,305.894399 246.123757,313.77823 L246.44122,314.517136 L251.0062,318.506413 L251.225399,319.335421 L250.745451,319.852656 C247.880654,322.887043 232.987172,337.880892 223.71394,331.615258 L223.407243,331.398708 L222.855253,331.901805 L221.842412,329.868386 L221.693875,329.663325 C220.25891,327.634324 220.313843,326.265405 219.842213,326.611553 L219.79322,326.651924 L221.670337,329.882124 L221.389131,329.466006 C220.245737,327.83793 220.767716,329.507636 220.895021,330.546125 C220.284814,329.573471 219.668675,328.650968 219.028729,327.952922 C219.01271,327.354093 219.486938,328.166713 219.83796,328.456624 C219.35016,327.050941 218.947057,324.939032 217.78153,323.531822 C216.36374,321.105495 216.668167,323.922759 215.010733,321.108208 C206.157786,306.295714 197.333967,292.0969 189.032223,276.771437 C188.57559,276.577392 188.815152,276.989468 188.940889,277.49409 C186.670001,272.745381 184.310226,268.725091 182.270686,264.385139 C181.348039,263.381792 180.784136,263.287718 180.33327,263.091225 C181.225802,263.480201 168.430406,240.142756 167.612269,239.497022 L167.590813,239.484336 L168.554752,238.54099 L168.387523,238.262104 C165.945458,234.251626 166.44917,237.902859 164.328252,233.713946 C164.967039,231.187 160.106706,226.982852 160.106766,225.067271 C160.007709,225.170561 158.761949,223.181573 158.34021,223.598759 C158.833455,222.484348 157.303225,221.412273 156.774276,220.01385 C156.741965,219.444142 157.183684,220.120667 157.624844,220.352876 L157.698284,220.387174 L156.275384,217.299546 L156.17773,217.20247 C155.308557,216.361117 154.711945,216.395235 155.225535,217.512173 L155.283337,217.635124 L153.389033,214.677599 C146.377522,203.649367 128.343647,174.67798 123.818733,166.279108 L123.534695,165.745008 C124.805618,166.406584 125.869284,169.200983 127.457123,169.55111 C126.742031,167.040856 125.366285,166.485019 125.398003,165.165031 C123.454068,165.24124 122.277984,160.893178 119.928583,159.987219 L119.70483,159.91261 L120.189945,158.771029 L119.024633,158.013588 L118.359988,156.613081 C114.819763,149.118571 117.630043,154.45977 113.610396,148.449198 L112.851949,147.3031 L112.596977,146.862731 C110.120071,142.51485 109.702603,139.682194 107.978342,137.408931 L107.795171,137.175723 L107.73745,137.106687 L107.761925,137.131012 L107.857244,137.215735 C108.277061,137.563692 108.943583,137.814951 108.489152,136.712389 C107.608251,136.953615 106.948977,133.0519 105.808686,132.906479 L105.60108,132.528777 C104.736507,131.001905 102.725671,127.782997 104.430072,128.432285 C103.496979,128.069622 101.07669,124.660233 101.946838,127.046828 C101.237357,125.963204 100.443909,124.97812 100.080433,124.049009 L99.9923491,123.796971 L101.232045,125.162491 L100.987432,124.743661 C98.7937771,121.04898 96.8244034,119.334585 96.0566826,116.456189 L95.9763751,116.131418 L97.3242949,117.359134 L96.8393546,116.536938 C95.6575761,114.547709 94.6035157,112.95058 93.2684414,112.576458 L93.0920288,112.534537 L94.3263894,115.202041 L93.9805204,114.637929 C91.8453028,111.149615 90.4978876,108.824899 89.1151459,105.63128 L88.8705984,105.058267 L89.6421301,106.234636 L89.5760223,106.045859 C87.699927,100.862309 75.2493398,79.0950438 73.8072847,74.0770668 L73.75841,73.896809 L75.666126,75.2169395 L74.242382,71.4834582 C74.3312331,71.9409102 73.2218892,73.8302774 73.0990197,74.5502794 L73.0880217,74.6646704 L73.0910775,74.696 L72.4033924,73.5239269 C66.7795277,64.0414562 46.1352699,30.9957713 40.9493609,24.0625693 L40.6397565,23.6561249 C38.4890279,21.2585114 39.1047316,23.9674634 38.9999088,24.0732014 C37.5424605,21.3225992 38.3722116,21.7490652 37.7944199,20.615097 L37.6686872,20.383035 Z M64.0938502,225.050087 L64.1660855,225.062682 C63.7408801,225.164554 62.6025698,225.917522 61.455401,226.652773 C62.4741223,228.247294 69.2419751,254.800486 69.8310618,256.31971 C66.8944869,259.79665 60.7290084,262.0777 57.6418399,266.343041 C58.8687347,265.882402 55.0463152,268.203315 56.8180044,267.906557 C55.9587351,268.128018 54.8824339,268.996146 54.1250368,269.492219 L54.7056806,268.918384 C55.5039112,268.115966 56.1498245,267.383487 56.0207443,267.042859 C50.3690556,270.723543 44.5003351,275.055323 38.7954957,278.598702 C35.3928034,280.483336 35.2906613,282.838278 34.5843908,283.418848 L34.5257247,283.461989 L34.2644005,282.762171 L30.8716157,284.981212 C31.8991954,285.171669 31.9390584,286.535869 33.5557249,285.831623 C33.7107477,286.239111 32.4749944,286.699751 31.4075517,287.576737 C31.7264557,287.195824 32.2668209,286.150527 31.4651316,286.496006 C28.8297438,288.210116 30.9247663,287.536874 28.0679175,289.919796 C28.0147668,289.78249 29.5207026,287.590024 26.7258629,288.892216 L26.2434729,289.17427 C22.5223802,291.396998 12.6936214,298.179636 2.85677975,305.063309 C1.89994,305.718506 0.946419427,306.380566 0.000645495257,307.044497 L0.000645495257,268.351879 L5.09862484,264.734887 C12.0570278,259.808736 18.1367175,255.550166 21.7263165,253.086964 L22.7705667,252.373272 L24.3562285,250.295966 C26.8543103,249.365829 28.5462736,247.554277 31.7574603,245.990761 C33.2279623,244.870168 32.2623917,244.790442 31.4474147,245.162497 C34.1470261,243.89334 36.472399,241.60723 38.1350577,240.912143 L38.3481442,240.830716 L38.0735324,241.366652 C42.3671296,239.399466 43.5639573,236.218347 47.994809,233.948176 L48.4822066,233.708526 L48.5264988,233.863549 C50.5905168,233.035284 52.1894663,230.957978 53.6068177,229.686791 C55.9941689,228.477613 54.346498,230.426471 56.352936,229.456472 C56.6408355,228.15428 58.89531,227.343732 60.879602,226.094691 L60.1338589,226.647846 C58.270529,228.047473 56.5118669,229.526818 57.0394656,230.054417 C59.5737405,228.234386 58.1832392,230.276435 60.4079745,228.421294 L60.6138486,228.247294 L60.26394,227.264006 C61.2174631,226.314558 63.2694123,225.110185 64.0054996,225.051174 L64.0938502,225.050087 Z M145.413422,78.6804839 L200.586844,108.533591 L201.561364,110.282488 C201.770451,110.660807 201.974437,111.032073 202.173089,111.395946 C204.375374,113.394008 206.306139,116.84447 208.102324,119.256482 C206.961068,118.064955 206.758379,118.769267 207.412542,119.782103 L208.08115,120.801559 C212.083601,126.961802 207.551729,121.059298 212.070324,128.660615 L212.399492,129.25032 C218.112742,139.347824 240.108733,171.938396 245.68498,179.364436 C247.361458,184.040837 251.245125,188.673178 253.392191,193.068236 L253.685337,193.692124 L253.650828,193.121066 L253.955055,193.657674 C257.257405,199.31649 272.736256,221.879955 276.142655,227.870248 L276.366279,228.271639 L275.780344,227.65274 L275.937379,227.990096 C278.100834,232.573919 278.818682,231.394492 281.392441,234.702023 C280.017074,234.933972 281.757306,239.057352 282.647633,240.692438 L282.712752,240.810305 L282.91908,240.607042 L283.042704,240.846772 L283.308135,241.384254 C284.556001,243.969106 286.507326,248.711712 288.44151,252.141355 L288.663978,252.530044 L289.179879,251.998036 L289.311445,252.333723 C290.748228,255.864372 294.528542,261.258958 295.847572,263.457884 C299.24044,268.243999 305.041905,275.168874 308.611397,282.270736 L308.949708,282.9585 L313.505554,286.260965 L313.743087,287.020947 L313.202494,287.657455 C310.299216,291.009978 296.349696,306.27916 287.222735,301.26545 L286.923875,301.09293 L286.399761,301.62162 L285.345897,299.79615 L285.191412,299.609799 C283.748819,297.824831 283.756384,296.529747 283.311864,296.899681 L283.264188,296.943938 L285.189512,299.828507 L285.083046,299.689305 C283.677479,297.872027 284.280147,299.512965 284.446833,300.53163 L283.974031,299.897085 C283.50255,299.274419 283.033572,298.697101 282.553955,298.252527 C282.523874,297.676679 283.007435,298.407082 283.34543,298.658291 C282.836684,297.363572 282.397701,295.399586 281.213426,294.180662 C279.765109,292.019071 280.142541,294.65564 278.443754,292.144445 C269.39437,278.953223 260.383281,266.341167 251.853034,252.633575 C251.463426,252.501243 251.603951,252.758655 251.732794,253.138902 L251.784337,253.306124 L251.243141,252.333288 C249.069276,248.477515 246.861033,245.14546 244.920069,241.534703 C243.982947,240.673597 243.432858,240.628098 242.987592,240.476862 C243.417234,240.622792 240.510941,235.738205 237.336331,230.615993 L236.989093,230.056494 L232.350234,222.702973 L232.350234,222.702973 L230.928195,220.526037 C230.442705,219.794738 230.12539,219.335308 230.045928,219.251562 L230.032944,219.239656 L230.960794,218.267398 L230.792759,218.009231 C228.395244,214.385705 228.903605,217.822227 226.816268,213.994174 C227.422741,211.535383 222.650938,207.892481 222.644901,206.074755 C222.538418,206.1846 221.311743,204.38485 220.900665,204.81112 C221.379059,203.709818 219.886082,202.805661 219.360908,201.504305 C219.32623,200.975962 219.752741,201.584162 220.186452,201.773193 L220.262972,201.801883 L218.860567,198.970943 L218.761265,198.882226 C217.877896,198.115752 217.285179,198.215018 217.890316,199.362376 L216.649032,197.588573 C210.124702,188.199807 190.663855,159.465956 186.595608,152.304474 C187.84554,152.852473 188.896841,155.417354 190.463689,155.653904 C189.753702,153.332019 188.394052,152.878226 188.428757,151.645432 C186.51662,151.830831 185.363168,147.808207 183.046036,147.087451 L182.8181,147.028261 L183.301472,145.914638 L182.155492,145.274881 L179.658107,140.313333 C179.04689,139.136051 179.541287,140.397002 176.594555,136.046008 L176.19031,135.446 L175.945313,135.023367 C173.648881,130.989636 173.315303,128.304374 171.699591,126.212753 L171.489788,125.951448 L171.588173,126.034123 C171.987919,126.343349 172.611254,126.532423 172.203594,125.508827 C171.339037,125.780543 170.796702,122.074163 169.692418,121.981507 L169.60018,121.80839 C168.87052,120.472892 166.746656,117.188475 168.46509,117.759519 C167.566345,117.453727 165.297343,114.296544 166.082452,116.538909 C165.412632,115.541373 164.666478,114.633418 164.338343,113.757207 L164.259587,113.518983 L165.428928,114.774868 L165.201999,114.385595 C163.167316,110.957574 161.277678,109.396606 160.619099,106.682111 L160.548634,106.363609 L161.819562,107.498117 L161.351455,106.70077 C160.262208,104.862133 159.283915,103.400674 157.999798,103.086048 L157.822045,103.050212 L158.950916,105.541337 L157.944671,103.897417 C156.344897,101.256019 155.247183,99.2646128 154.141007,96.6496409 L153.905636,96.0841208 L154.621498,97.18545 L154.558172,96.9957217 L154.433039,96.6534688 C153.230064,93.502852 148.993698,85.6295861 145.413422,78.6804839 Z M232.945806,126.042902 L293.260431,158.677403 L297.336618,164.893167 C302.409956,172.598094 307.603057,180.423583 309.300731,183.428291 L309.409981,183.623742 L308.804382,182.982568 L308.965305,183.322458 C311.234886,188.054503 311.941324,186.860644 314.592407,190.294012 C313.269626,190.488356 314.864974,194.366755 315.815851,196.194566 L316.017419,196.568801 L316.232831,196.354877 L316.357397,196.594342 L316.63453,197.149123 C317.939166,199.817532 320.000637,204.718103 322.011492,208.269854 L322.234671,208.658761 L322.746466,208.125093 L322.885726,208.471232 C324.403745,212.112381 328.317474,217.692906 329.677655,219.973248 C333.184651,224.935051 339.156422,232.085211 342.888205,239.427334 L343.242195,240.138394 L347.875738,243.567792 L348.127168,244.352497 L347.496041,245.145002 C344.448478,248.887138 331.110485,264.285469 321.932913,259.108271 L321.622061,258.923998 L321.109396,259.471645 L320.008947,257.560474 L319.852777,257.37155 C318.34135,255.499067 318.316929,254.143138 317.877627,254.542807 L317.832244,254.588672 L319.836337,257.573124 L319.737995,257.443257 C318.347924,255.63328 318.866753,257.105172 319.094599,258.154643 L319.127098,258.312465 C318.473045,257.41286 317.814721,256.5593 317.162995,255.937705 C317.111592,255.343689 317.618922,256.098026 317.970026,256.364085 C317.417059,255.013284 316.910087,252.969281 315.700549,251.682825 C314.231296,249.489592 314.606047,252.010561 313.005783,249.757646 L312.854757,249.53942 C303.390507,235.731537 293.970319,222.500372 285.01218,208.137417 C284.554594,207.981202 284.813195,208.357977 284.961208,208.842937 C282.478767,204.381367 279.950331,200.612996 277.726491,196.5282 C276.759127,195.611882 276.19759,195.547427 275.735897,195.389553 C276.185634,195.543585 273.110482,190.434726 269.782281,185.06546 L269.424869,184.489413 L264.556945,176.780604 L264.556945,176.780604 L262.880428,174.109923 C262.528587,173.559251 262.30015,173.215763 262.23216,173.144118 L262.218911,173.132155 L263.164847,172.162427 L262.998628,171.895997 C260.57148,168.066147 261.078915,171.622169 258.968632,167.615134 C259.582695,165.102085 254.774841,161.181879 254.773159,159.294256 C254.666676,159.404101 253.428011,157.503965 253.013615,157.938449 C253.500305,156.816614 251.994468,155.82605 251.459587,154.477778 C251.422561,153.919741 251.860419,154.573984 252.301257,154.783535 L252.374676,154.814059 L250.951363,151.84569 L250.854946,151.753903 C249.96494,150.929238 249.362704,151.003852 249.978747,152.207505 L248.361958,149.786156 C245.02581,144.75116 238.872557,135.303036 232.945806,126.042902 Z M37.2153987,160.435755 L37.2895599,160.444747 C36.8732129,160.573194 35.801341,161.361596 34.7250397,162.154427 C35.9165008,163.616071 45.0008373,189.154971 45.6740792,190.647619 C43.0032577,194.253007 36.992802,196.901682 34.2245375,201.291042 C35.4204278,200.772823 31.7618895,203.293051 33.5158618,202.89885 C32.665451,203.164603 31.6600174,204.09474 30.9336248,204.630676 L31.2057621,204.326488 C32.0606361,203.367504 32.8208957,202.465841 32.6565926,202.097161 C27.2662281,206.083461 21.7119824,210.747433 16.264038,214.591999 C12.9950382,216.662078 13.0475847,219.013502 12.3902498,219.626467 L12.3353171,219.672318 L12.0252715,218.999076 L8.79193866,221.395286 C9.82394764,221.532592 9.95682433,222.883505 11.5114816,222.095103 C11.697509,222.502591 10.4971895,223.02524 9.48732668,223.955377 L9.56327709,223.843018 C9.84926188,223.38899 10.1845602,222.522154 9.47403902,222.883505 L9.08567193,223.177576 C7.17613639,224.664522 8.84622828,224.100149 6.30714452,226.488892 C6.2451354,226.347157 7.61376533,224.079395 4.91193925,225.53218 L4.56846347,225.763783 C3.53117681,226.473879 1.95530754,227.636768 0.00182055698,229.118783 L0.000336558687,187.332124 L0.282299695,187.202542 C2.48392152,186.139011 4.0159707,184.374152 6.91394808,182.745885 C8.26929034,181.563283 7.31257816,181.536707 6.53746412,181.944196 C9.10063625,180.558812 11.2139869,178.188683 12.7961147,177.427024 L13.008559,177.333374 L12.7870979,177.856023 C16.8702088,175.707691 17.7903121,172.529735 21.9731495,170.065603 L22.4516626,169.794837 L22.5092425,169.932143 C24.4891052,169.015294 25.8931689,166.889266 27.1909313,165.564929 C29.4586935,164.253879 27.9881915,166.238171 29.8971866,165.184016 C30.0699263,163.908399 32.2402456,162.982692 34.1093777,161.640637 L33.3936926,162.242908 C31.6679851,163.714408 30.0646918,165.250588 30.6368668,165.733239 C32.9969914,163.80301 31.8021357,165.870047 33.8437994,163.944113 L34.0385102,163.757806 L33.5911586,162.814381 C34.4591092,161.840484 36.3917458,160.536683 37.1265356,160.441227 L37.2153987,160.435755 Z M327.669492,177.29605 L374.60056,202.687849 L374.020929,203.19105 C368.28272,208.120921 356.938918,216.343726 349.779006,211.50524 L349.490267,211.301308 L348.922721,211.783788 L347.995084,209.846896 L347.853173,209.643578 C346.531463,207.70012 346.639373,206.404525 346.154811,206.734896 L346.102488,206.774912 L347.834078,209.846 L347.739223,209.700095 C346.552829,207.894611 346.877651,209.221153 347.006279,210.246051 L347.033008,210.490039 C346.467892,209.559488 345.900163,208.670875 345.299543,208.017381 C345.307293,207.442486 345.742196,208.210555 346.068577,208.490511 C345.647978,207.154973 345.345718,205.136355 344.25237,203.78697 C342.989255,201.542562 343.126186,204.008492 341.741332,201.692265 L341.611163,201.46826 C336.926314,193.320617 332.243241,185.368495 327.669492,177.29605 Z M36.1522136,19.5601227 L36.5960697,19.8013601 C36.6127438,20.0409012 36.6663151,20.3050548 36.7258406,20.4792585 C36.5458204,20.1490689 36.345206,19.8409981 36.1522136,19.5601227 Z" id="Shape" fill="#1BAA3E"></path>
            <path d="M1601.00108,663.56532 L1190.21568,694.730844 C1168.13472,696.406084 1151.3817,682.50341 1149.23478,660.722407 C1132.10985,486.986301 1131.03195,379.190607 1146.00108,337.335324 C1170.00108,270.228774 1227.00108,251.725719 1292.00108,246.187147 C1357.00108,240.648575 1358.00108,210.394135 1468.00108,199.405782 C1541.33441,192.080214 1585.66774,181.466726 1601.00108,167.56532 L1601.00108,663.56532 Z" id="Shape" fill="#48BAFD"></path>
            <path d="M521.959288,645.029122 C550.17377,593.744256 577.609892,568.404752 604.267652,569.010611 C650.954675,570.071679 538.481393,717.560229 575.618797,754.697634 L546.804068,739.13768 C531.313466,730.772755 519.884675,716.474898 515.137881,699.522061 L515.511905,700.857861 C510.265898,682.12212 512.580928,662.075967 521.959288,645.029122 Z" id="Shape" fill="#FFAE96"></path>
            <path d="M569.707379,676.871793 C597.921862,625.586928 625.357983,600.247424 652.015744,600.853282 C698.702767,601.914351 586.229484,749.402901 623.366889,786.540305 L594.55216,770.980352 C579.061558,762.615427 567.632767,748.31757 562.885973,731.364733 L563.259997,732.700532 C558.013989,713.964791 560.32902,693.918639 569.707379,676.871793 Z" id="Shape" fill="#FFAE96"></path>
            <path d="M616.976441,719.322822 C639.675633,665.369684 664.312757,637.301137 690.887813,635.117182 C707.180218,633.778261 705.951575,652.322899 699.222974,678.412213 C686.730116,726.851709 655.277475,801.299659 681.805479,822.781613 C676.283136,820.508956 672.141378,818.804464 669.380207,817.668136 C665.411748,816.034963 659.45906,813.585204 651.522142,810.318857 C635.242026,803.618965 622.381311,790.594067 615.888466,774.230275 L616.40007,775.519661 C609.224383,757.434913 609.431337,737.256589 616.976441,719.322822 Z" id="Shape" fill="#FFAE96"></path>
            <path d="M846.001078,822 C815.001078,835 779.001078,846 716.740935,845.950227 C688.09208,839.58313 685.060535,833.691577 676.087767,818.544955 L676.794776,819.738434 C666.878356,802.998864 663.926177,783.036594 668.572929,764.143307 C682.552526,707.303486 702.495438,675.726414 728.401665,669.412092 C757.337451,662.359353 739.156919,729.590324 733.987374,786.034958 L846.001078,822 Z" id="Shape" fill="#FFAE96"></path>
            <path d="M563.741661,748.28398 C559.977752,746.251469 554.331887,743.202702 546.804068,739.13768 C531.313466,730.772755 519.884675,716.474898 515.137881,699.522061 L515.511905,700.857861 C510.265898,682.12212 512.580928,662.075967 521.959288,645.029122 C550.17377,593.744256 577.609892,568.404752 604.267652,569.010611 C620.880972,569.388186 617.34057,588.307185 607.559333,614.197441" id="Shape" stroke="#000000" stroke-width="3" stroke-linecap="round" stroke-linejoin="round"></path>
            <path d="M608.043536,778.265695 C605.045453,776.64673 600.548327,774.218282 594.55216,770.980352 C579.061558,762.615427 567.632767,748.31757 562.885973,731.364733 L563.259997,732.700532 C558.013989,713.964791 560.32902,693.918639 569.707379,676.871793 C597.921862,625.586928 625.357983,600.247424 652.015744,600.853282 C668.518444,601.228344 665.134916,619.898735 655.501975,645.523874" id="Shape" stroke="#000000" stroke-width="3" stroke-linecap="round" stroke-linejoin="round"></path>
            <path d="M667.417014,816.860207 C663.88482,815.406574 658.58653,813.226124 651.522142,810.318857 C635.242026,803.618965 622.381311,790.594067 615.888466,774.230275 L616.40007,775.519661 C609.224383,757.434913 609.431337,737.256589 616.976441,719.322822 C639.675633,665.369684 664.312757,637.301137 690.887813,635.117182 C707.180218,633.778261 705.951575,652.322899 699.222974,678.412213" id="Shape" stroke="#000000" stroke-width="3" stroke-linecap="round" stroke-linejoin="round"></path>
            <path d="M846.001078,822 C815.001078,832 778.282919,848.779059 716.740935,845.949542 C688.09208,839.58313 685.060535,833.691577 676.087767,818.544955 L676.794776,819.738434 C666.878356,802.998864 663.926177,783.036594 668.572929,764.143307 C682.552526,707.303486 702.495438,675.726414 728.401665,669.412092 C757.337451,662.359353 739.156919,729.590324 733.987374,786.034958" id="Shape" stroke="#000000" stroke-width="3" stroke-linecap="round" stroke-linejoin="round"></path>
            <path d="M961.001078,583 C1000.33441,633.666667 1052.00108,673 1116.00108,701" id="Shape" stroke="#000000" stroke-width="3" stroke-linecap="round" stroke-linejoin="round"></path>
            <path d="M911.001078,630 C950.334411,680.666667 1002.00108,720 1066.00108,748" id="Shape" stroke="#000000" stroke-width="3" stroke-linecap="round" stroke-linejoin="round"></path>
            <path d="M859.001078,669 C898.334411,719.666667 950.001078,759 1014.00108,787" id="Shape" stroke="#000000" stroke-width="3" stroke-linecap="round" stroke-linejoin="round"></path>
            <path d="M797.001078,700 C836.334411,750.666667 888.001078,790 952.001078,818" id="Shape" stroke="#000000" stroke-width="3" stroke-linecap="round" stroke-linejoin="round"></path>
            <path d="M1184.83293,664.632095 C1185.97701,664.632095 1187.13166,664.776426 1188.26871,665.093249 C1195.33388,667.032915 1199.42091,674.464194 1197.57981,681.497683 C1196.45628,685.800091 1195.36712,690.114423 1194.25848,694.424398 L1190.21568,694.730844 C1181.68259,695.378233 1173.94517,693.699212 1167.53889,690.138137 L1167.90398,689.520366 L1167.98142,689.242265 C1169.25576,684.289253 1170.5653,679.350322 1171.86427,674.41139 C1173.40263,668.525507 1178.98929,664.632095 1184.83293,664.632095 Z M1242.82225,659.084157 C1244.62111,659.091198 1246.30379,659.545312 1247.85623,660.45002 L1248.9056,661.221017 C1249.93846,661.992341 1250.67051,662.634032 1251.46314,663.907691 L1251.63699,664.195582 L1251.82357,664.537048 L1253.28448,665.660012 C1255.46704,667.391982 1256.55832,669.926573 1257.34334,672.521008 C1258.17668,675.246173 1257.81042,678.365862 1257.23041,681.102399 L1257.14621,681.490643 C1256.92795,682.529121 1256.69561,683.58872 1256.38583,684.602557 C1255.84059,686.368525 1255.21716,688.103216 1254.58506,689.846999 L1224.80658,692.106859 C1224.8362,691.626972 1224.91653,691.159046 1225.05565,690.717863 L1225.14348,690.463797 L1225.4603,689.625974 C1224.87946,686.362689 1225.70672,682.926911 1226.95994,679.832598 C1227.73616,677.921094 1228.52425,676.00959 1229.33612,674.114423 L1230.15634,672.225306 C1230.82167,670.697511 1231.48348,669.169716 1232.21217,667.666563 C1232.43982,667.192501 1232.67528,666.720003 1232.91336,666.24907 L1233.27177,665.543843 L1234.00399,664.195582 C1234.60595,663.164144 1235.16215,662.523456 1235.82396,661.949653 C1236.40481,661.372329 1237.05606,660.872452 1237.77771,660.45002 C1239.33719,659.545312 1241.01987,659.091198 1242.82225,659.084157 Z M1327.70287,662.868442 C1328.94201,662.868442 1330.17762,663.033894 1331.38507,663.36832 C1334.87365,664.329352 1337.89756,666.659767 1339.72106,669.775201 C1341.44599,672.721663 1342.43518,677.213521 1341.12916,680.52609 L1340.09421,683.141647 L1340.09421,683.141647 L1340.10945,683.358722 L1309.08438,685.711882 L1310.05227,683.458471 L1310.05227,683.458471 C1311.47445,680.019172 1312.86144,676.569312 1314.23082,673.108892 C1314.89263,670.750315 1316.086,668.698 1317.81093,666.948429 C1318.75436,666.223254 1319.70483,665.49808 1320.64122,664.769385 C1322.78858,663.519691 1325.23869,662.868442 1327.70287,662.868442 Z M1408.83794,641.599002 L1408.99987,641.609563 C1411.11555,641.616604 1413.08337,642.148164 1414.91039,643.207763 C1415.69189,643.816769 1416.48395,644.429295 1417.27249,645.038301 C1418.62286,646.398531 1419.58992,647.985686 1420.16507,649.805488 L1420.28232,650.199009 L1420.79627,651.885216 C1422.97532,653.099707 1424.82346,654.86336 1426.17876,657.162093 C1428.78163,661.61138 1428.80186,667.158876 1426.35754,671.662523 L1426.17876,671.982407 C1425.23924,673.614294 1424.44706,675.308862 1423.68753,677.018354 L1391.01826,679.49632 C1390.92937,677.8127 1391.09967,676.261342 1391.44035,674.316918 L1391.52879,673.823506 L1391.80689,672.390758 C1392.37014,669.735473 1393.03755,667.099944 1393.72446,664.47006 L1395.21903,658.78944 C1396.00027,655.834953 1396.80919,652.866979 1397.79487,649.994834 C1398.38275,647.185663 1400.63572,644.573626 1403.05414,643.162 C1404.84244,642.123522 1406.7645,641.599002 1408.83794,641.599002 Z M1576.43472,609.519365 C1577.6402,609.930807 1578.76977,610.424436 1579.80631,611.022881 C1581.73,612.133525 1583.34372,613.626158 1584.54208,615.732603 C1586.22652,618.700955 1586.70492,622.265626 1585.84493,625.557551 C1585.49842,626.889942 1584.93392,628.149316 1584.18297,629.30918 C1583.64538,630.285799 1582.9924,631.192331 1581.96095,632.340469 L1581.69505,632.632717 L1580.84344,633.551545 L1579.6588,634.797646 C1579.46246,635.00707 1579.26776,635.217585 1579.07629,635.429522 C1578.39268,636.177061 1577.68691,636.899613 1576.98676,637.633543 C1573.97084,642.843195 1567.04265,645.204693 1561.38251,643.729411 C1557.69762,642.768552 1554.48748,640.309514 1552.60589,636.999705 C1551.3794,634.836372 1550.76362,632.509398 1550.72665,630.024755 C1550.43855,626.968306 1551.42206,623.589167 1553.23819,621.105352 C1554.26798,619.687803 1555.35381,618.335126 1556.45712,616.980343 C1556.95501,616.365402 1557.5859,615.851141 1558.21289,615.368758 L1559.98796,614.003925 C1561.27799,613.018236 1562.56481,612.0909 1564.03642,611.364851 C1567.77663,609.512251 1572.29166,608.098868 1576.43472,609.519365 Z M1174.67344,593.248166 C1176.12027,593.248166 1177.57414,593.487544 1178.96465,593.976861 C1180.77758,594.173996 1182.55532,594.740758 1184.11479,595.659547 C1186.04038,596.796593 1187.57522,598.327908 1188.71578,600.264054 C1189.15229,601.28141 1189.58177,602.302287 1190.01828,603.326684 L1190.13099,604.089652 C1190.47627,606.347529 1190.84378,608.347638 1190.09924,610.669956 C1189.64161,612.081583 1189.01148,613.412243 1188.38136,614.746423 C1188.05749,615.425834 1187.74067,616.098205 1187.43088,616.777616 C1187.06478,617.566155 1186.70923,618.361735 1186.36424,619.157315 L1185.8564,620.389675 C1184.66016,623.2785 1183.36454,626.234367 1181.53796,628.707793 L1180.49833,630.101543 C1179.4566,631.480221 1178.38468,632.800981 1177.06722,633.949467 C1173.37095,637.17403 1168.60803,638.888399 1163.71486,637.540137 C1159.20892,636.301004 1155.48096,632.706814 1154.4108,628.105828 C1153.71027,625.067839 1153.97429,621.955925 1154.70298,618.946099 C1155.62529,615.080848 1157.32206,611.349367 1159.09275,607.79038 C1160.47974,604.99881 1162.01105,602.270605 1163.53885,599.54944 C1165.81998,595.487054 1170.22735,593.248166 1174.67344,593.248166 Z M1365.18313,585.521185 C1367.67134,585.534438 1370.00987,586.121457 1372.18111,587.291048 L1372.58625,587.517175 L1372.85379,587.72135 C1375.01171,588.995686 1376.73664,590.713575 1378.01098,592.875018 L1379.45781,596.307276 L1379.45781,596.307276 C1379.96774,598.196653 1380.09826,600.079958 1379.855,601.965649 L1379.79223,602.400854 L1380.03161,603.189394 C1380.77791,605.970403 1380.77791,608.744372 1380.03161,611.528901 C1379.45781,614.098694 1378.28204,616.555839 1376.96194,618.82993 C1375.83193,620.787197 1374.55408,622.4206 1373.13189,624.254658 C1372.20606,625.451548 1371.12182,626.41258 1369.93901,627.20112 C1365.28874,631.298708 1358.29045,632.245659 1352.68971,628.964772 C1349.86294,627.317288 1347.69094,624.705252 1346.46941,621.716547 C1344.95129,618.950206 1344.14444,615.724775 1344.44234,612.644427 L1344.4875,612.243515 C1344.7832,609.839174 1344.8536,607.276421 1345.6703,604.953046 C1346.37084,602.950016 1347.11009,600.929384 1348.13449,599.056603 C1348.69421,598.025165 1349.2821,597.000768 1349.93687,596.022135 L1351.02991,594.375201 C1352.13747,592.714846 1353.31632,591.059441 1354.81595,589.815908 C1356.64649,587.999451 1358.80089,586.739197 1361.28268,586.045704 C1362.58518,585.866171 1363.88415,585.690158 1365.18313,585.521185 Z M1309.6404,560.935656 C1316.35002,560.935656 1323.36943,565.709135 1324.8409,572.499726 C1325.52735,575.710207 1325.89346,579.233992 1324.68249,582.39167 C1324.49005,582.884507 1324.30386,583.375779 1324.12394,583.870702 L1323.43631,585.813367 C1323.52784,586.489258 1323.56656,587.168669 1323.56656,587.872722 C1323.40463,589.344192 1323.468,590.879028 1322.947,592.269533 C1322.55474,593.346734 1322.11851,594.364449 1321.61393,595.32268 L1321.35584,595.796838 L1321.44032,595.765155 C1320.60426,597.317005 1319.84643,598.905525 1319.11589,600.508305 L1318.65931,601.517268 C1317.53987,605.692302 1316.49083,609.888458 1315.41715,614.070532 C1313.27331,622.339634 1304.27199,627.253924 1296.13666,625.015035 C1287.89576,622.7454 1283.20669,614.233488 1285.12226,606.059317 L1285.1992,605.745106 C1285.58995,604.178588 1285.9807,602.615591 1286.38201,601.049073 C1286.13207,599.0214 1286.28344,596.990208 1286.82908,594.955495 C1287.45921,591.30146 1288.92364,587.728391 1290.25782,584.275011 C1290.8281,582.7965 1291.41598,581.317989 1291.99683,579.839478 C1292.71848,577.361211 1293.50702,574.904067 1294.45045,572.499726 C1295.20379,569.838406 1296.55205,567.515031 1298.49876,565.550723 C1299.56892,564.730501 1300.63204,563.91028 1301.69164,563.090058 C1304.1523,561.65731 1306.80658,560.949737 1309.6404,560.935656 Z M1245.13506,557 C1246.19114,557 1247.24722,557.13377 1248.28218,557.418912 C1253.50625,558.8587 1257.14621,563.716665 1257.18553,569.113231 C1257.20841,573.169917 1255.86527,577.3192 1254.74291,581.238739 L1254.57641,581.824907 C1253.49921,585.626793 1252.5593,589.805347 1250.51051,593.216484 C1249.12272,595.535058 1247.07419,597.30194 1244.70782,598.354859 L1244.36765,598.500401 L1244.19867,598.834826 C1243.84665,599.54944 1243.53686,600.309817 1243.12499,600.982188 C1242.20972,602.495902 1241.09028,603.882886 1239.93211,605.217066 C1237.8622,607.614367 1234.2328,608.86054 1231.14905,608.86054 C1228.90664,608.8535 1226.82265,608.279697 1224.8865,607.156732 C1222.10549,605.53389 1220.02502,602.844408 1219.17311,599.739534 C1218.58523,597.542889 1218.58523,595.335683 1219.17311,593.135518 C1219.72227,590.079928 1221.00013,587.112345 1222.1583,584.236288 L1225.37934,576.224166 L1225.37934,576.224166 C1225.98834,574.090885 1227.0585,572.228665 1228.62854,570.658627 L1229.902,569.671193 L1231.18073,568.683759 L1232.08544,568.208523 L1232.75561,566.69054 C1233.32034,565.428017 1233.90944,564.178323 1234.58835,562.991491 C1236.74275,559.224807 1240.89315,557 1245.13506,557 Z M1481.80627,549.003495 C1483.8795,548.989418 1485.92792,549.546085 1487.70527,550.572242 C1488.60462,551.091481 1489.43357,551.732666 1490.17124,552.475618 C1493.51214,555.86057 1494.5092,561.295418 1492.43976,565.596236 L1492.30045,565.875083 L1492.2995,565.890798 C1492.30032,568.452129 1491.66215,570.859973 1490.38945,573.09252 L1488.04868,576.118925 L1488.04868,576.118925 C1486.78996,577.566893 1485.39527,578.757511 1483.89186,579.946336 C1482.86486,580.952103 1481.72231,581.775919 1480.47473,582.414965 L1480.05499,582.621133 L1479.00227,583.501077 C1477.62788,584.642446 1476.1957,585.721991 1474.74312,586.773501 C1473.09172,587.958173 1471.30077,588.708641 1469.3349,589.325592 C1463.48277,591.153942 1456.81774,588.053817 1453.8564,582.868636 C1450.92894,577.723342 1451.5857,570.354919 1456.1492,566.294843 C1457.88786,564.73374 1459.68866,563.241028 1461.51419,561.782922 C1462.14239,561.222891 1462.77153,560.647145 1463.40583,560.090634 C1464.44039,559.171748 1465.63338,558.267104 1466.67524,557.279261 C1467.12281,556.785668 1467.57343,556.293836 1468.03882,555.818661 C1469.46531,554.426612 1471.08342,553.376517 1472.90009,552.678894 L1473.32285,552.524166 L1473.95067,552.049278 C1475.78002,550.02836 1479.2379,549.016781 1481.80627,549.003495 Z M1590.29626,527.250019 C1592.78077,527.241515 1595.22825,527.902569 1597.3623,529.134662 C1598.43542,529.754229 1599.42276,530.515321 1600.30123,531.408667 C1600.54487,531.655744 1600.77851,531.91159 1601.00185,532.175434 L1601.00185,550.364413 C1600.73711,550.644813 1600.45692,550.904521 1600.16098,551.139779 C1599.4257,551.723348 1598.69523,552.305629 1597.9569,552.887438 C1597.27528,554.363738 1596.33277,555.693474 1595.14508,556.877592 C1592.81913,559.48949 1590.02902,561.729506 1587.36674,564.006552 L1586.70418,564.576821 C1584.96452,566.086135 1583.2206,567.548762 1581.43729,568.971476 L1580.05375,570.061965 L1579.77421,570.278603 C1578.11129,571.891568 1576.15757,573.015511 1573.92758,573.618187 C1572.81305,573.767358 1571.69852,573.916529 1570.57742,574.070387 C1567.0462,574.096231 1563.58746,572.652146 1561.10586,570.142209 C1557.46724,566.439897 1556.52871,561.186875 1558.12683,556.475666 C1557.93882,552.513636 1559.33395,548.477876 1562.30839,545.71977 C1565.27145,542.96729 1568.53863,540.561108 1571.78141,538.140846 C1574.73271,535.873419 1577.6588,533.579246 1580.57493,531.267125 C1582.32736,529.555442 1584.38701,528.374771 1586.75563,527.722062 C1587.93525,527.565758 1589.12097,527.412974 1590.29626,527.250019 Z M1520.69403,482.077642 C1522.49693,482.073904 1524.18124,482.521973 1525.74566,483.417064 C1527.3,484.322588 1528.53019,485.557206 1529.42228,487.116925 L1529.87117,488.137347 C1530.41931,489.396465 1530.75956,490.328408 1530.8158,491.876494 L1530.82374,492.251058 L1530.81459,492.640063 L1531.51829,494.343034 C1532.54246,496.934246 1532.22024,499.674907 1531.60287,502.314264 C1530.96066,505.096746 1529.07717,507.620021 1527.20276,509.702415 L1526.94733,509.983628 C1526.23908,510.773848 1525.50807,511.575319 1524.73287,512.298436 C1523.47294,513.466862 1522.16799,514.578079 1520.8502,515.688122 L1519.85994,516.52131 C1517.42073,518.612868 1514.80104,519.953912 1511.51,519.972593 C1508.79492,519.986115 1506.13115,519.066044 1504.01261,517.391705 C1503.06988,517.12964 1502.18371,516.774797 1501.35328,516.324146 L1500.94271,516.090822 L1500.6711,516.096599 C1498.43544,516.110659 1496.23796,515.199651 1494.66356,513.60371 C1493.13699,512.051645 1492.26395,509.937916 1492.25387,507.765591 C1492.2436,505.772904 1493.01802,503.326159 1494.54248,501.929358 L1494.74558,501.753244 L1495.43887,501.18608 C1496.56748,498.06957 1499.0018,495.50773 1501.63428,493.454584 C1503.26225,492.187282 1504.90052,490.925921 1506.55119,489.690588 L1508.20609,488.464676 C1509.54618,487.474231 1510.88322,486.482027 1512.26586,485.544606 C1512.70004,485.247878 1513.14021,484.956416 1513.58185,484.667613 L1514.24486,484.236076 L1515.55311,483.434555 C1516.59015,482.842287 1517.39217,482.565536 1518.25222,482.399512 C1519.04391,482.189957 1519.85784,482.082675 1520.69403,482.077642 Z M1472.75147,459.227058 C1473.74228,459.799101 1474.67006,460.501418 1475.49636,461.344318 C1480.64515,466.556704 1480.46898,475.035894 1475.35779,480.206525 C1468.35878,487.295203 1461.47922,494.521954 1454.28628,501.425507 C1449.26518,506.566848 1440.60024,506.332214 1435.62579,501.289585 C1433.49802,499.138394 1432.17864,496.262925 1431.89203,493.260189 C1431.26142,491.127891 1431.19308,488.824313 1431.75497,486.583798 C1432.65868,482.983801 1434.78142,479.990046 1437.64981,477.711335 C1439.08048,476.578076 1440.53319,475.498186 1442.05717,474.491968 C1442.84582,473.965225 1443.64977,473.452522 1444.47497,472.976019 L1445.64643,472.316457 L1445.85255,472.114337 C1449.43266,468.46207 1453.03622,464.839599 1456.63064,461.211848 C1460.90583,456.883702 1467.69073,456.305238 1472.75147,459.227058 Z M1601.00032,444.968963 L1601.00122,485.168868 C1596.6249,485.380503 1592.15596,483.817243 1588.95186,480.569543 C1582.8729,474.405508 1583.15097,464.517736 1589.1147,458.412564 C1590.23636,457.251294 1591.35626,456.093073 1592.48706,454.937084 C1593.28444,453.056099 1594.43113,451.37272 1595.92103,449.883427 C1597.41487,448.089455 1599.17907,446.48863 1601.00032,444.968963 Z M1210.28785,440.723534 C1217.37653,447.722553 1224.60328,454.602112 1231.50684,461.795048 C1236.64818,466.816152 1236.41354,475.48109 1231.37091,480.455538 C1229.21972,482.58331 1226.34425,483.902693 1223.34152,484.189294 C1221.20922,484.819913 1218.90564,484.888251 1216.66513,484.326363 C1213.06513,483.422645 1210.07138,481.29991 1207.79266,478.431521 C1206.65941,477.000848 1205.57951,475.548143 1204.5733,474.024157 C1204.04655,473.235512 1203.53385,472.431559 1203.05735,471.606361 L1202.39779,470.4349 L1202.19567,470.22878 C1198.5434,466.648666 1194.92093,463.045107 1191.29318,459.450694 C1186.96503,455.175497 1186.38657,448.390601 1189.30839,443.329861 C1189.88043,442.339053 1190.58275,441.411265 1191.42565,440.584967 C1196.63803,435.436182 1205.11722,435.612352 1210.28785,440.723534 Z M1295.67756,423.641565 L1295.95641,423.780884 L1295.97213,423.781827 C1298.53346,423.781006 1300.9413,424.419178 1303.17385,425.69188 C1304.18206,426.473151 1305.19028,427.254422 1306.20025,428.032644 C1307.64822,429.291373 1308.83884,430.686062 1310.02766,432.189465 C1311.03343,433.216466 1311.85725,434.359016 1312.49629,435.6066 L1312.70246,436.026336 L1313.58241,437.079062 C1314.72378,438.453446 1315.80332,439.885627 1316.85483,441.338205 C1318.0395,442.989611 1318.78997,444.780555 1319.40692,446.746432 C1321.23527,452.598556 1318.13515,459.263589 1312.94997,462.224931 C1307.80467,465.152393 1300.43625,464.495626 1296.37617,459.932132 C1294.81507,458.193468 1293.32236,456.39267 1291.86425,454.567138 C1291.30422,453.93894 1290.72847,453.309799 1290.17196,452.675504 C1289.25308,451.640943 1288.34843,450.447946 1287.36059,449.406092 C1286.867,448.958522 1286.37516,448.507903 1285.89999,448.042513 C1284.50794,446.61602 1283.45785,444.99791 1282.76022,443.181239 L1282.60549,442.758479 L1282.13061,442.13066 C1280.10969,440.301312 1279.09811,436.843426 1279.08482,434.275055 C1279.07075,432.201827 1279.62741,430.153411 1280.65357,428.376054 C1281.17281,427.476706 1281.81399,426.647763 1282.55695,425.910094 C1285.9419,422.569192 1291.37675,421.572127 1295.67756,423.641565 Z M1136.08601,407.851528 L1135.50545,407.783192 L1138.80902,408.186511 L1138.80902,408.186511 L1139.52612,408.470384 C1141.65414,409.300305 1143.57004,409.982082 1145.20896,411.788028 C1146.20265,412.890164 1147.03997,414.101201 1147.88034,415.313997 L1148.51962,416.237935 L1148.51962,416.237935 L1149.16417,417.152726 C1149.66401,417.864054 1150.17523,418.569757 1150.69173,419.266313 L1151.50506,420.322301 C1153.40874,422.802685 1155.32078,425.40266 1156.54954,428.221236 L1157.01025,429.287679 C1157.77142,431.058477 1158.48039,432.808071 1158.8536,434.713844 C1159.79801,439.527196 1158.90124,444.509189 1155.28703,448.072666 C1151.96094,451.355357 1146.9843,452.78677 1142.46465,451.413063 C1139.86819,450.6185 1137.58899,449.162287 1135.56263,447.38855 C1135.44734,433.014639 1135.62172,419.837418 1136.08601,407.851528 Z M1578.7907,396.165997 C1579.70529,396.694037 1580.55299,397.337925 1581.30672,398.102343 C1585.11101,401.961273 1585.83432,407.988371 1583.16983,412.681447 C1581.16156,416.20623 1577.92373,419.128043 1574.99197,421.961286 L1574.55469,422.385672 C1571.72087,425.139601 1568.8176,428.28838 1565.33773,430.218114 C1562.98194,431.529186 1560.33111,432.035766 1557.76079,431.768569 L1557.37589,431.72269 L1557.06235,431.927824 C1556.40017,432.370684 1555.75171,432.874299 1555.05883,433.250653 C1553.50933,434.103933 1551.84637,434.745375 1550.17628,435.321726 C1547.18503,436.362891 1543.41879,435.627412 1540.74818,434.085536 C1538.80972,432.958235 1537.29183,431.419308 1536.17656,429.47872 C1534.57956,426.682793 1534.12255,423.313394 1534.93722,420.198543 C1535.52642,418.00225 1536.63002,416.090754 1538.23923,414.479297 C1540.24261,412.107659 1542.83306,410.176585 1545.27409,408.264931 L1552.06965,402.93675 L1552.06965,402.93675 C1553.66371,401.393778 1555.5216,400.316128 1557.66632,399.741454 L1560.86401,399.307264 L1561.88513,399.348052 C1563.44423,398.203576 1565.00731,397.045145 1566.66123,396.081423 C1570.41034,393.896581 1575.11709,394.045037 1578.7907,396.165997 Z M1499.64506,392.32702 C1500.89805,393.050434 1502.03745,393.984676 1502.997,395.10369 C1504.46849,396.180882 1505.72467,397.560579 1506.61582,399.136013 C1507.7149,401.083515 1508.27845,403.177091 1508.29814,405.424125 L1507.89482,408.72769 L1507.89482,408.72769 L1507.61095,409.444795 C1506.78102,411.572811 1506.09925,413.488714 1504.2933,415.127633 C1503.19116,416.12132 1501.98013,416.958642 1500.76733,417.799012 C1500.14715,418.225467 1499.53659,418.649345 1498.9286,419.082841 C1498.21727,419.582682 1497.51157,420.093901 1496.81502,420.6104 L1495.75903,421.423733 C1493.27864,423.32741 1490.67867,425.239455 1487.86009,426.468216 L1486.26287,427.155422 C1484.67137,427.828531 1483.08268,428.436382 1481.36748,428.772271 C1476.55413,429.716685 1471.57214,428.819913 1468.00866,425.2057 C1464.72597,421.87961 1463.29456,416.902969 1464.66827,412.383318 C1465.58058,409.402077 1467.36519,406.83909 1469.50117,404.596852 C1472.23254,401.710601 1475.56772,399.327428 1478.88068,397.130601 C1481.47763,395.406522 1484.16789,393.809485 1486.85158,392.216785 C1490.85829,389.839221 1495.79463,390.103973 1499.64506,392.32702 Z M1232.39559,384.478458 C1235.17807,385.120671 1237.70135,387.004163 1239.78374,388.878571 L1240.06496,389.133999 C1240.85518,389.842253 1241.65665,390.573263 1242.37976,391.348462 C1243.54819,392.608391 1244.65941,393.913337 1245.76945,395.231132 L1246.60264,396.221385 C1248.6942,398.660597 1250.03524,401.280292 1250.05392,404.571326 C1250.06744,407.286411 1249.14737,409.950181 1247.47303,412.068723 C1247.21097,413.011446 1246.85613,413.897616 1246.40547,414.728045 L1246.17215,415.138619 L1246.17793,415.410234 C1246.19199,417.64589 1245.28098,419.84337 1243.68504,421.417772 C1242.13297,422.944339 1240.01925,423.817375 1237.84692,423.827454 C1235.85423,423.837727 1233.40749,423.063308 1232.01069,421.538844 L1231.83457,421.335751 L1231.26741,420.642462 C1228.1509,419.513844 1225.58906,417.079525 1223.53591,414.447053 C1222.26861,412.819076 1221.00725,411.180811 1219.77192,409.530135 L1218.546,407.875243 C1217.55556,406.535153 1216.56336,405.198111 1215.62593,403.815467 C1215.32921,403.38129 1215.03774,402.941121 1214.74894,402.499476 L1214.31741,401.836467 L1213.51588,400.528219 C1212.92362,399.491183 1212.64686,398.689154 1212.48084,397.829108 C1212.27129,397.037421 1212.164,396.223484 1212.15897,395.387298 C1212.15523,393.584397 1212.6033,391.90009 1213.49839,390.335667 C1214.40392,388.781333 1215.63854,387.551141 1217.19825,386.659045 L1218.21868,386.210157 C1219.47779,385.662023 1220.40974,385.321766 1221.95782,385.265531 L1222.33239,385.257588 L1222.72139,385.266743 L1224.42436,384.56304 C1227.01558,383.538869 1229.75624,383.861087 1232.39559,384.478458 Z M1151.76138,340.797722 L1152.467,341.526637 C1155.22093,344.360464 1158.36971,347.263727 1160.29944,350.743603 C1161.61052,353.099393 1162.1171,355.750218 1161.8499,358.320539 L1161.80402,358.705436 L1162.00915,359.018984 C1162.45201,359.681154 1162.95563,360.329623 1163.33198,361.022499 C1164.18526,362.572002 1164.8267,364.234961 1165.40305,365.905054 C1166.44422,368.896303 1165.70874,372.662537 1164.16687,375.333144 C1163.03956,377.271607 1161.50064,378.789499 1159.56005,379.904769 C1156.76412,381.501772 1153.39472,381.958776 1150.27987,381.14411 C1148.08358,380.55491 1146.17208,379.451307 1144.56063,377.842102 C1142.38374,376.003229 1140.57803,373.669747 1138.81782,371.411198 L1139.05634,369.500888 C1140.75536,356.249254 1143.07075,345.528831 1146.00108,337.335324 L1146.60071,335.695024 C1148.424,337.281063 1150.11053,339.082539 1151.76138,340.797722 L1151.76138,340.797722 Z M1355.63888,330.236396 C1356.97127,330.582908 1358.23065,331.147414 1359.39051,331.898358 C1360.36713,332.435944 1361.27366,333.088925 1362.4218,334.120381 L1362.71405,334.386283 L1363.63287,335.237891 C1364.25202,335.827055 1364.87504,336.430645 1365.51085,337.005037 C1366.25839,337.68865 1366.98094,338.39442 1367.71487,339.094564 C1372.92452,342.110488 1375.28602,349.038681 1373.81074,354.698819 C1372.84988,358.383707 1370.39084,361.593847 1367.08103,363.475434 C1364.9177,364.701928 1362.59073,365.317708 1360.10608,365.354675 C1357.04964,365.642783 1353.6705,364.65927 1351.18668,362.843143 C1349.76913,361.813349 1348.41645,360.727516 1347.06167,359.624209 C1346.44673,359.126322 1345.93247,358.495431 1345.45009,357.868441 L1344.08525,356.093365 C1343.09956,354.803342 1342.17223,353.516518 1341.44618,352.044906 C1339.59358,348.3047 1338.1802,343.789668 1339.60069,339.646608 C1340.01214,338.441132 1340.50577,337.311561 1341.10421,336.275024 C1342.21485,334.351333 1343.70749,332.73761 1345.81393,331.539245 C1348.78228,329.854808 1352.34696,329.376404 1355.63888,330.236396 Z M1271.20651,311.764134 C1274.62069,311.743758 1279.00535,313.133019 1281.22111,315.920349 L1282.96877,318.124427 L1282.96877,318.124427 C1284.44507,318.806045 1285.7748,319.748558 1286.95892,320.93625 C1289.57082,323.262203 1291.81083,326.052304 1294.08788,328.714586 L1294.65815,329.377151 C1296.16746,331.116806 1297.63009,332.860724 1299.0528,334.644035 L1300.14329,336.027578 L1300.35993,336.307119 C1301.9729,337.970037 1303.09684,339.923764 1303.69952,342.153745 C1303.84869,343.268276 1303.99786,344.382808 1304.15172,345.503908 C1304.17756,349.035128 1302.73348,352.493868 1300.22354,354.975467 C1296.52123,358.61409 1291.2682,359.552617 1286.55699,357.954498 C1282.59496,358.142513 1278.55921,356.747382 1275.8011,353.77294 C1273.04862,350.809874 1270.64244,347.542703 1268.22217,344.299922 C1265.95475,341.348622 1263.66057,338.422529 1261.34845,335.506398 C1259.63677,333.753966 1258.4561,331.69432 1257.80339,329.325701 C1257.64709,328.146079 1257.4943,326.960359 1257.33135,325.785074 C1257.32284,323.300557 1257.9839,320.85308 1259.21599,318.719033 C1259.83556,317.645912 1260.59665,316.658566 1261.49,315.780096 C1264.06657,313.239411 1267.59672,311.785838 1271.20651,311.764134 Z M1553.43472,305.519365 C1554.6402,305.930807 1555.76977,306.424436 1556.80631,307.022881 C1558.73,308.133525 1560.34372,309.626158 1561.54208,311.732603 C1563.22652,314.700955 1563.70492,318.265626 1562.84493,321.557551 C1562.49842,322.889942 1561.93392,324.149316 1561.18297,325.30918 C1560.64538,326.285799 1559.9924,327.192331 1558.96095,328.340469 L1558.69505,328.632717 L1557.84344,329.551545 L1556.6588,330.797646 C1556.46246,331.00707 1556.26776,331.217585 1556.07629,331.429522 C1555.39268,332.177061 1554.68691,332.899613 1553.98676,333.633543 C1550.97084,338.843195 1544.04265,341.204693 1538.38251,339.729411 C1534.69762,338.768552 1531.48748,336.309514 1529.60589,332.999705 C1528.3794,330.836372 1527.76362,328.509398 1527.72665,326.024755 C1527.43855,322.968306 1528.42206,319.589167 1530.23819,317.105352 C1531.26798,315.687803 1532.35381,314.335126 1533.45712,312.980343 C1533.95501,312.365402 1534.5859,311.851141 1535.21289,311.368758 L1536.98796,310.003925 C1538.27799,309.018236 1539.56481,308.0909 1541.03642,307.364851 C1544.77663,305.512251 1549.29166,304.098868 1553.43472,305.519365 Z M1188.01087,281.096379 C1188.34146,281.509456 1188.67382,281.916332 1189.01247,282.319612 L1189.52574,282.922164 L1190.35106,283.886446 C1190.98216,284.145126 1191.58991,284.451297 1192.19964,284.803323 C1193.393,285.679296 1194.75389,286.391838 1195.6976,287.538289 C1196.43436,288.416595 1197.09761,289.303235 1197.67518,290.219328 L1197.95676,290.679926 L1197.97156,290.590918 C1198.89747,292.090895 1199.89426,293.541459 1200.91704,294.975512 L1201.56254,295.875399 C1204.6185,298.932383 1207.72796,301.938955 1210.8129,304.959827 C1216.90223,310.950999 1216.65747,321.203513 1210.65087,327.129473 C1204.48684,333.208429 1194.59907,332.930363 1188.49389,326.966629 C1187.33262,325.844971 1186.1744,324.725073 1185.01841,323.594269 C1183.13743,322.796887 1181.45405,321.650199 1179.96476,320.160303 C1177.11533,317.787579 1174.75318,314.732811 1172.42956,311.850687 C1171.43427,310.617552 1170.44778,309.369174 1169.45778,308.126893 C1167.68127,306.272089 1165.95598,304.370394 1164.35229,302.362331 C1170.91232,293.514412 1178.38613,286.020831 1186.62559,279.669684 C1187.12567,280.103542 1187.58988,280.57684 1188.01087,281.096379 Z M1458.80627,245.003495 C1460.8795,244.989418 1462.92792,245.546085 1464.70527,246.572242 C1465.60462,247.091481 1466.43357,247.732666 1467.17124,248.475618 C1470.51214,251.86057 1471.5092,257.295418 1469.43976,261.596236 L1469.30045,261.875083 L1469.2995,261.890798 C1469.30032,264.452129 1468.66215,266.859973 1467.38945,269.09252 L1465.04868,272.118925 L1465.04868,272.118925 C1463.78996,273.566893 1462.39527,274.757511 1460.89186,275.946336 C1459.86486,276.952103 1458.72231,277.775919 1457.47473,278.414965 L1457.05499,278.621133 L1456.00227,279.501077 C1454.62788,280.642446 1453.1957,281.721991 1451.74312,282.773501 C1450.09172,283.958173 1448.30077,284.708641 1446.3349,285.325592 C1440.48277,287.153942 1433.81774,284.053817 1430.8564,278.868636 C1427.92894,273.723342 1428.5857,266.354919 1433.1492,262.294843 C1434.88786,260.73374 1436.68866,259.241028 1438.51419,257.782922 C1439.14239,257.222891 1439.77153,256.647145 1440.40583,256.090634 C1441.44039,255.171748 1442.63338,254.267104 1443.67524,253.279261 C1444.12281,252.785668 1444.57343,252.293836 1445.03882,251.818661 C1446.46531,250.426612 1448.08342,249.376517 1449.90009,248.678894 L1450.32285,248.524166 L1450.95067,248.049278 C1452.78002,246.02836 1456.2379,245.016781 1458.80627,245.003495 Z M1211.74043,264.628891 L1212.97708,264.063707 C1223.10822,259.515557 1233.93049,256.009387 1245.27045,253.297953 C1245.4199,253.545235 1245.56484,253.792508 1245.70705,254.040176 C1246.83709,255.997422 1247.61273,257.92078 1248.48998,260.069459 C1249.0636,261.469696 1249.35376,262.889192 1249.44525,264.307805 C1250.66873,270.38385 1247.98967,276.91802 1242.34797,280.127961 C1239.50782,281.752276 1236.15973,282.327267 1232.96067,281.890793 C1229.80589,281.822347 1226.60916,280.908384 1224.09045,279.110221 L1223.76583,278.87066 C1221.83146,277.412404 1219.64725,276.070055 1218.0435,274.201083 C1216.65909,272.592889 1215.2788,270.942359 1214.16913,269.118814 C1213.55574,268.118362 1212.96252,267.097041 1212.44239,266.040677 L1211.74043,264.628891 L1211.74043,264.628891 Z M1323.00524,247.589378 L1323.6319,248.524329 C1324.04679,249.152285 1324.44856,249.792537 1324.79314,250.463003 C1325.44,251.69415 1325.97789,252.980265 1326.42347,254.306577 C1327.07262,255.70977 1327.36158,257.201743 1327.28636,258.796452 C1327.50443,261.2068 1326.9307,264.537987 1325.48473,266.556682 C1324.65521,267.71183 1323.78735,268.848904 1322.88032,269.95524 C1321.13094,271.668683 1319.06391,272.841025 1316.70233,273.481539 C1314.0527,274.191506 1310.83389,274.267995 1308.22967,273.406699 C1305.26433,272.429509 1303.52874,271.33549 1301.27565,269.474759 L1300.61631,268.921697 L1299.51457,267.96448 C1297.49665,266.149055 1295.54792,264.253294 1293.61383,262.343467 L1289.44155,258.208825 C1287.27351,256.055009 1285.10763,253.870475 1283.11311,251.580784 C1281.89222,250.488414 1280.99822,248.958316 1280.45324,247.32533 C1283.50733,246.980616 1286.5827,246.670563 1289.67692,246.391085 L1292.00108,246.187147 C1302.3453,245.305728 1311.06865,243.798351 1318.8684,241.842285 C1320.23693,243.76244 1321.68256,245.627686 1323.00524,247.589378 Z M1567.29626,223.250019 C1569.78077,223.241515 1572.22825,223.902569 1574.3623,225.134662 C1575.43542,225.754229 1576.42276,226.515321 1577.30123,227.408667 C1579.84192,229.985237 1581.29549,233.515389 1581.31719,237.125183 C1581.33757,240.539358 1579.94831,244.924019 1577.16098,247.139779 C1576.4257,247.723348 1575.69523,248.305629 1574.9569,248.887438 C1574.27528,250.363738 1573.33277,251.693474 1572.14508,252.877592 C1569.81913,255.48949 1567.02902,257.729506 1564.36674,260.006552 L1563.70418,260.576821 C1561.96452,262.086135 1560.2206,263.548762 1558.43729,264.971476 L1557.05375,266.061965 L1556.77421,266.278603 C1555.11129,267.891568 1553.15757,269.015511 1550.92758,269.618187 C1549.81305,269.767358 1548.69852,269.916529 1547.57742,270.070387 C1544.0462,270.096231 1540.58746,268.652146 1538.10586,266.142209 C1534.46724,262.439897 1533.52871,257.186875 1535.12683,252.475666 C1534.93882,248.513636 1536.33395,244.477876 1539.30839,241.71977 C1542.27145,238.96729 1545.53863,236.561108 1548.78141,234.140846 C1551.73271,231.873419 1554.6588,229.579246 1557.57493,227.267125 C1559.32736,225.555442 1561.38701,224.374771 1563.75563,223.722062 C1564.93525,223.565758 1566.12097,223.412974 1567.29626,223.250019 Z M1508.60287,198.314264 C1507.96066,201.096746 1506.07717,203.620021 1504.20276,205.702415 L1503.94733,205.983628 C1503.23908,206.773848 1502.50807,207.575319 1501.73287,208.298436 C1500.47294,209.466862 1499.16799,210.578079 1497.8502,211.688122 L1496.85994,212.52131 C1494.42073,214.612868 1491.80104,215.953912 1488.51,215.972593 C1485.79492,215.986115 1483.13115,215.066044 1481.01261,213.391705 C1480.06988,213.12964 1479.18371,212.774797 1478.35328,212.324146 L1477.94271,212.090822 L1477.6711,212.096599 C1475.43544,212.110659 1473.23796,211.199651 1471.66356,209.60371 C1470.13699,208.051645 1469.26395,205.937916 1469.25387,203.765591 C1469.24619,202.270166 1469.68039,200.519023 1470.54188,199.147821 L1474.00612,198.790505 C1486.62655,197.470997 1498.34755,196.048683 1509.17117,194.524626 C1509.12127,195.792531 1508.89514,197.06475 1508.60287,198.314264 Z M1588.1215,176.73157 C1584.45959,180.453477 1579.2057,181.80905 1574.32081,180.928959 C1580.48587,178.918183 1585.78053,176.809523 1590.20516,174.602221 L1588.1215,176.73157 L1588.1215,176.73157 Z" id="Shape" fill="#2C9EE1"></path>
            <path d="M0.00107750541,470 C36.6677442,467.333333 69.3344108,477 98.0010775,499 C126.667744,521 170.667744,521 230.001078,499" id="Shape" stroke="#000000" stroke-width="3" stroke-linecap="round" stroke-linejoin="round"></path>
            <path d="M144.001078,545 C177.334411,583 212.667744,603 250.001078,605 C306.001078,608 333.001078,585 348.001078,569 C358.001078,558.333333 404.667744,465.666667 488.001078,291" id="Shape" stroke="#000000" stroke-width="3" stroke-linecap="round" stroke-linejoin="round"></path>
            <path d="M1601.00108,166 C1559.66774,214 1512.33441,248.666667 1459.00108,270" id="Shape" stroke="#000000" stroke-width="3" stroke-linecap="round" stroke-linejoin="round"></path>
            <path d="M1549.00108,187 C1487.66774,198.333333 1443.00108,205.333333 1415.00108,208 C1373.00108,212 1322.00108,259 1276.00108,322" id="Shape" stroke="#000000" stroke-width="3" stroke-linecap="round" stroke-linejoin="round"></path>
            <path d="M1305.00108,244 C1306.00108,244 1217.00108,246 1178.00108,288 C1139.00108,330 1133.00108,368 1136.00108,501 L1150.00108,663" id="Shape" stroke="#000000" stroke-width="3" stroke-linecap="round" stroke-linejoin="round"></path>
        </g>
    </g>
</svg>