<svg width="91" height="31" viewBox="0 0 91 31" fill="none" xmlns="http://www.w3.org/2000/svg">
<g clip-path="url(#clip0_1979_990)">
<path fill-rule="evenodd" clip-rule="evenodd" d="M7.74858 0C3.46927 0 0 3.46984 0 7.74987C0 12.0304 3.46927 15.4997 7.74858 15.4997H7.75168H15.5003V7.74987C15.5003 3.46984 12.031 0 7.75168 0H7.74858ZM24.5408 2.58381C20.974 2.58381 18.0836 5.47517 18.0836 9.04203V15.4997H24.5408H24.5429C28.1096 15.4997 31 12.6084 31 9.04203C31 5.47517 28.1096 2.58381 24.5429 2.58381H24.5408ZM18.0836 18.083V23.2491V23.2506C18.0836 26.1033 20.3956 28.4157 23.2483 28.4157C26.1 28.4157 28.4125 26.1033 28.4125 23.2506V23.2491C28.4125 20.3954 26.1 18.083 23.2483 18.083H18.0836ZM10.5229 18.083C6.13829 18.083 2.58286 21.6385 2.58286 26.0244V31H8.12213C12.2044 30.9561 15.4997 27.6328 15.4997 23.5391V18.083H10.5229ZM5.16572 26.0244C5.16572 23.07 7.56903 20.6663 10.5229 20.6663H12.9174V23.5391C12.9174 26.2287 10.7303 28.4157 8.04113 28.4157H5.16572V26.0244Z" fill="url(#paint0_linear_1979_990)"/>
<path fill-rule="evenodd" clip-rule="evenodd" d="M39.925 20.4515H47.9937V23.3274H35.7131V21.0254L43.7705 11.698H35.9567V8.82166H47.8446V11.1216L39.925 20.4515Z" fill="#233638"/>
<path fill-rule="evenodd" clip-rule="evenodd" d="M51.0246 23.3274H54.2044V8.82165H51.0246V23.3274ZM54.8412 3.80734C54.8412 5.07988 53.8571 6.02061 52.599 6.02061C51.328 6.02061 50.3883 5.07988 50.3883 3.80734C50.3883 2.55131 51.328 1.56775 52.599 1.56775C53.8571 1.56775 54.8412 2.55131 54.8412 3.80734Z" fill="#233638"/>
<path fill-rule="evenodd" clip-rule="evenodd" d="M60.5183 16.0734C60.5183 18.6195 62.1696 20.7244 64.8938 20.7244C67.4998 20.7244 69.2718 18.7232 69.2718 16.0734C69.2718 13.4241 67.4998 11.4255 64.8938 11.4255C62.1696 11.4255 60.5183 13.5304 60.5183 16.0734ZM69.0742 10.5771V1.52173H72.2395V23.3278H69.0742V21.5872C68.0591 22.8747 66.591 23.7061 64.515 23.7061C60.458 23.7061 57.2632 20.5123 57.2632 16.0734C57.2632 11.6376 60.458 8.4433 64.515 8.4433C66.591 8.4433 68.0591 9.2896 69.0742 10.5771Z" fill="#233638"/>
<path fill-rule="evenodd" clip-rule="evenodd" d="M75.5326 29.4752L80.7254 20.346L74.291 8.8219H77.8491L82.5114 17.1486L87.0102 8.8219H90.4914L79.0452 29.4752H75.5326Z" fill="#233638"/>
</g>
<defs>
<linearGradient id="paint0_linear_1979_990" x1="28.0017" y1="0.840326" x2="1.14448" y2="28.3571" gradientUnits="userSpaceOnUse">
<stop stop-color="#82EFAC"/>
<stop offset="1" stop-color="#23CCF4"/>
</linearGradient>
<clipPath id="clip0_1979_990">
<rect width="91" height="31" fill="white"/>
</clipPath>
</defs>
</svg>
