<svg width="91" height="31" viewBox="0 0 91 31" fill="none" xmlns="http://www.w3.org/2000/svg">
<g clip-path="url(#clip0_1989_1376)">
<path fill-rule="evenodd" clip-rule="evenodd" d="M7.74858 0C3.46927 0 0 3.46984 0 7.74987C0 12.0304 3.46927 15.4997 7.74858 15.4997H7.75168H15.5003V7.74987C15.5003 3.46984 12.031 0 7.75168 0H7.74858ZM24.5408 2.58381C20.974 2.58381 18.0836 5.47517 18.0836 9.04203V15.4997H24.5408H24.5429C28.1096 15.4997 31 12.6084 31 9.04203C31 5.47517 28.1096 2.58381 24.5429 2.58381H24.5408ZM18.0836 18.083V23.2491V23.2506C18.0836 26.1033 20.3956 28.4157 23.2483 28.4157C26.1 28.4157 28.4125 26.1033 28.4125 23.2506V23.2491C28.4125 20.3954 26.1 18.083 23.2483 18.083H18.0836ZM10.5229 18.083C6.13829 18.083 2.58286 21.6385 2.58286 26.0244V31H8.12213C12.2044 30.9561 15.4997 27.6328 15.4997 23.5391V18.083H10.5229ZM5.16572 26.0244C5.16572 23.07 7.56903 20.6663 10.5229 20.6663H12.9174V23.5391C12.9174 26.2287 10.7303 28.4157 8.04113 28.4157H5.16572V26.0244Z" fill="url(#paint0_linear_1989_1376)"/>
<path fill-rule="evenodd" clip-rule="evenodd" d="M39.925 20.4512H47.9937V23.327H35.7131V21.025L43.7705 11.6977H35.9567V8.82129H47.8446V11.1213L39.925 20.4512Z" fill="white"/>
<path fill-rule="evenodd" clip-rule="evenodd" d="M51.0246 23.327H54.2044V8.82128H51.0246V23.327ZM54.8412 3.80697C54.8412 5.07952 53.8571 6.02025 52.599 6.02025C51.328 6.02025 50.3883 5.07952 50.3883 3.80697C50.3883 2.55095 51.328 1.56738 52.599 1.56738C53.8571 1.56738 54.8412 2.55095 54.8412 3.80697Z" fill="white"/>
<path fill-rule="evenodd" clip-rule="evenodd" d="M60.5183 16.0732C60.5183 18.6193 62.1696 20.7242 64.8938 20.7242C67.4998 20.7242 69.2718 18.723 69.2718 16.0732C69.2718 13.4238 67.4998 11.4252 64.8938 11.4252C62.1696 11.4252 60.5183 13.5301 60.5183 16.0732ZM69.0742 10.5769V1.52148H72.2395V23.3276H69.0742V21.587C68.0591 22.8745 66.591 23.7058 64.515 23.7058C60.458 23.7058 57.2632 20.5121 57.2632 16.0732C57.2632 11.6373 60.458 8.44306 64.515 8.44306C66.591 8.44306 68.0591 9.28936 69.0742 10.5769Z" fill="white"/>
<path fill-rule="evenodd" clip-rule="evenodd" d="M75.5326 29.4745L80.7254 20.3454L74.291 8.82129H77.8491L82.5114 17.148L87.0102 8.82129H90.4914L79.0452 29.4745H75.5326Z" fill="white"/>
</g>
<defs>
<linearGradient id="paint0_linear_1989_1376" x1="28.0017" y1="0.840326" x2="1.14448" y2="28.3571" gradientUnits="userSpaceOnUse">
<stop stop-color="#82EFAC"/>
<stop offset="1" stop-color="#23CCF4"/>
</linearGradient>
<clipPath id="clip0_1989_1376">
<rect width="91" height="31" fill="white"/>
</clipPath>
</defs>
</svg>
