<?xml version="1.0" encoding="UTF-8"?>
<svg width="100px" height="84px" viewBox="0 0 100 84" version="1.1" xmlns="http://www.w3.org/2000/svg" xmlns:xlink="http://www.w3.org/1999/xlink">
    <title>Color</title>
    <g id="⚙️-Symbols" stroke="none" stroke-width="1" fill="none" fill-rule="evenodd">
        <g id="Vector/Personal-Info" transform="translate(-25.000000, -33.000000)" fill="#000000">
            <path d="M54.6875,33 C55.5504449,33 56.25,33.6958537 56.25,34.5542328 L56.25,34.5542328 L56.25,42.3253968 L93.75,42.3253968 L93.75,34.5542328 C93.75,33.6958537 94.4495551,33 95.3125,33 L95.3125,33 L104.6875,33 C105.550445,33 106.25,33.6958537 106.25,34.5542328 L106.25,34.5542328 L106.25,42.3253968 L118.75,42.3253968 C122.204687,42.3253968 125,45.1059193 125,48.542328 L125,48.542328 L125,110.71164 C125,114.148049 122.204687,116.928571 118.75,116.928571 L118.75,116.928571 L31.25,116.928571 C27.7953125,116.928571 25,114.148049 25,110.71164 L25,110.71164 L25,48.542328 C25,45.1059193 27.7953125,42.3253968 31.25,42.3253968 L31.25,42.3253968 L43.75,42.3253968 L43.75,34.5542328 C43.75,33.6958537 44.4495551,33 45.3125,33 L45.3125,33 Z M43.75,45.4338624 L31.25,45.4338624 C29.5241102,45.4338624 28.125,46.8255699 28.125,48.542328 L28.125,48.542328 L28.125,110.71164 C28.125,112.428398 29.5241102,113.820106 31.25,113.820106 L31.25,113.820106 L118.75,113.820106 C120.47589,113.820106 121.875,112.428398 121.875,110.71164 L121.875,110.71164 L121.875,48.542328 C121.875,46.8255699 120.47589,45.4338624 118.75,45.4338624 L118.75,45.4338624 L106.25,45.4338624 L106.25,50.0965608 C106.25,50.9549399 105.550445,51.6507937 104.6875,51.6507937 L104.6875,51.6507937 L95.3125,51.6507937 C94.4495551,51.6507937 93.75,50.9549399 93.75,50.0965608 L93.75,50.0965608 L93.75,45.4338624 L56.25,45.4338624 L56.25,50.0965608 C56.25,50.9549399 55.5504449,51.6507937 54.6875,51.6507937 L54.6875,51.6507937 L45.3125,51.6507937 C44.4495551,51.6507937 43.75,50.9549399 43.75,50.0965608 L43.75,50.0965608 L43.75,45.4338624 Z M59.375,58 C71.4546875,58 81.25,67.7953125 81.25,79.875 C81.25,91.9546875 71.4546875,101.75 59.375,101.75 C47.2953125,101.75 37.5,91.9546875 37.5,79.875 C37.5,67.7953125 47.2953125,58 59.375,58 Z M59.375,89.25 C52.5609375,89.25 49.1515625,92.5 47.6890625,94.521875 C50.89375,97.084375 54.9515625,98.625 59.375,98.625 C63.7984375,98.625 67.85625,97.084375 71.0625,94.521875 C69.6015625,92.503125 66.1921875,89.25 59.375,89.25 Z M110.9375,91.9285714 C111.800445,91.9285714 112.5,92.5281901 112.5,93.2678571 C112.5,94.0075242 111.800445,94.6071429 110.9375,94.6071429 L110.9375,94.6071429 L89.0625,94.6071429 C88.1995551,94.6071429 87.5,94.0075242 87.5,93.2678571 C87.5,92.5281901 88.1995551,91.9285714 89.0625,91.9285714 L89.0625,91.9285714 Z M59.375,61.125 C49.0203125,61.125 40.6249995,69.5203125 40.6249995,79.875 C40.6239393,84.4844934 42.3293694,88.9311908 45.4125,92.3578125 C47.4109375,89.759375 51.584375,86.125 59.375,86.125 C67.165625,86.125 71.3390625,89.759375 73.3375,92.3578125 C76.4206306,88.9311908 78.1260607,84.4844934 78.1249995,79.875 C78.1249995,69.5203125 69.7296875,61.125 59.375,61.125 Z M104.6875,83 C105.550445,83 106.25,83.5996186 106.25,84.3392857 C106.25,85.0789528 105.550445,85.6785714 104.6875,85.6785714 L104.6875,85.6785714 L89.0625,85.6785714 C88.1995551,85.6785714 87.5,85.0789528 87.5,84.3392857 C87.5,83.5996186 88.1995551,83 89.0625,83 L89.0625,83 Z M59.8214286,66.9285714 C64.2603571,66.9285714 67.8571429,70.4254464 67.8571429,74.7410714 L67.8571429,74.7410714 L67.8571429,77.8660714 C67.8571429,82.1816964 64.2603571,85.6785714 59.8214286,85.6785714 C55.3825,85.6785714 51.7857143,82.1816964 51.7857143,77.8660714 L51.7857143,77.8660714 L51.7857143,74.7410714 C51.7857143,70.4254464 55.3825,66.9285714 59.8214286,66.9285714 Z M59.8214286,70.0535714 C57.1586271,70.0535714 55,72.1522367 55,74.7410714 L55,74.7410714 L55,77.8660714 C55,79.5407539 55.918959,81.0882244 57.4107142,81.9255656 C58.9024695,82.7629069 60.7403877,82.7629069 62.2321429,81.9255656 C63.7238981,81.0882244 64.6428571,79.5407539 64.6428571,77.8660714 L64.6428571,77.8660714 L64.6428571,74.7410714 C64.6428571,72.1522367 62.48423,70.0535714 59.8214286,70.0535714 Z M110.9375,73.1785714 C111.800445,73.1785714 112.5,73.7781901 112.5,74.5178571 C112.5,75.2575242 111.800445,75.8571429 110.9375,75.8571429 L110.9375,75.8571429 L89.0625,75.8571429 C88.1995551,75.8571429 87.5,75.2575242 87.5,74.5178571 C87.5,73.7781901 88.1995551,73.1785714 89.0625,73.1785714 L89.0625,73.1785714 Z M98.4375,64.25 C99.3004449,64.25 100,64.8496186 100,65.5892857 C100,66.3289528 99.3004449,66.9285714 98.4375,66.9285714 L98.4375,66.9285714 L89.0625,66.9285714 C88.1995551,66.9285714 87.5,66.3289528 87.5,65.5892857 C87.5,64.8496186 88.1995551,64.25 89.0625,64.25 L89.0625,64.25 Z M103.125,36.1084656 L96.875,36.1084656 L96.875,48.542328 L103.125,48.542328 L103.125,36.1084656 Z M53.125,36.1084656 L46.875,36.1084656 L46.875,48.542328 L53.125,48.542328 L53.125,36.1084656 Z" id="Color"></path>
        </g>
    </g>
</svg>