<svg xmlns="http://www.w3.org/2000/svg" viewBox="0 0 1523 1029.5"><defs><style>.cls-1{fill:#ffae96;}.cls-1,.cls-11,.cls-12,.cls-2,.cls-5,.cls-6,.cls-7,.cls-8{fill-rule:evenodd;}.cls-2{fill:#fff;}.cls-2,.cls-4,.cls-6{stroke:#f2b1c3;}.cls-10,.cls-2,.cls-3,.cls-4,.cls-6{stroke-linecap:round;stroke-linejoin:round;stroke-width:3px;}.cls-10,.cls-3,.cls-4,.cls-9{fill:none;}.cls-3{stroke:#ffdee5;}.cls-5,.cls-6{fill:#ffefec;}.cls-7{fill:#5056d0;}.cls-8{fill:#48bafd;}.cls-9{stroke:#ff604f;stroke-width:25px;}.cls-10{stroke:#002b50;}.cls-11{fill:#31bc55;}.cls-12{fill:#fcbf52;}</style></defs><g id="Layer_2" data-name="Layer 2"><g id="Layer_1-2" data-name="Layer 1"><polygon class="cls-1" points="310.5 1028.5 361.5 817.5 242.5 92.5 0 439.5 0 1028.5 310.5 1028.5"/><path class="cls-2" d="M282.5,1.5h1199a40,40,0,0,1,40,40v736a40,40,0,0,1-40,40H282.5a40,40,0,0,1-40-40V41.5A40,40,0,0,1,282.5,1.5Z"/><path class="cls-3" d="M299,191.44h790M299,273.3h790M299,355.15h790M299,437h790M299,518.85h790M299,600.7h790M299,682.56h790"/><path class="cls-4" d="M308.5,57.5h770a10,10,0,0,1,10,10v684a10,10,0,0,1-10,10h-770a10,10,0,0,1-10-10V67.5A10,10,0,0,1,308.5,57.5Z"/><polygon class="cls-2" points="1131 61.5 1478 61.5 1478 119.5 1131 119.5 1131 61.5"/><polygon class="cls-5" points="1131 331.5 1478 331.5 1478 761.5 1131 761.5 1131 331.5"/><path class="cls-2" d="M1148,264.5h313a17,17,0,0,1,0,34H1148a17,17,0,0,1,0-34Z"/><path class="cls-6" d="M1138.5,152.5h333m-333,39h273m-273,39h173"/><path class="cls-6" d="M1173.5,386.12h262m-262,48.11h214.79M1173.5,482.35h136.11"/><path class="cls-6" d="M1173.5,610.65h262m-262,48.12h214.79M1173.5,706.88h136.11"/><path class="cls-7" d="M640.5,499.5h106a10,10,0,0,1,10,10v252h-126v-252A10,10,0,0,1,640.5,499.5Z"/><path class="cls-8" d="M872.5,209.5h106a10,10,0,0,1,10,10v542h-126v-542A10,10,0,0,1,872.5,209.5Z"/><path class="cls-8" d="M408.5,362.5h106a10,10,0,0,1,10,10v389h-126v-389A10,10,0,0,1,408.5,362.5Z"/><polyline class="cls-9" points="325.73 710.5 527.47 507.73 593.61 535.66 743.7 383.58 858.53 463.24 1030.27 291.5"/><path class="cls-1" d="M1066.78,334q17.27,43.73,29.86,85.78l1,3.41.76.45a56.32,56.32,0,0,1,13.75,3.5l.62.23c51,19.07,141,46.18,154,85.34l8,38.15c66,20.75,83,32.79,91,56.22l8,44.18q63.36,6.94,66,72l0,1.32c1.2,39.51,25.06,146,43,305H978.21C899,921,861.78,855.4,855.78,821.88c-7-39.15-14-140.55,20-149.59s56,37.15,79,136.54L1025.72,868a19,19,0,0,0,26.86-.63,19.15,19.15,0,0,0,4.93-16.7c-22.5-119.89-54-383.94-62.3-500.33q-1.49-21-1.55-40.92a44.28,44.28,0,0,1,8.84-26.7l.6-.8.62-.79a31.51,31.51,0,0,1,4.5-4.83Q1035.34,254.24,1066.78,334Zm52.66,180.1.28,1.58q1.08,6.06,2.06,12.09,35,180.71,66,215.85l-.11-3.84-.27-9.53c-1.66-61.42-2.82-141.35,3.38-174.37l-2.17-.89-2.1-.87q-51.09-21.3-65.82-38.54Z"/><path class="cls-1" d="M164.5,515.5q115-173,149-225c34-52,64,1,44,81q-20,80-48,114-12,103-34,175,46,120,19,191h-130Z"/><path class="cls-10" d="M164.5,515.5q115-173,149-225c34-52,64,1,44,81q-20,80-48,114-12,103-34,175,46,120,19,191"/><path class="cls-10" d="M309,485q-14,0-32-15"/><path class="cls-10" d="M325,285q10,28-8,60l-24-11"/><line class="cls-10" x1="1285.78" y1="756.7" x2="1274.78" y2="549.7"/><line class="cls-10" x1="1097.78" y1="422.7" x2="1119.78" y2="516.7"/><line class="cls-10" x1="1373.78" y1="650.7" x2="1380.78" y2="769.7"/><path class="cls-10" d="M952.78,806.7q-11,10-24,11"/><path class="cls-10" d="M1190.78,554.7q15-5,20-11"/><path class="cls-10" d="M1012.92,346.2q-8.2-55.33,9.12-58.8t29.74,52.3q-6.9,9.26-17.32,11T1012.92,346.2Z"/><path class="cls-10" d="M1032.78,443.7q31,4,46-10"/><path class="cls-10" d="M1065.78,620.7q31,4,46-10"/><circle class="cls-4" cx="354.5" cy="107.5" r="20"/><polygon class="cls-4" points="394.5 86.5 434.5 86.5 434.5 126.5 394.5 126.5 394.5 86.5"/><polygon class="cls-4" points="454.5 118.5 494.5 118.5 494.5 126.5 454.5 126.5 454.5 118.5"/><path class="cls-2" d="M858.42,48.5a45.16,45.16,0,0,1,45.16,45.16V258.34a45.16,45.16,0,0,1-45.16,45.16H779.2l-22.87,38.43a15.48,15.48,0,0,1-26.61,0L706.85,303.5H627.63a45.16,45.16,0,0,1-45.16-45.16V93.66A45.16,45.16,0,0,1,627.63,48.5Z"/><path class="cls-11" d="M619.53,82.5h247a7.5,7.5,0,0,1,0,15h-247a7.5,7.5,0,0,1,0-15Z"/><path class="cls-12" d="M647.37,250a7.5,7.5,0,0,1,0,15H619.53a7.5,7.5,0,0,1,0-15Zm39.55-42a7.5,7.5,0,0,1,0,15H619.53a7.5,7.5,0,0,1,0-15Zm69.2-42a7.5,7.5,0,0,1,0,15H619.53a7.5,7.5,0,0,1,0-15ZM799,124a7.5,7.5,0,0,1,0,15H619.53a7.5,7.5,0,0,1,0-15Z"/></g></g></svg>