<?xml version="1.0" encoding="UTF-8"?>
<svg width="100px" height="100px" viewBox="0 0 100 100" version="1.1" xmlns="http://www.w3.org/2000/svg" xmlns:xlink="http://www.w3.org/1999/xlink">
    <title>Color</title>
    <g id="⚙️-Symbols" stroke="none" stroke-width="1" fill="none" fill-rule="evenodd">
        <g id="Vector/Rocket" transform="translate(-25.000000, -25.000000)" fill="#000000">
            <path d="M73.2671875,25.525 C74.3160756,24.8240806 75.6839244,24.8240806 76.7328125,25.525 C87.98125,33.0234375 99.9999995,49.959375 99.9999995,75 C99.9999995,75.6671875 99.975,76.31875 99.959375,76.978125 L99.959375,76.978125 L99.9609375,76.9578125 L123.482813,91.0703125 C124.425,91.634375 124.999999,92.6515625 124.999999,93.75 L124.999999,93.75 L124.999999,103.125 C124.999999,104.85089 123.60089,106.25 121.875,106.25 L121.875,106.25 L95.0171875,106.25 C94.2109375,108.792187 93.6046875,110.339062 93.5265625,110.534375 C93.052367,111.721312 91.9031549,112.49983 90.625,112.5 L90.625,112.5 L82.8171875,112.5 C82.8171875,112.557812 82.815625,112.614062 82.8125,112.670312 C82.7515625,120.053125 78.74375,125 74.9999995,125 C71.2265625,125 67.1875,119.976562 67.1875,112.5 L67.1875,112.5 L59.375,112.5 C58.0966732,112.499172 56.9473384,111.72099 56.471875,110.534375 C56.39375,110.339062 55.7875,108.792187 54.98125,106.25 L54.98125,106.25 L28.125,106.25 C26.3991102,106.25 24.9999995,104.85089 24.9999995,103.125 L24.9999995,103.125 L24.9999995,93.75 C24.9999995,92.6521345 25.5754582,91.6346306 26.5171875,91.0703125 L26.5171875,91.0703125 L50.0375,76.9578125 L50.0390625,76.978125 C50.025,76.31875 49.9999995,75.6671875 49.9999995,75 C49.9999995,49.959375 62.01875,33.0234375 73.2671875,25.525 Z M79.6875,112.5 L70.3125,112.5 C70.3125,118.75 73.4375,121.875 75,121.875 C76.5625,121.875 79.6875,118.75 79.6875,112.5 L79.6875,112.5 Z M94.309375,96.875 L55.6921875,96.875 C57.415625,104.475 59.375,109.375 59.375,109.375 L59.375,109.375 L90.625,109.375 C90.625,109.375 92.584375,104.475 94.309375,96.875 L94.309375,96.875 Z M121.875,100 L96.7828125,100 C96.5216341,101.045975 96.2439955,102.087771 95.95,103.125 L95.95,103.125 L121.875,103.125 L121.875,100 Z M53.2171875,100 L28.125,100 L28.125,103.125 L54.0499995,103.12431 L53.8936875,102.5644 C53.7260625,101.9611 53.5573125,101.33215 53.3874375,100.671475 L53.2171875,100 Z M50.1828125,80.5140625 L28.125,93.75 L28.125,96.875 L52.4828125,96.875 C51.292515,91.4893431 50.5235226,86.0191533 50.1828125,80.5140625 L50.1828125,80.5140625 Z M99.8171875,80.5140625 C99.475158,86.0190199 98.70618,91.4891076 97.5171875,96.875 L97.5171875,96.875 L121.875,96.875 L121.875,93.75 Z M75,28.125 C65.625,34.375 53.125,50 53.125,75 C53.125,81.8765625 53.9671875,88.3296875 55.0328125,93.75 L55.0328125,93.75 L94.9671875,93.75 C96.0328125,88.3296875 96.875,81.8765625 96.875,75 C96.875,50 84.375,34.375 75,28.125 Z M75,53.125 C80.1776695,53.125 84.375,57.3223305 84.375,62.5 C84.375,67.6776695 80.1776695,71.875 75,71.875 C69.8223305,71.875 65.625,67.6776695 65.625,62.5 C65.625,57.3223305 69.8223305,53.125 75,53.125 Z M75,56.25 C71.5482203,56.25 68.75,59.0482203 68.75,62.5 C68.75,65.9517797 71.5482203,68.75 75,68.75 C78.4517797,68.75 81.25,65.9517797 81.25,62.5 C81.25,59.0482203 78.4517797,56.25 75,56.25 Z" id="Color"></path>
        </g>
    </g>
</svg>