<?xml version="1.0" encoding="UTF-8"?>
<svg width="1600px" height="1200px" viewBox="0 0 1600 1200" version="1.1" xmlns="http://www.w3.org/2000/svg" xmlns:xlink="http://www.w3.org/1999/xlink">
    <title>Notification that helps to see everything. Isolated</title>
    <g id="Notification-that-helps-to-see-everything.-Isolated" stroke="none" stroke-width="1" fill="none" fill-rule="evenodd">
        <g id="Notification-that-helps-to-see-everything." transform="translate(381.000000, -72.000000)">
            <polygon id="Shape" fill="#FFFFFF" points="1103 72 0 72 469 1044 612 1068"></polygon>
            <path d="M548.224138,769 C606.613967,769 653.948276,806.608081 653.948276,853 C653.948276,868.742546 648.497714,883.47363 639.014179,896.066947 L653.948276,937 L609.974414,921.190791 C592.60179,931.139175 571.274408,937 548.224138,937 C489.834309,937 442.5,899.391919 442.5,853 C442.5,806.608081 489.834309,769 548.224138,769 Z" id="Shape" fill="#FFEFEC"></path>
            <path d="M595.852042,593 C608.944365,593 619.55779,603.613425 619.55779,616.705748 L619.55779,703.148968 C619.55779,716.24129 608.944365,726.854715 595.852042,726.854715 L554.267656,726.854166 L542.263453,747.027404 C539.967968,750.884869 534.980015,752.151103 531.12255,749.855617 C529.958944,749.163183 528.98677,748.191009 528.294336,747.027404 L516.289693,726.854166 L474.705748,726.854715 C461.613425,726.854715 451,716.24129 451,703.148968 L451,616.705748 C451,603.613425 461.613425,593 474.705748,593 L595.852042,593 Z" id="Shape" fill="#FFD8E3"></path>
            <path d="M699.055487,179 C719.108286,179 735.364291,195.256005 735.364291,215.308803 L735.364291,347.709178 C735.364291,367.761977 719.108286,384.017982 699.055487,384.017982 L635.362946,384.01714 L616.976763,414.91539 C613.460892,420.82366 605.821117,422.763082 599.912848,419.247212 C598.130616,418.186648 596.64159,416.697622 595.581026,414.91539 L577.194168,384.01714 L513.502302,384.017982 C493.449504,384.017982 477.193499,367.761977 477.193499,347.709178 L477.193499,215.308803 C477.193499,195.256005 493.449504,179 513.502302,179 L699.055487,179 Z" id="Shape" fill="#FFEFEC"></path>
            <path d="M540.528895,266.5 C547.064236,266.5 552.362177,271.797941 552.362177,278.333283 C552.362177,284.868624 547.064236,290.166565 540.528895,290.166565 C533.993553,290.166565 528.695612,284.868624 528.695612,278.333283 C528.695612,271.797941 533.993553,266.5 540.528895,266.5 Z M606.028895,266.5 C612.564236,266.5 617.862177,271.797941 617.862177,278.333283 C617.862177,284.868624 612.564236,290.166565 606.028895,290.166565 C599.493553,290.166565 594.195612,284.868624 594.195612,278.333283 C594.195612,271.797941 599.493553,266.5 606.028895,266.5 Z M672.028895,266.5 C678.564236,266.5 683.862177,271.797941 683.862177,278.333283 C683.862177,284.868624 678.564236,290.166565 672.028895,290.166565 C665.493553,290.166565 660.195612,284.868624 660.195612,278.333283 C660.195612,271.797941 665.493553,266.5 672.028895,266.5 Z" id="Shape" fill="#FEFFFE"></path>
            <path d="M792,0 C711.366427,0 646,51.934969 646,116 C646,137.739788 653.527023,158.082784 666.623424,175.473599 L646,232 L706.726019,210.168356 C730.716748,223.906527 760.168768,232 792,232 C872.633573,232 938,180.065031 938,116 C938,51.934969 872.633573,0 792,0 Z" id="Shape" fill="#FFD8E3"></path>
            <path d="M289,471 C369.633573,471 435,522.934969 435,587 C435,646.996234 377.672811,696.35425 304.165637,702.381747 L203.200559,493.133953 C227.286105,479.212283 256.935984,471 289,471 Z" id="Shape" fill="#FFD8E3"></path>
            <path d="M436.241379,277 C376.461316,277 328,315.503512 328,363 C328,379.117695 333.580564,394.199803 343.29026,407.093134 L328,449 L373.02063,432.814251 C390.806929,442.99958 412.642193,449 436.241379,449 C496.021442,449 544.482759,410.496488 544.482759,363 C544.482759,315.503512 496.021442,277 436.241379,277 Z" id="Shape" fill="#FFD8E3"></path>
            <path d="M370.491379,351.166717 C377.026721,351.166717 382.324662,356.464659 382.324662,363 C382.324662,369.535341 377.026721,374.833283 370.491379,374.833283 C363.956038,374.833283 358.658097,369.535341 358.658097,363 C358.658097,356.464659 363.956038,351.166717 370.491379,351.166717 Z M435.991379,351.166717 C442.526721,351.166717 447.824662,356.464659 447.824662,363 C447.824662,369.535341 442.526721,374.833283 435.991379,374.833283 C429.456038,374.833283 424.158097,369.535341 424.158097,363 C424.158097,356.464659 429.456038,351.166717 435.991379,351.166717 Z M501.991379,351.166717 C508.526721,351.166717 513.824662,356.464659 513.824662,363 C513.824662,369.535341 508.526721,374.833283 501.991379,374.833283 C495.456038,374.833283 490.158097,369.535341 490.158097,363 C490.158097,356.464659 495.456038,351.166717 501.991379,351.166717 Z" id="Shape" fill="#FEFFFE"></path>
            <path d="M844.507048,315 C861.825374,315 875.864651,329.039277 875.864651,346.357603 L875.864651,460.703381 C875.864651,478.021707 861.825374,492.060984 844.507048,492.060984 L789.499853,492.060257 L773.620877,518.74511 C770.584443,523.847706 763.986456,525.522662 758.883859,522.486228 C757.344659,521.570287 756.058682,520.28431 755.142741,518.74511 L739.263182,492.060257 L684.25657,492.060984 C666.938244,492.060984 652.898967,478.021707 652.898967,460.703381 L652.898967,346.357603 C652.898967,329.039277 666.938244,315 684.25657,315 L844.507048,315 Z" id="Shape" stroke="#F2B1C3" stroke-width="3" fill="#FFFFFF" stroke-linecap="round" stroke-linejoin="round"></path>
            <path d="M840.864651,315 C860.194617,315 875.864651,330.670034 875.864651,350 L875.864651,400.252129 L851,400.252129 C812.340068,400.252129 781,368.912062 781,330.252129 L781,315 L840.864651,315 Z" id="Shape" fill="#FFD8E3"></path>
            <path d="M696,359.563291 L832,359.563291 M696,403.5 L807.495495,403.5 M696,447.436709 L766.654655,447.436709" id="Shape" stroke="#F2B1C3" stroke-width="3" fill="#FFEFEC" stroke-linecap="round" stroke-linejoin="round"></path>
            <path d="M423.551129,557.82661 L432.022192,585.632657 C438.887717,608.256195 442.770008,621.333385 443.669065,624.864226 L443.704333,625.003955 C445.383766,631.72169 435.307165,635.080557 428.58943,633.401123 L425.331369,656.200553 C421.735425,681.36484 398.420613,698.849384 373.256335,695.253385 C366.217645,694.247549 359.511317,691.625241 353.661361,687.596423 L353.014917,687.142999 L353.014917,687.142999 L358.915663,722 L248.915663,722 L252.477986,712.090417 C267.622102,670.145745 276.690906,647.504481 279.684398,644.166625 L279.779859,644.064624 C292.075873,631.524548 293.535299,601.09911 297.593607,589.735849 L298.550485,587.701783 C306.024117,571.943598 312.982703,560.305774 319.426244,552.788309 C326.143979,544.950952 360.852274,546.630386 423.551129,557.82661 Z" id="Shape" fill="#FFAE96"></path>
            <path d="M423.551129,557.82661 L434.179524,592.751892 C439.457355,610.196732 442.5798,620.744336 443.546858,624.394703 L443.704333,625.003955 C445.383766,631.72169 435.307165,635.080557 428.58943,633.401123 L425.331369,656.200553 C421.735425,681.36484 398.420613,698.849384 373.256335,695.253385 C366.217645,694.247549 359.511317,691.625241 353.661361,687.596423 L353.014917,687.142999 L358.915663,722 L313.631465,722 L277.669465,647.467378 L277.977232,646.877169 C278.676722,645.559219 279.245777,644.655704 279.684398,644.166625 L279.779859,644.064624 C292.075873,631.524548 293.535299,601.09911 297.593607,589.735849 L298.550485,587.701783 L299.349261,586.029172 C306.520502,571.117581 313.212829,560.037293 319.426244,552.788309 C326.143979,544.950952 360.852274,546.630386 423.551129,557.82661 Z" id="Shape" fill="#FFD4C7"></path>
            <path d="M278.942074,711.39759 L356.927711,711.39759 L369.803623,727.550862 C422.375922,793.569128 417.891566,789.290564 438.433735,834.650602 C465.452982,894.312955 471.225047,1115.02501 468.699798,1272 L150.767028,1272 L150.22483,1257.6681 C145.966358,1143.89725 143.60659,1051.34989 143.145524,980.026036 L114.278865,974.639962 L143.875897,889.029578 L144.016763,884.371138 C145.188621,847.605794 147.438709,822.8928 150.767028,810.232156 C166.077087,751.993982 218.725109,711.39759 278.942074,711.39759 Z" id="Shape" fill="#5056D0"></path>
            <path d="M605.189727,941.502988 C606.519816,936.965002 610.089738,934.281615 613.582751,935.155078 L613.763343,935.203438 L616.961122,935.767992 C617.159285,935.824586 617.354452,935.896131 617.545702,935.982291 C620.367932,937.253726 621.788842,941.384077 620.719391,945.207687 L614.891677,965.9951 C602.3835,1010.4936 595.70129,1033.39918 594.845046,1034.71184 L594.819446,1034.74669 C593.981985,1035.71859 593.258905,1045.50891 592.650203,1064.11765 L592.555043,1067.12916 L574.84409,1045.036 L605.189727,941.502988 Z" id="Shape" fill="#F2B1C3"></path>
            <path d="M613.012326,939.168747 C610.989744,938.591115 608.899869,940.078678 608.068291,942.657444 L608.01105,942.843485 L578.507928,1043.50083 L589.784372,1059.28507 L589.92362,1055.71376 C590.111011,1051.14295 590.30839,1047.29962 590.516136,1044.18007 L590.675928,1041.91932 C591.069514,1036.63325 591.426082,1034.09624 592.337904,1032.5059 L592.442523,1032.3311 L592.54566,1032.05154 C592.58943,1031.92973 592.638219,1031.79088 592.691616,1031.63589 L592.945353,1030.88226 L593.251795,1029.93987 C593.499243,1029.16851 593.78619,1028.25222 594.11172,1027.19348 L594.953266,1024.42488 C595.6304,1022.17565 596.423754,1019.49611 597.332993,1016.38731 L599.379705,1009.34215 C603.680688,994.452978 609.848078,972.646894 617.880447,943.928721 C618.355758,942.229339 617.724243,940.393628 616.469918,939.828545 L616.341164,939.775996 L616.210105,939.733301 L613.012326,939.168747 Z" id="Shape" fill="#FFD8E3"></path>
            <path d="M524.74468,1120.80071 L178.111217,1145.14686 C168.42224,1145.14686 158.801136,1143.53058 149.644031,1140.36456 C104.625919,1124.79979 80.5378551,1076.02313 95.3156294,1030.9269 L95.7753557,1029.56151 L114.332528,975.888462 L289.202975,1008.55419 L524.74468,1051.5755 L524.74468,1051.65372 C537.729296,1040.83321 548.279296,1035.42295 556.39468,1035.42295 L558.502083,1033.07014 C575.08084,1014.64238 584.928372,1005.68818 588.04468,1006.20757 C592.913911,1007.01911 601.029296,1017.56911 582.363911,1039.48065 C586.692116,1039.48065 590.749808,1037.85757 594.536988,1034.61142 L604.275449,1001.33834 C623.211347,1022.97936 632.949808,1040.83321 633.490834,1054.89988 L633.586141,1057.49924 C634.315357,1078.81105 633.847911,1111.99972 603.463911,1119.01142 C582.363911,1123.88065 556.124167,1124.42167 524.74468,1120.63449 L524.74468,1120.80071 Z" id="Shape" fill="#FFAE96"></path>
            <path d="M308.515,711.397 L356.927711,711.397 L369.803623,727.550862 C422.375922,793.569128 417.891566,789.290564 438.433735,834.650602 C453.040651,866.904757 461.437849,946.227429 465.671401,1037.10241 L308.515,711.397 Z" id="Shape" fill="#767CED"></path>
            <path d="M337.63673,670.104196 C338.949934,675.252371 343.933459,680.826944 352.587305,686.827913 L353.048173,687.143317 L353.053594,687.170099 L353.014917,687.142999 L356.372086,706.97999 C334.776223,698.938055 327.295863,684.625223 337.384152,670.28944 L337.63673,670.104196 Z" id="Shape" fill="#555555"></path>
            <path d="M370.531715,568.797048 C384.503892,573.89301 394.160055,573.198531 399.500202,566.713614 C408.839999,582.634648 422.598312,590.66041 440.775139,590.7909 C468.04038,590.986635 492.947481,565.588504 467.742614,531.903632 C442.537748,498.218759 416.939423,522.559124 398.375627,513.693779 C379.811831,504.828433 322.281611,487.6325 311.84059,525.396547 C282.275701,533.895738 268.357583,550.867755 270.086237,576.312599 C271.814891,601.757443 275.016384,624.57053 279.690715,644.751858 L312.472452,616.747285 L311.771511,615.546499 C302.167967,598.852817 301.368617,587.086813 309.373459,580.248487 C321.66661,569.746772 338.156734,575.438819 341.662482,590.574816 L351.125875,585.10775 C358.370359,580.922563 364.728489,575.651748 369.914978,569.535091 L370.531715,568.797048 Z" id="Shape" fill="#555555"></path>
            <path d="M412.769829,610.822622 C409.180322,610.822622 406.270451,607.912751 406.270451,604.323244 C406.270451,600.733736 409.180322,597.823865 412.769829,597.823865 C416.359337,597.823865 419.269208,600.733736 419.269208,604.323244 C419.269208,607.912751 416.359337,610.822622 412.769829,610.822622 Z" id="Shape" fill="#555555"></path>
            <path d="M336.123804,987.028026 C343.310056,955.568211 354.089435,908.378487 368.46194,845.458855 C375.651524,813.984454 368.463382,782.193141 350.792992,757.468433 M183.737865,773.74316 C164.386108,829.714396 149.87229,871.692823 140.196412,899.678441" id="Shape" stroke="#000000" stroke-width="3" stroke-linecap="round" stroke-linejoin="round"></path>
            <line x1="132" y1="979" x2="488.619406" y2="1044.03919" id="Shape" stroke="#000000" stroke-width="3" stroke-linecap="round" stroke-linejoin="round"></line>
            <polygon id="Shape" stroke="#F2B1C3" stroke-width="3" fill="#FFFFFF" stroke-linecap="round" stroke-linejoin="round" points="60 103 393.301075 103 393.301075 381 60 381"></polygon>
            <polygon id="Shape" stroke="#F2B1C3" stroke-width="3" stroke-linecap="round" stroke-linejoin="round" points="169.107527 197.908602 364.903226 197.908602 364.903226 224.064516 169.107527 224.064516"></polygon>
            <polygon id="Shape" fill="#48BAFD" points="169.107527 290.575269 364.903226 290.575269 364.903226 365.306452 169.107527 365.306452"></polygon>
            <polygon id="Shape" stroke="#F2B1C3" stroke-width="3" stroke-linecap="round" stroke-linejoin="round" points="75.6935484 331.677419 109.18038 331.677419 109.18038 365.164251 75.6935484 365.164251"></polygon>
            <line x1="75.6935484" y1="331.677419" x2="109.322581" y2="365.306452" id="Shape" stroke="#F2B1C3" stroke-width="3" fill="#FFEFEC" stroke-linecap="round" stroke-linejoin="round"></line>
            <line x1="109.322581" y1="331.677419" x2="75.6935484" y2="365.306452" id="Shape" stroke="#F2B1C3" stroke-width="3" fill="#FFEFEC" stroke-linecap="round" stroke-linejoin="round"></line>
            <circle id="Shape" stroke="#F2B1C3" stroke-width="3" stroke-linecap="round" stroke-linejoin="round" cx="92.8817204" cy="138.123656" r="14.9462366"></circle>
            <polygon id="Shape" stroke="#F2B1C3" stroke-width="3" stroke-linecap="round" stroke-linejoin="round" points="122.774194 122.430108 152.666667 122.430108 152.666667 152.322581 122.774194 152.322581"></polygon>
            <polygon id="Shape" stroke="#F2B1C3" stroke-width="3" stroke-linecap="round" stroke-linejoin="round" points="167.612903 146.344086 197.505376 146.344086 197.505376 152.322581 167.612903 152.322581"></polygon>
            <line x1="76.0672043" y1="174.741935" x2="393.301075" y2="174.741935" id="Shape" stroke="#F2B1C3" stroke-width="3" fill="#FFEFEC" stroke-linecap="round" stroke-linejoin="round"></line>
            <circle id="Shape" stroke="#F2B1C3" stroke-width="3" stroke-linecap="round" stroke-linejoin="round" cx="106.39241" cy="228.607464" r="30.6988621"></circle>
            <circle id="Shape" stroke="#F2B1C3" stroke-width="3" stroke-linecap="round" stroke-linejoin="round" cx="106.39241" cy="228.607464" r="14.1989247"></circle>
            <path d="M169.107527,240.505376 L336.505376,240.505376 M169.107527,257.693548 L336.505376,257.693548 M169.107527,274.88172 L261.774194,274.88172" id="Shape" stroke="#F2B1C3" stroke-width="3" fill="#FFEFEC" stroke-linecap="round" stroke-linejoin="round"></path>
            <path d="M977.252129,154 C1004.86637,154 1027.25213,176.385763 1027.25213,204 L1027.25213,225.548 L950.933,380.252129 L851,380.252129 C823.385763,380.252129 801,357.866367 801,330.252129 L801,204 C801,176.385763 823.385763,154 851,154 L977.252129,154 Z" id="Shape" fill="#FF604F"></path>
            <path d="M921.987575,318.553193 C925.605718,318.553193 928.538802,321.486277 928.538802,325.10442 L928.538802,336.241505 C928.538802,339.859647 925.605718,342.792731 921.987575,342.792731 L906.264631,342.792731 C902.646489,342.792731 899.713405,339.859647 899.713405,336.241505 L899.713405,325.10442 C899.713405,321.486277 902.646489,318.553193 906.264631,318.553193 L921.987575,318.553193 Z M925.685795,191.459398 C929.303937,191.459398 932.237022,194.392482 932.237022,198.010625 L932.233039,198.239017 L932.233039,198.239017 L928.759366,297.81766 C928.636327,301.344765 925.741372,304.140495 922.212121,304.140495 L906.040085,304.140495 C902.510834,304.140495 899.615879,301.344765 899.492841,297.81766 L896.019167,198.239017 C895.89303,194.623074 898.722076,191.589518 902.338019,191.46338 L902.452198,191.459398 L925.685795,191.459398 Z" id="Shape" fill="#FFFFFF"></path>
            <circle id="Shape" fill="#48BAFD" cx="596" cy="517" r="108"></circle>
            <path d="M610.430914,450.042482 L628.34301,457.879024 L628.860483,459.009053 C645.773308,496.15471 646.471544,518.914491 630.955191,527.288395 C625.615265,530.17026 619.312721,530.453055 612.760347,529.168794 L612.255838,529.066932 L611.72379,528.953144 L615.282107,542.304813 C642.263626,547.93286 664.233791,555.65356 681.192602,565.466914 C664.326778,595.05368 632.492745,615 596,615 C558.770485,615 526.389696,594.240138 509.802221,563.665002 C523.466761,555.013952 539.433028,548.079672 557.701558,542.860804 L558.763884,542.559986 L559.169951,542.446617 L559.306807,542.304813 L565.205897,502.238329 L564.511606,501.764233 C558.334162,497.460163 555.604113,493.156093 556.321458,488.852023 C557.429769,482.202157 579.913473,473.388277 587.222853,473.475388 L587.439667,473.480764 L589.1603,473.552108 C597.74318,473.925276 612.669926,470.566758 610.430914,450.042482 Z" id="Shape" fill="#FFFFFF"></path>
            <path d="M599.289637,472.30835 C607.23817,473.009073 612.145916,471.308303 614.012875,467.206038 C621.063919,474.159974 629.308455,476.408726 638.746482,473.952294 C652.903523,470.267646 662.284492,453.646761 644.544871,439.689987 C626.986267,425.87563 617.121755,441.575073 606.399576,439.941452 L605.391395,439.765835 C593.940906,437.840653 563.010693,437.366347 562.847069,457.96652 C548.705653,466.476534 543.849523,477.20475 548.278678,490.15117 C552.707833,503.097591 557.534818,514.475616 562.759634,524.285247 L575.859599,505.220125 L575.329602,504.695166 C568.034584,497.37744 565.986489,491.390859 569.185318,486.735422 C574.097804,479.586001 583.434004,480.245993 587.352616,487.603216 L591.497734,483.455881 C594.670934,480.280984 597.234042,476.666554 599.072507,472.776473 L599.289637,472.30835 Z" id="Shape" fill="#1878F3"></path>
            <polygon id="Shape" stroke="#F2B1C3" stroke-width="3" fill="#FFFFFF" stroke-linecap="round" stroke-linejoin="round" points="659 687 924.870748 687 924.870748 874 659 874"></polygon>
            <polygon id="Shape" stroke="#F2B1C3" stroke-width="3" fill="#FFFFFF" stroke-linecap="round" stroke-linejoin="round" points="681.579932 726.435374 902.290816 726.435374 902.290816 763.326531 681.579932 763.326531"></polygon>
            <path d="M686.35034,784.316327 L898.156463,784.316327 M686.35034,809.122449 L859.993197,809.122449 M686.35034,833.928571 L796.387755,833.928571" id="Shape" stroke="#F2B1C3" stroke-width="3" fill="#FFEFEC" stroke-linecap="round" stroke-linejoin="round"></path>
            <circle id="Shape" fill="#FF604F" cx="527.467908" cy="939.467908" r="45.467908"></circle>
            <path d="M548.361533,946.285187 L531.456056,963.190664 C529.339904,965.306816 525.908945,965.306816 523.792793,963.190664 L506.596997,945.994867 C500.870602,940.268473 500.870602,930.984153 506.596997,925.257759 C512.323391,919.531364 521.607711,919.531364 527.334105,925.257759 C527.43112,925.354774 527.526492,925.45281 527.62022,925.551833 C533.352827,919.844408 542.620051,919.852024 548.338819,925.570792 C554.00795,931.239923 554.064641,940.396176 548.508893,946.135049 L548.361533,946.285187 Z" id="Shape" fill="#FFFFFF"></path>
            <circle id="Shape" fill="#31BC55" cx="666.471435" cy="695.471435" r="40.4714346"></circle>
            <path d="M691.971104,675.899783 L692.010455,675.936482 L699.747918,683.673945 C700.952864,684.878891 700.952864,686.832496 699.747918,688.037442 L699.67053,688.112177 L665.351114,720.117925 C664.13551,721.251578 662.240347,721.218533 661.065004,720.04319 L658.846481,717.824316 L637.983326,698.987813 L637.930024,698.937164 C637.127743,698.134883 637.400823,696.553259 638.529969,695.358062 L638.620887,695.264529 L646.35835,687.527066 L646.397281,687.489947 C647.598587,686.34458 649.179257,686.076161 649.981871,686.86321 L650.043598,686.927542 L663.533739,701.868881 L687.610258,676.051906 C688.772465,674.805684 690.724882,674.737576 691.971104,675.899783 Z" id="Shape" fill="#FFFFFF"></path>
            <path d="M493,786 L611,786 C615.970563,786 620,790.029437 620,795 L620,865 C620,869.970563 615.970563,874 611,874 L493,874 C488.029437,874 484,869.970563 484,865 L484,795 C484,790.029437 488.029437,786 493,786 Z" id="Shape" fill="#FCBF52"></path>
            <path d="M613.636364,793.5 L554.962528,840.956779 C553.12868,842.440038 550.507684,842.440038 548.673836,840.956779 L490,793.5 L490,793.5" id="Shape" stroke="#000000" stroke-width="3" stroke-linecap="round" stroke-linejoin="round"></path>
            <path d="M866.373,552 L826.443,633 L771.85,633 L733.480946,654.992629 C732.509653,655.549345 731.420336,655.864235 730.304814,655.912851 L730,655.91949 C726.214548,655.91949 723.130901,652.914706 723.004059,649.160139 L723,648.91949 L723,592.5 C723,570.132468 741.132468,552 763.5,552 L866.373,552 Z" id="Shape" fill="#5056D0"></path>
            <path d="M773.25,580.666717 C779.785341,580.666717 785.083283,585.964659 785.083283,592.5 C785.083283,599.035341 779.785341,604.333283 773.25,604.333283 C766.714659,604.333283 761.416717,599.035341 761.416717,592.5 C761.416717,585.964659 766.714659,580.666717 773.25,580.666717 Z M838.75,580.666717 C845.285341,580.666717 850.583283,585.964659 850.583283,592.5 C850.583283,599.035341 845.285341,604.333283 838.75,604.333283 C832.214659,604.333283 826.916717,599.035341 826.916717,592.5 C826.916717,585.964659 832.214659,580.666717 838.75,580.666717 Z" id="Shape" fill="#FEFFFE"></path>
            <polygon id="Shape" stroke="#F2B1C3" stroke-width="3" stroke-linecap="round" stroke-linejoin="round" points="228 406 272.809717 406 272.809717 450.809717 228 450.809717"></polygon>
            <line x1="228" y1="406" x2="273" y2="451" id="Shape" stroke="#F2B1C3" stroke-width="3" fill="#FFEFEC" stroke-linecap="round" stroke-linejoin="round"></line>
            <line x1="273" y1="406" x2="228" y2="451" id="Shape" stroke="#F2B1C3" stroke-width="3" fill="#FFEFEC" stroke-linecap="round" stroke-linejoin="round"></line>
            <polygon id="Shape" stroke="#F2B1C3" stroke-width="3" stroke-linecap="round" stroke-linejoin="round" points="982.252129 89 1027.06185 89 1027.06185 133.809717 982.252129 133.809717"></polygon>
            <line x1="982.252129" y1="89" x2="1027.25213" y2="134" id="Shape" stroke="#F2B1C3" stroke-width="3" fill="#FFEFEC" stroke-linecap="round" stroke-linejoin="round"></line>
            <line x1="1027.25213" y1="89" x2="982.252129" y2="134" id="Shape" stroke="#F2B1C3" stroke-width="3" fill="#FFEFEC" stroke-linecap="round" stroke-linejoin="round"></line>
            <path d="M470.815829,102.18658 C473.731269,99.27114 478.458131,99.27114 481.373571,102.18658 L481.554396,102.373824 L506.897934,129.551385 L532.244621,102.373886 C535.056649,99.3585783 539.780638,99.193788 542.795945,102.005816 L542.891157,102.094611 L561.612409,120.815862 C564.527849,123.731302 564.527849,128.458164 561.612409,131.373604 L561.425166,131.55443 L533.259922,157.819378 L558.994206,185.411691 C561.737147,188.352917 561.657192,192.938378 558.81338,195.78219 L545.782218,208.813352 C542.938406,211.657164 538.352946,211.737118 535.41172,208.994177 L506.89926,182.403929 L478.387298,208.994239 C475.446072,211.73718 470.860612,211.657226 468.016799,208.813414 L454.985638,195.782252 C452.141825,192.93844 452.061871,188.352979 454.804812,185.411753 L480.535947,157.819378 L452.373852,131.554368 C449.358545,128.74234 449.193754,124.018351 452.005783,121.003044 L452.094577,120.907832 L470.815829,102.18658 Z" id="Shape" fill="#FF604F"></path>
            <polygon id="Shape" fill="#FF604F" fill-rule="nonzero" points="489.669916 812.5 489.302228 801.714485 498.616992 807.47493 505.357939 795.708914 495.675487 790.438719 505.357939 785.413649 498.616992 773.770195 489.424791 779.285515 489.669916 768.5 476.188022 768.5 476.433148 779.285515 467.240947 773.52507 460.5 785.413649 470.059889 790.438719 460.5 795.708914 467.240947 807.229805 476.55571 801.591922 476.188022 812.5"></polygon>
        </g>
    </g>
</svg>