<svg xmlns="http://www.w3.org/2000/svg" viewBox="0 0 1424.47 1172.91"><defs><style>.cls-1,.cls-10,.cls-12,.cls-13,.cls-14,.cls-2,.cls-3,.cls-4,.cls-5,.cls-6,.cls-7,.cls-8,.cls-9{fill-rule:evenodd;}.cls-2{fill:#ffefec;stroke:#f2b1c3;stroke-width:5px;stroke-dasharray:23 10;}.cls-11,.cls-15,.cls-2{stroke-linecap:round;stroke-linejoin:round;}.cls-3{fill:#ff604f;}.cls-4{fill:#5056d0;}.cls-5{fill:#f2b1c3;}.cls-6{fill:#31bc55;}.cls-7{fill:#48bafd;}.cls-8{fill:#1878f3;}.cls-9{fill:#f5bd78;}.cls-10{fill:#e28b71;}.cls-11,.cls-15{fill:none;stroke-width:3px;}.cls-11{stroke:#000;}.cls-12{fill:#ffae96;}.cls-13{fill:#002b50;}.cls-14{fill:#fcbf52;}.cls-15{stroke:#002b50;}.cls-16,.cls-17,.cls-18,.cls-19,.cls-20,.cls-21{isolation:isolate;fill:#fff;font-family:Poppins-Regular, Poppins;}.cls-16{font-size:45.82px;}.cls-17{font-size:36.83px;}.cls-18{font-size:32.39px;}.cls-19{font-size:28.71px;}.cls-20{font-size:39.5px;}.cls-21{font-size:31.88px;}</style></defs><g id="Layer_2" data-name="Layer 2"><g id="Layer_1-2" data-name="Layer 1"><path class="cls-1" d="M71.61,50a14,14,0,0,1,14,13.07,23.7,23.7,0,0,1,30,15,24,24,0,0,1,.93,3.76A54.91,54.91,0,1,1,89.73,109a23.71,23.71,0,0,1-20-26.89,24,24,0,0,1,1-4.08,14,14,0,0,1,1-28Z"/><path class="cls-2" d="M1015.86,2.61c4.4,0,8.81.06,13.18.14,18.23.22,36.43,1.13,54.62,2.27q27.77,1.82,55.52,3.13c17.56.83,35,2.86,52.58,3.92,18,1.11,36,2.87,54.07,4.18,19.76,1.46,39.92,2.89,58.85,9.22a179.2,179.2,0,0,1,29.07,12.8c10.35,5.65,20.79,12.6,28.19,21.91,6.39,8,12.23,16.29,16.35,25.76,4.33,10,8,20,11.43,30.29a312.52,312.52,0,0,1,11.84,50.52,503.77,503.77,0,0,1,4.81,62.08c.4,17.09-1.43,34.11-3.12,51.08-2,20.39-3.52,40.89-7.23,61.08-3.29,17.69-7.37,35.51-13.84,52.4a164.82,164.82,0,0,1-14.08,28.46c-2.49,3.93-5.49,7.59-8.34,11.23a62.83,62.83,0,0,1-6,7,104.68,104.68,0,0,1-18.9,14.12c-19.3,11.23-41.64,14.07-63.43,16.43-18.13,2-36.18,3.53-54.44,4.57s-36.36,1.16-54.55,1.25-36,.33-54,.23c-19.21-.15-38.4-.43-57.6-1-17.36-.51-34.61-2.5-51.93-3.74-18.09-1.25-36.11-2.92-54.09-5.12-12.41-1.52-24.88-3-37.14-5.44-9.11-1.82-18.07-4.19-27-6.86-22.93-6.9-46.16-16.41-61.91-35.2a133.31,133.31,0,0,1-12.79-17.47,126.75,126.75,0,0,1-9.33-20.09c-4.41-11.64-5.89-23.21-7.49-35.6-2.17-16.89-.73-34.42.48-51.35,1.36-19.17,3.88-38.15,6.47-57.17q2.5-19.77,5.22-39.51c2.69-22,5.16-43.94,8.73-65.78a217.75,217.75,0,0,1,6.35-25.8,191,191,0,0,1,8.89-23.71c3.55-8,8.83-14.78,14.25-21.66a113.74,113.74,0,0,1,24-22.58l3.27-2.2,2.49-1.6a178.45,178.45,0,0,1,23.84-11.5C913.5,14.79,935,9,957.18,9.52h.64A26.62,26.62,0,0,1,970.7,6.23c1.32-.16,2.65-.32,4-.46,9.19-1.25,18.38-2.36,27.66-2.93,4.48-.25,9-.34,13.49-.34Z"/><path class="cls-2" d="M1140.19,528.05c13.62.22,27.2,1.13,40.78,2.27q20.73,1.81,41.46,3.13c13.12.82,26.2,2.86,39.26,3.92,13.47,1.11,26.91,2.87,40.36,4.18,14.76,1.46,29.85,2.89,44,9.22a120,120,0,0,1,21.71,12.8c7.71,5.65,15.51,12.6,21,21.91A126.74,126.74,0,0,1,1401,611.23c3.23,10,6,20,8.53,30.3a403.85,403.85,0,0,1,8.85,50.52c2.28,20.66,3.22,41.17,3.59,62.07.3,17.1-1.07,34.12-2.33,51.09-1.51,20.38-2.63,40.88-5.4,61.13-2.5,17.7-5.49,35.51-10.34,52.41a192,192,0,0,1-10.5,28.53c-1.87,3.94-4.11,7.59-6.24,11.23a58.39,58.39,0,0,1-4.44,7,84.47,84.47,0,0,1-14.1,14.12c-14.41,11.23-31.11,14.08-47.42,16.44-13.53,2-27.05,3.53-40.65,4.56s-27.15,1.16-40.72,1.25-26.89.34-40.33.24c-14.35-.15-28.7-.44-43-1-13-.51-25.85-2.49-38.78-3.74-13.51-1.25-27-2.92-40.39-5.12-9.27-1.52-18.58-3-27.72-5.44a176.73,176.73,0,0,1-20.13-6.86c-17.12-6.9-34.46-16.41-46.16-35.2a135,135,0,0,1-9.55-17.47,149.89,149.89,0,0,1-7-20.08c-3.31-11.65-4.42-23.21-5.6-35.6-1.63-16.9-.55-34.43.36-51.36,1-19.16,2.89-38.14,4.83-57.17q1.9-19.77,3.89-39.5c2-22,3.85-43.95,6.51-65.78,1.08-8.74,2.88-17.3,4.74-25.81a237.26,237.26,0,0,1,6.64-23.7c2.65-8,6.6-14.79,10.63-21.67A102.62,102.62,0,0,1,1016.68,564l2.5-2.2,1.89-1.59a123.41,123.41,0,0,1,17.79-11.51c15.15-8.46,31.2-14.27,47.77-13.72h.48a16,16,0,0,1,9.61-3.3c1-.16,2-.32,3-.46,6.86-1.25,13.73-2.36,20.65-2.93,3.35-.25,6.7-.34,10.07-.34S1136.92,528,1140.19,528.05Z"/><path class="cls-2" d="M915.09,632.07c0,3.18,0,6.35-.1,9.52-.18,13.11-.8,26.2-1.65,39.33-.86,13.35-1.61,26.66-2.23,40-.61,12.66-2.07,25.24-2.85,37.87-.78,13-2,26-3,39-1,14.23-2,28.78-6.62,42.42a128.36,128.36,0,0,1-9.21,20.94c-4.09,7.48-9.09,15-15.8,20.3a83,83,0,0,1-18.55,11.78c-7.19,3.13-14.39,5.81-21.82,8.23A223.6,223.6,0,0,1,796.85,910a356.31,356.31,0,0,1-44.74,3.51c-12.3.31-24.57-1-36.78-2.23-14.7-1.46-29.46-2.5-44-5.22-12.75-2.37-25.59-5.29-37.73-10a116.72,116.72,0,0,1-20.54-10.15,91.37,91.37,0,0,1-8.11-6,43.41,43.41,0,0,1-5-4.29A75.39,75.39,0,0,1,589.77,862c-8.09-13.9-10.12-30-11.83-45.71q-2.12-19.59-3.28-39.19c-.79-13.09-.85-26.2-.93-39.33s-.22-26-.22-38.9c.09-13.84.31-27.65.75-41.5.37-12.48,1.79-25,2.69-37.43.91-13,2.09-26,3.75-39,1.08-9,2.16-17.92,3.91-26.75a176.75,176.75,0,0,1,5-19.42c5-16.51,11.8-33.25,25.35-44.61a98.39,98.39,0,0,1,12.54-9.22,94.9,94.9,0,0,1,14.39-6.68c8.39-3.17,16.73-4.25,25.65-5.39,12.15-1.55,24.8-.53,37,.36,13.82,1,27.45,2.78,41.18,4.65q14.26,1.85,28.47,3.74c15.81,1.94,31.66,3.75,47.42,6.24a154.48,154.48,0,0,1,18.58,4.57,138.76,138.76,0,0,1,17.09,6.39c5.78,2.57,10.66,6.39,15.61,10.28a82.62,82.62,0,0,1,16.22,17.28l1.6,2.36,1.13,1.83a127.37,127.37,0,0,1,8.29,17.17c6.09,14.61,10.28,30.11,9.89,46.08v.48a19.09,19.09,0,0,1,2.38,9.29l.34,2.82c.89,6.65,1.69,13.25,2.1,20,.18,3.22.25,6.48.25,9.7Z"/><path class="cls-3" d="M1062.9,93.8c-23.61-39.59-65.57-58.42-101.57-60.53-41.64-2.42-72,30.62-92.82,65.6-11.69,19.63-21.21,42.93-21.21,69.2a73.26,73.26,0,0,0,8,33.87c5.84,10.94,14.87,19.19,24.09,25.76,22.34,15.92,48.66,22.89,72.68,26.21,24.68,3.44,48,.18,68.71-11.46,22.18-12.48,38.4-34.27,47.42-61.24,9-26.72,11.8-58.74-5.32-87.45"/><path class="cls-4" d="M1159,860c4.24,43.92,32.87,77.36,63.17,93.92,35,19.11,74.79,2.9,107.16-18.86,18.14-12.2,35.88-28.48,46.68-51.15a70.21,70.21,0,0,0,6.92-32.59c-.57-11.87-5-22.7-10.32-32.16-12.82-22.91-32.79-39.7-52.19-52.4-20-13.08-41.5-19.8-64.16-18.18-24.3,1.74-47.25,14-66.13,33.61s-34.22,46-31.19,77.86"/><path class="cls-5" d="M1191.28,251.06c32.79,21.56,63.85-1.42,97.32-20.11,18.71-10.5,46.63-14.68,59-36.06a69,69,0,0,0,9.46-31.32c.38-11.67-3.1-22.63-7.49-32.32-10.7-23.48-28.9-41.55-46.88-55.57-18.48-14.41-39-22.75-61.37-23-23.95-.25-47.42,9.87-67.48,27.58-19.89,17.54-37.23,42.3-36.8,73.75C1137.61,197.33,1162.93,232.41,1191.28,251.06Z"/><path class="cls-6" d="M735.09,881.88c29.62,19.49,57.7-1.25,87.93-18.18,16.94-9.47,42.14-13.25,53.34-32.58a62.27,62.27,0,0,0,8.51-28.32c.36-10.55-2.8-20.47-6.79-29.21C868.41,752.38,852,736,835.73,723.37c-16.7-13-35.28-20.55-55.46-20.78-21.63-.22-42.83,8.92-61,25S685.61,765.78,686,794.19C686.59,833.33,709.51,865,735.09,881.88Z"/><path class="cls-7" d="M1073.35,775.81c34.36,22.61,66.93-1.49,102-21.09,19.67-11,48.88-15.37,61.88-37.78a72.39,72.39,0,0,0,9.87-32.87c.41-12.22-3.24-23.7-7.87-33.88-11.23-24.62-30.3-43.55-49.14-58.25-19.36-15.11-40.93-23.84-64.32-24.1-25.11-.27-49.7,10.35-70.73,28.89s-39,44.35-38.57,77.36C1017.1,719.5,1043.64,756.24,1073.35,775.81Z"/><path class="cls-8" d="M1231.63,370.22c13.06-34.76-18.05-57.46-46.46-83l-3.22-2.91-1.75-1.56q-9.65-8.58-25.41-21.65l-5.46-4.53c-23.95-19.75-60.67-21-86.18-2.94l-.78.55c-21.5,15.63-35.26,36.82-44.92,56.8-9.87,20.56-13.93,99.57,39,106.51s56.29,34.71,89,26.55C1190.58,432.83,1220.1,400.89,1231.63,370.22Z"/><path class="cls-9" d="M770.74,680c34.84-15.25,31.29-48.14,31.64-81.33v-8q0-10.71-.57-26.74l-.23-6.14c-1-26.81-24.48-48.85-55-51.8l-.93-.08c-26-2.18-51.15,3.74-72.54,11.32-22,7.77-84.21,57.27-54.26,92.47s11.23,55.35,39.06,68.91C696.39,697.3,740,693.42,770.74,680Z"/><path class="cls-10" d="M574,161.24c3.09,5.16-19.67,11.38-31,15.51q9.3,0,10.34,5.17c1,5.17-6.24,8.28-6.24,8.28,4.83.68,7.24,3.1,7.24,7.23,0,6.24-7.24,8.28-7.24,8.28q7.24,0,7.24,5.17c0,5.17-13.44,9.31-18.62,10.35s-13.43,12.48-33.09,8.27L477.78,213,484,191.23l4.92-7a59.33,59.33,0,0,1,4.28-5.35q8.85-11.13,18.53-13.46a56.14,56.14,0,0,1,18.09-4.69l3.27-.28Q571.68,157.34,574,161.24Z"/><path class="cls-11" d="M519.86,171.27c9.31,7.24,9.31,24.82,3.1,25.85s-11.38-14.47-12.41-14.47q1,18.6-5.18,29"/><path class="cls-11" d="M547.11,190.2q-18.63,9.3-23.78,7.23"/><path class="cls-11" d="M547.11,205.48q-18.63,9.33-23.8,7.24t-1-9.31"/><path class="cls-11" d="M528,222.41q-5.16-2.08-1-9.32"/><line class="cls-11" x1="542.98" y1="176.75" x2="529.79" y2="180.9"/><path class="cls-12" d="M125.79,1090.89c-3.67,13.5-4.5,37.68-1.25,44.17,4.84,9.75,40.69,7.48,45.13,24.25q-34.44,11.61-83.8,8a25.46,25.46,0,0,1-23.57-25.77l.8-52.72Z"/><path class="cls-13" d="M126.07,1136.23l2,.41,1.94.41q47.15,10,53.84,24.43c5,10.78-52.41,13.49-90.66,10a127.29,127.29,0,0,1-19.77-3.4,15,15,0,0,1-11.31-14.79l.26-15.08A83.47,83.47,0,0,0,94.1,1151.1Q111.25,1154.27,126.07,1136.23Z"/><path class="cls-12" d="M427.74,1090.89c-3.67,13.5,8,37.68,11.23,44.17,4.84,9.75,40.68,7.48,45.13,24.25q-34.44,11.61-83.8,8c-13.44-1-24.12-15.73-23.92-29.21l-11.33-49.28Z"/><path class="cls-13" d="M440.5,1136.23l2,.41,1.94.41q47.13,10,53.84,24.43c5,10.78-52.41,13.49-90.66,10a127.29,127.29,0,0,1-19.77-3.4,15,15,0,0,1-11.32-14.79l.27-15.08a83.47,83.47,0,0,0,31.71,12.91Q425.66,1154.27,440.5,1136.23Z"/><path class="cls-14" d="M175.48,207.24q152.22,66.13,159.71,64.88T487.42,186l22.46,43.67q-131,128.52-174.69,131T159.26,329.52Z"/><path class="cls-13" d="M306.07,524.17l173.7,559q-36.19,25-77.2,25t-82.25-25L196.69,723.45l-16.48,359.7q-43.35,25-82.09,25t-77.36-25l21.54-559Z"/><path class="cls-14" d="M42,524.17q-1.24-313.6,83.6-321.28c84.85-7.68,148.48,55.05,143.49,111.36s3.75,73,15,107.51q11.22,34.58,22.45,102.41Z"/><path class="cls-11" d="M248,251.9c15.11,18.94,23,41.1,21.11,62.38-1.69,19.11-1.81,33.69-.78,45.86"/><path class="cls-10" d="M191.27,457.16l-.81-62,4.17.18q47.94,2,67.74-.18c20.67-2.3,40.57,40.55,26.79,57.39Q275.43,469.41,191.27,457.16Z"/><path class="cls-10" d="M290.1,403.85c20.89,2.73,20.86,19.27,4.72,15.48l-1.18-.29c-.73-.18-1.53-.33-2.39-.47,17.94,3.59,17.68,18.07,3.17,15.27,14,4.71,12.72,16.8-.62,14.28,13.11,4.79,11.23,16.54-2.78,13.57l-1.11-.25q-9.32-2-29.58,1.14a8.35,8.35,0,0,1-9.42-6.48l-.11-.68a7.36,7.36,0,0,1,6.23-8.15h.39a8.42,8.42,0,0,1-4.58-5.95,6.29,6.29,0,0,1-.11-.74,7.37,7.37,0,0,1,5.09-7.71,8.39,8.39,0,0,1-4.3-5.82q-.08-.36-.12-.72a7.39,7.39,0,0,1,5.62-7.87,8.39,8.39,0,0,1-4.13-5.7c0-.25-.09-.49-.11-.74a7.35,7.35,0,0,1,6.62-8h0A131,131,0,0,1,290.1,403.85Z"/><line class="cls-11" x1="279.63" y1="403.09" x2="257.35" y2="403.46"/><path class="cls-14" d="M114.34,204.75Q22,253.41,7,317c-15,63.64-22.46,146,156,146h77.36V394.4l-139.74-20Z"/><path class="cls-11" d="M44.07,441.63C69,454.84,106.74,463,163,463h77.36V394.4L112.23,379.33a28.71,28.71,0,0,1-22-41.9l27.89-52.83h0"/><path class="cls-12" d="M170.58,113.56c2.33,21.36-13.2,24.86-22.14,24.47l-2.42-.1h-.75c-6.36-.18-8.63.36-7.74,4.54v.24c1.14,5-3,11.49-8.35,5.29l-.2-.24c-5.43-6.6-13.59-.78-14.75,6.24q-1.14,6.83,8.87,13.72l.45.3s1.09,1,3,2.5l-9.22,37.78q27.09,22.38,57,3.74l-2.42-16.3c7.2,1.57,14.15,1.41,20-1.74q24.22-13.08-2.17-71l-.54-1.18Z"/><line class="cls-11" x1="179.13" y1="136.47" x2="185.33" y2="152.39"/><path class="cls-1" d="M171.53,144.57a2.84,2.84,0,1,1,2.47-3.15,1.83,1.83,0,0,1,0,.33A2.68,2.68,0,0,1,171.53,144.57Z"/><path class="cls-1" d="M187,138.39a2.83,2.83,0,1,1,2.48-3.15c0,.11,0,.22,0,.33A2.7,2.7,0,0,1,187,138.39Z"/><path class="cls-1" d="M173.49,206.23l-1.56-10.56-.58-.12a48.55,48.55,0,0,1-9.85-3.16l-.53-.25c-4.2-2.06-2.49,12.82,12.07,14.05Z"/><line class="cls-15" x1="28.87" y1="1164.25" x2="1242.3" y2="1164.25"/><text class="cls-16" transform="translate(895.65 159.25)">Retail</text><text class="cls-17" transform="translate(628.66 607.7)">Financial</text><text class="cls-18" transform="translate(1040.21 684.87)">Healthcare</text><text class="cls-19" transform="translate(699.29 813)">Professional</text><text class="cls-19" transform="translate(1183.04 865.65)">Construction</text><text class="cls-20" transform="translate(1201.89 165.72)">Auto</text><text class="cls-21" transform="translate(1032.7 358.99)">Real estate</text></g></g></svg>