<svg xmlns="http://www.w3.org/2000/svg" viewBox="0 0 1407 1101.82"><defs><style>.cls-1{fill:#f2b1c3;}.cls-1,.cls-10,.cls-11,.cls-12,.cls-13,.cls-15,.cls-2,.cls-3,.cls-6,.cls-7,.cls-8,.cls-9{fill-rule:evenodd;}.cls-2{fill:#e591a8;}.cls-3,.cls-5{fill:#ffefec;}.cls-3,.cls-4,.cls-5,.cls-6{stroke:#f2b1c3;}.cls-14,.cls-3,.cls-4,.cls-5,.cls-6{stroke-linecap:round;stroke-linejoin:round;stroke-width:3px;}.cls-14,.cls-4{fill:none;}.cls-6{fill:#fff;}.cls-7{fill:#fcbf52;}.cls-8{fill:#ffd8e3;}.cls-9{fill:#31bc55;}.cls-10{fill:#070404;}.cls-11{fill:#ff604f;}.cls-12{fill:#e04e3f;}.cls-13{fill:#ffae96;}.cls-14{stroke:#000;}</style></defs><g id="Layer_2" data-name="Layer 2"><g id="Layer_1-2" data-name="Layer 1"><g id="Shape"><path class="cls-1" d="M250.15,106c2.29,21-13,24.48-21.8,24.1l-1.77-.08c-7.24-.27-30.74,8.87-31.89,15.76q-1.11,6.61,8.39,13.23l.71.49-6,41.06-.14.15-.42.12q-45.84,12.85-73,39.64l-.63.64q-6.78,6.76-19.79,32.89H366.24Q354.59,250.69,345,241.11q-27.54-27.54-89.88-40.55l-3.65-13.68.55.12c6.9,1.43,13.55,1.2,19.16-1.83q23.86-12.87-2.14-70l-.53-1.16Z"/><path class="cls-2" d="M238.73,128.82q12.22,1.08,15.09-5.23,10.85,10.69,25.35,6.92c14.51-3.78,24.13-20.82,5.94-35.12s-28.31,2.27-39.43.2-44.13-3-44.3,18.53q-21.75,13.08-14.93,33a237.79,237.79,0,0,0,14.84,35l13.42-19.54-.54-.53q-11.22-11.25-6.3-18.41c5-7.33,14.61-6.65,18.62.89l4.25-4.25a39.52,39.52,0,0,0,7.77-10.95Z"/><polygon class="cls-3" points="147.5 304.5 409.5 304.5 409.5 339.5 147.5 339.5 147.5 304.5"/><polygon class="cls-1" points="147.5 428.5 409.5 428.5 409.5 528.5 147.5 528.5 147.5 428.5"/><polygon class="cls-4" points="1.5 1.5 447.5 1.5 447.5 549.5 1.5 549.5 1.5 1.5"/><polygon class="cls-3" points="22.5 483.5 67.31 483.5 67.31 528.31 22.5 528.31 22.5 483.5"/><line class="cls-4" x1="22.5" y1="483.5" x2="67.5" y2="528.5"/><line class="cls-4" x1="67.5" y1="483.5" x2="22.5" y2="528.5"/><circle class="cls-4" cx="32.5" cy="34.5" r="20"/><polygon class="cls-4" points="72.5 13.5 112.5 13.5 112.5 53.5 72.5 53.5 72.5 13.5"/><polygon class="cls-4" points="132.5 45.5 172.5 45.5 172.5 53.5 132.5 53.5 132.5 45.5"/><line class="cls-4" x1="23" y1="273.5" x2="447.5" y2="273.5"/><circle class="cls-5" cx="63.58" cy="345.58" r="41.08"/><circle class="cls-5" cx="63.58" cy="345.58" r="19"/><path class="cls-3" d="M147.5,361.5h224m-224,23h224m-224,23h124"/><polygon class="cls-6" points="303.5 179.5 605.5 179.5 605.5 410.5 303.5 410.5 303.5 179.5"/><path class="cls-7" d="M345,203.5H563a7.5,7.5,0,0,1,0,15H345a7.5,7.5,0,0,1,0-15Z"/><path class="cls-8" d="M368,371a7.5,7.5,0,0,1,0,15H345a7.5,7.5,0,0,1,0-15Zm35.14-42a7.5,7.5,0,1,1,0,15H345a7.5,7.5,0,0,1,0-15Zm61.49-42a7.5,7.5,0,0,1,0,15H345a7.5,7.5,0,0,1,0-15Zm38.06-42a7.5,7.5,0,1,1,0,15H345a7.5,7.5,0,0,1,0-15Z"/><path class="cls-1" d="M1178.37,106c-2.27,20.83,12.7,24.41,21.54,24.11l2-.09c7.25-.27,30.75,8.87,31.89,15.76q1.11,6.61-8.39,13.23l-.71.49,6,41.06.14.15.42.12q45.84,12.85,73,39.64l.63.64q6.78,6.76,19.79,32.89H1062.28q11.67-23.31,21.24-32.89,27.54-27.54,89.88-40.55l3.65-13.68-.55.12c-6.9,1.43-13.55,1.2-19.16-1.83q-23.86-12.87,2.14-70L1160,114Z"/><path class="cls-2" d="M1189.79,128.82q-12.21,1.08-15.09-5.23-10.83,10.69-25.35,6.92c-14.51-3.78-24.12-20.82-5.94-35.12s28.31,2.27,39.44.2,44.12-3,44.3,18.53q21.74,13.08,14.93,33a238.85,238.85,0,0,1-14.85,35l-13.42-19.54.54-.53q11.22-11.25,6.3-18.41c-5-7.33-14.61-6.65-18.62.89l-4.25-4.25A39.27,39.27,0,0,1,1190,129.3Z"/><polygon class="cls-3" points="1105.5 304.5 1367.5 304.5 1367.5 339.5 1105.5 339.5 1105.5 304.5"/><polygon class="cls-1" points="1105.5 428.5 1367.5 428.5 1367.5 528.5 1105.5 528.5 1105.5 428.5"/><polygon class="cls-4" points="959.5 1.5 1405.5 1.5 1405.5 549.5 959.5 549.5 959.5 1.5"/><polygon class="cls-3" points="980.5 483.5 1025.31 483.5 1025.31 528.31 980.5 528.31 980.5 483.5"/><line class="cls-4" x1="980.5" y1="483.5" x2="1025.5" y2="528.5"/><line class="cls-4" x1="1025.5" y1="483.5" x2="980.5" y2="528.5"/><circle class="cls-4" cx="990.5" cy="34.5" r="20"/><polygon class="cls-4" points="1030.5 13.5 1070.5 13.5 1070.5 53.5 1030.5 53.5 1030.5 13.5"/><polygon class="cls-4" points="1090.5 45.5 1130.5 45.5 1130.5 53.5 1090.5 53.5 1090.5 45.5"/><line class="cls-4" x1="981" y1="273.5" x2="1405.5" y2="273.5"/><circle class="cls-5" cx="1021.58" cy="345.58" r="41.08"/><circle class="cls-5" cx="1021.58" cy="345.58" r="19" transform="translate(516.82 1298.61) rotate(-80.78)"/><path class="cls-3" d="M1105.5,361.5h224m-224,23h224m-224,23h124"/><polygon class="cls-6" points="900.5 456.5 1202.5 456.5 1202.5 687.5 900.5 687.5 900.5 456.5"/><polygon class="cls-8" points="1064.92 537.71 1095.88 537.71 1095.88 657.5 1064.92 657.5 1064.92 537.71"/><path class="cls-9" d="M981,486.5v171H950v-171Zm57.11,105.16V657.5h-31V591.66ZM1153,493.82V657.5h-31V493.82Z"/><path class="cls-10" d="M475.71,685.5c-8.4-83.27,72.51-46.86,74.68-109.55l.08-3.86c2.13-63,80.78-40,67.89-79.14-5.07-15.4,23.65-35.48,24.76-54.75,1.74-30.19,19.08-58.37,77.13-63.32a55.25,55.25,0,0,1,13,0c95.1,8.11,80.94,78.54,67.92,118.07-12.89,39.13,65.77,16.18,67.89,79.14l0,1.93c.57,65.37,83.21,27.37,74.72,111.48Z"/><path class="cls-11" d="M781,595.14q109.11,31.61,173.8,96.3,28.44,28.44,102.36,197.8L892.72,954.76l-20.88-63.6-2.45,12.66q-3.55,18.66-3.56,20.34,0,5.28,56.06,159.51l6.06,16.65H526.48V1002q-28.61-38.7-43-93.7l-67.36,53.72a64.41,64.41,0,0,1-100.63-72.52l.37-1,1.19-3.08q58.77-151.87,100.91-194,64-64,205.39-95.58c4.12-.92,42.1-10.43,80.61-10.6S779.47,594.69,781,595.14Z"/><path class="cls-12" d="M694.43,938.39c5,0,11.21,6.84,22.58,22.9l2.07,2.93,1.51,2.17,1.61,2.34c3.17,4.61,6.67,9.83,10.77,16l24.78,37.76,1.86,2.81c30,45.37,48,68.65,54.93,69.35,6.67.68,28-19.83,72.7-68.44l9.94-10.87,3.13,8.69h0l-9.43,10.3-4.27,4.64c-34.17,37-52.37,55.17-63.73,61.33H807.44c-10.67-6.8-26.31-27.74-52.45-67.18l-26-39.59-2.9-4.38L723,984.55c-3.78-5.67-7-10.45-10-14.71l-2.3-3.27-1.26-1.77-1.26-1.75c-3.3-4.55-6.11-8.2-8.48-11l-.28-.33a39.07,39.07,0,0,0-4.3-4.41,8.14,8.14,0,0,0-.77-.58l-.12-.08-.06,0-.17.09-.22.11c-3.26,1.81-13,10.24-26.85,23.66L662.43,975l-3.25,3.21-3.44,3.4c-4.32,4.3-9.1,9.09-14.54,14.57l-38.47,39-5,5c-30.29,30.45-50.51,49.81-63.85,60.14h-7.39v-4.49l.77-.59c12.8-9.91,35.69-31.63,68.55-64.72l38.26-38.74,7.68-7.74c6.85-6.87,12.6-12.58,17.77-17.62l4.71-4.56,1.91-1.83,2.8-2.66c13.26-12.53,20.75-18.41,24.93-19l.26,0Zm0-41.29c5.22,0,11.7,7.4,24,24.84l2,2.92,1.52,2.2,1.72,2.51c2.78,4.08,5.84,8.64,9.32,13.9l24.78,37.76,1.85,2.8c30,45.37,48,68.65,54.94,69.35,6.63.68,27.8-19.62,72-67.72l3.1,8.7h0l-3.07,3.34-4,4.32c-42.22,45.62-58.77,60.53-68.9,59.49-10.56-1.08-26.59-21.27-57.74-68.16l-6.66-10.09-20.32-31-4.61-7L721.48,941l-2.21-3.29c-2.51-3.71-4.78-7-6.91-10.06l-2.43-3.46-.84-1.16-1.31-1.81c-3-4.13-5.59-7.48-7.8-10.09l-.54-.63a39.07,39.07,0,0,0-4.3-4.41c-.19-.16-.37-.3-.53-.41l-.36-.25-.06,0-.19.09c-2.86,1.46-11.7,9-24.45,21.25l-3.46,3.35-2.71,2.64c-5,4.87-10.54,10.4-17.09,17l-43.57,44.1-4.7,4.72-5.39,5.41c-33.48,33.53-53.92,52.59-66.15,60.29v-9.74l.81-.62c13.37-10.37,37.71-33.57,72.9-69.12L634,950.49l11.21-11.27,3-3c2.67-2.65,5.16-5.12,7.52-7.44l4.65-4.55,3.28-3.17c16.58-16,25.47-23.35,30.17-24l.26,0Zm0-41.28c5.32,0,11.94,7.68,24.65,25.83l2,2.91,1.56,2.27,2.23,3.27c2.45,3.61,5.11,7.59,8.09,12.08l7.31,11.12,16.67,25.43,4.54,6.88,1.72,2.58C791,990,807.9,1011.42,814.51,1012.1c6.08.62,24.4-16.41,61.51-56.34l3.06,8.75h0L876.73,967c-37.93,40.7-53.4,54.18-63.05,53.2-10.78-1.11-27.27-22.13-59.73-71.16L729,911,725,905.05c-4.37-6.59-8-12-11.36-16.81l-1.33-1.9-.9-1.29c-4.62-6.56-8.42-11.61-11.48-15.23l-.54-.63-.63-.72a36.27,36.27,0,0,0-3.67-3.69l-.53-.42-.36-.24-.06,0c-2.58,1.17-11.21,8.5-23.8,20.53l-4.3,4.15-3.37,3.29-3.43,3.38c-4.9,4.84-10.39,10.32-16.8,16.78l-36.49,37-11.17,11.24-5.76,5.77c-31.36,31.31-50.78,49.28-62.57,56.72v-9.75l1.15-.88c12.68-9.91,35-31,66.69-63L634,909.21l5.74-5.79c6.88-6.92,12.68-12.68,17.86-17.76l4.69-4.56,3-2.9c15.51-14.87,24-21.76,28.5-22.34l.26,0ZM409.67,966.6l-.2.13a62.81,62.81,0,0,1-7.72,4c-2.94-2.12-5.34-3.11-7.24-3-3.08.21-7.78,3-13.82,8.18a64.19,64.19,0,0,1-11.92-.23C379.38,965.49,387.69,960,394,959.6,398.55,959.3,403.59,961.52,409.67,966.6Zm22-16.92-6.46,5.16-.91-1.16C409.6,935,400,926.11,394.5,926.47c-7,.45-22.09,14.19-42.44,38.16l-1.59,1.88-1.63,2-1,1.17h0a64.36,64.36,0,0,1-7.22-4.09l1.8-2.17,1.78-2.12,2.11-2.5,1.31-1.53,1.89-2.2C369.79,931.6,384.28,919,394,918.32,403.11,917.72,414.17,927.2,431.68,949.68Zm13.63-158.29c12.23,0,29.17,25.12,54.37,73.67l.77,1.48,1.65,3.2q2.08,4.05,4.22,8.29l3.79,7.57,5.47,11.14c10.56,21.58,26.58,54.6,30.15,61.34l.3.57-7.16,3.93-.91-1.73-1.26-2.48c-7.64-15.16-29.81-61-36.16-73.67l-3-5.91-1.76-3.45c-.88-1.71-1.74-3.39-2.6-5.05l-2.86-5.49L489,862.36,487.79,860c-20.27-38-35.81-60.45-42.47-60.45s-25.35,18.23-71.2,68.17l-20.13,22-6.58,7.14c-13.18,14.26-23.91,25.61-32.75,34.47a65.08,65.08,0,0,1-2.27-9.48l2.83-2.89c9.64-9.88,21.26-22.27,35.13-37.36L374.71,855c15.44-16.82,23.8-25.71,32.37-34.37l3.19-3.19,1.56-1.56C428.45,799.41,438.78,791.39,445.31,791.39Zm5.53,143-6.4,5.11-1.58-2.21c-25.54-35.65-40.87-52.6-48.39-52.11-7,.46-22.39,14.47-43.05,38.89l-1,1.16-1.55,1.84-1.73,2.09c-4.95,6-10.16,12.44-15.69,19.49l-3.13,4-1,1.28a64.18,64.18,0,0,1-5.12-6.76l.84-1.08h0l3.65-4.66,1.84-2.33c5.5-6.94,10.68-13.31,15.61-19.16l2.11-2.49,1.3-1.53,1.9-2.21c20.26-23.41,34.75-36.07,44.43-36.7C406.05,876.24,421.5,893.11,450.84,934.4Zm531.32-80.94c10,0,23.09,16.71,41.26,49.23l-7.72,3.08-1-1.67c-15.4-27-27-42.47-32.58-42.47-6.47,0-24.17,17.09-66.9,63.49L891.5,951.05l-2.92-8.9L891.5,939h0L914,914.39l7.08-7.66c10.06-10.87,16.66-17.8,23.52-24.71l4.44-4.43,1.46-1.44,1.47-1.44C966.69,860.43,976.07,853.47,982.16,853.46Zm0,41.29c5.7,0,12.42,5.45,20.53,16.19l-7.88,3.14-.6-.78c-5.27-6.78-9.37-10.38-12.05-10.38-4.61,0-14.95,8.7-36,30.55l-18.33,7.3,3.26-3.47c4.83-5.11,8.9-9.32,13-13.49l3-3,1.56-1.55C965.32,902.77,975.64,894.75,982.18,894.75ZM445.29,750.11c12.09,0,28.81,24.58,53.56,72.11l1.58,3,1.73,3.37q1.32,2.55,2.65,5.18l3.88,7.7,3.05,6.16c9.69,19.69,28.78,59.14,33.58,68.39l.69,1.31-7.16,3.93-.91-1.72-.59-1.16c-6.92-13.6-30.27-61.93-36.83-75l-3-5.92-1.47-2.88-1.45-2.83h0l-2.88-5.55-1.33-2.54c-21.56-41.06-38.16-65.43-45.1-65.42-6.69,0-25.36,18.23-71.21,68.17l-20.12,22-6.57,7.13c-12.62,13.67-23,24.66-31.63,33.35l1.32-3.44q3.26-8.38,6.45-16.45l3-3.18q11.16-11.77,25.19-27.08L377.13,811c14-15.21,21.93-23.63,30.09-31.87l3-3,1.57-1.55C428.43,758.13,438.75,750.11,445.29,750.11Zm544.39-4.47-.14.07c-3.27,1.81-13,10.24-26.86,23.66l-4.54,4.43-3.25,3.2-2.27,2.25c-4.63,4.59-9.78,9.75-15.7,15.73l-38.47,39-3.15,3.16-3,3c-48.7,48.92-71,68.76-80.58,68.28-6.05-.3-13.46-7.35-24.72-21.76l-5.79-7.55-2.08-2.78-1.53-2.1c-3-4.17-7.06-9.91-14.79-21L747.68,831.5l-2.75-3.93-1.75-2.48c-28.29-40-45-59.05-52.95-58.53-7.14.46-22.87,14.91-44,40l-3,3.57-1.83,2.21q-6,7.25-12.47,15.51l-4.47,5.72-2.73,3.57C609.1,853.75,575,899,571,902.94l-.14.13L565.44,897l.24-.25c4.56-4.79,45.06-58.78,53.18-69.22l2-2.59,2-2.48c5.5-7,10.68-13.38,15.61-19.28l1.5-1.79,1.38-1.63,1.33-1.57c21.62-25.35,36.94-39.08,47-39.74,12.48-.81,28.52,17.13,59.65,61.24l7.1,10.13L778.89,862l2.93,4.14,2,2.86c2.1,2.9,3.69,5,5.63,7.55l2.45,3.19,1.46,1.87a147,147,0,0,0,11.42,13.28l.32.32c3.4,3.35,6,5,7,5.08,6,.3,32.55-23.76,79.39-70.93l38.26-38.74,6.07-6.12c7.57-7.6,13.81-13.81,19.38-19.23l4.71-4.57,2.38-2.28,2.55-2.41c9.9-9.35,16.56-15,21-17.38l1.51,2.77C988.14,742.76,988.91,744.18,989.68,745.64ZM445.27,708.82c12.22,0,29.16,25.1,54.35,73.63l3.69,7.17,1.48,2.9,1.5,3h0l3.41,6.81,4,8.1c10.43,21.26,28.22,58,32,65.13l.3.57L538.83,880l-.49-.91-.71-1.39c-6.39-12.49-29.51-60.33-36.7-74.72L499,799.15l-1.48-2.93L496,793.34l-2.89-5.61-1.37-2.64c-22.24-42.68-39.4-68.1-46.5-68.1-6.47,0-24.17,17.09-66.9,63.49l-26,28.32-4.17,4.53-2.8,3q5.44-12.42,10.73-23.75l20.93-22.85,5.9-6.4c10.73-11.61,17.58-18.81,24.7-26l4.44-4.43,1.46-1.44,1.47-1.43C429.8,715.79,439.18,708.83,445.27,708.82Zm528.53,8.72-2.24,2.07c-2,1.84-4.08,3.83-6.3,6l-3.46,3.34-2.71,2.64c-5,4.88-10.53,10.4-17.09,17l-43.57,44.1-6.22,6.26-4.31,4.32c-45.67,45.72-67,64.36-76.21,63.89-6.18-.31-13.79-7.66-25.47-22.73l-5.81-7.6-1.65-2.22-1.34-1.83c-2.22-3.07-5-7-9.32-13.18l-20.43-29.34-1.85-2.64-2.66-3.77c-28.29-40-45-59.06-52.95-58.54-7,.46-22.08,14.19-42.44,38.16l-1.59,1.88-1.63,2q-7.39,8.85-15.65,19.34l-4.17,5.32-3.41,4.47c-12.9,17-46.36,61.37-50.36,65.27l-.13.12-5.41-6.12.24-.24.32-.35c5.92-6.68,45.72-59.73,53.09-69.18l3.41-4.35,1.85-2.33,2-2.58q7.11-8.91,13.55-16.58l2.11-2.49,1.31-1.54,1.27-1.47c20.58-23.88,35.27-36.79,45-37.43,12.75-.83,29.19,17.89,61.64,64.06l29.39,42.1,1.41,2c4,5.56,6,8.18,9.82,13.16l1.81,2.34.91,1.15.93,1.16a129.72,129.72,0,0,0,9.2,10.48l.34.34c3.41,3.35,6,5,7,5.08,6.17.31,34.21-25.26,83.8-75.37l33.85-34.3L941,738l3-3c2.67-2.66,5.16-5.12,7.52-7.44l4.66-4.56,3.27-3.17,2-1.95c2.88-2.77,5.52-5.25,7.94-7.47C970.79,712.68,972.27,715,973.8,717.54ZM753.32,742.79l25.53,36.61,1.93,2.73c4.88,6.89,6.89,9.5,11.13,15l1.81,2.34.94,1.19a138.59,138.59,0,0,0,10.1,11.6l.34.34c3.41,3.35,6,5,7,5.08,5.92.3,32-23.26,77.95-69.48L929.73,708c8.17-8.25,14.9-15,20.8-20.79q2.18,2.09,4.31,4.22c.48.48,1,1,1.48,1.54l-3.46,3.42c-4.36,4.32-9.18,9.15-14.67,14.69l-36.5,37L890.52,759.3,885,764.83c-43.69,43.62-64.28,61.46-73.33,61-6-.3-13.46-7.35-24.71-21.76l-4.83-6.26-1.2-1.6-1.2-1.59c-1.52-2-3.14-4.29-5.35-7.4l-28.66-41L744,743.67c-28.78-40.82-45.73-60.2-53.76-59.68-7,.46-22.09,14.2-42.44,38.17L646.16,724l-1.55,1.85L642.88,728c-4.94,6-10.15,12.45-15.69,19.5l-3.12,4-4.59,6c-14,18.4-44.71,59.15-48.54,62.88l-.13.12-5.41-6.12.24-.24c4.55-4.8,45-58.76,53.17-69.22l3.65-4.66,1.85-2.33,2-2.57q7.11-8.93,13.56-16.58l2.11-2.5,1.31-1.53,1.89-2.2c20.26-23.42,34.75-36.08,44.43-36.71C702.66,675,719.52,694.51,753.32,742.79ZM684.53,600.63,680,605.05l-3.25,3.21c-5.2,5.13-11.06,11-18,18l-38.47,39-6.15,6.2c-48.7,48.91-71,68.75-80.58,68.27-6-.3-13.46-7.35-24.72-21.76l-5.8-7.55L501,707.58l-1-1.31c-3.1-4.25-7.13-10-15.37-21.81l-15.11-21.7-2.76-3.94-2.44-3.46h0q3.46-2.13,7-4.21l6.93,9.88,22.44,32.19,2.93,4.14.73,1c2.8,3.91,4.62,6.35,6.95,9.39l2.45,3.19a158.75,158.75,0,0,0,12.88,15.16l.31.31c3.41,3.35,6,5,7,5.08,6,.3,32.55-23.75,79.4-70.93l38.26-38.74,6.8-6.84c7-7,12.86-12.86,18.11-18l4-3.85h11.86l-1.48,1.39Q687.87,597.39,684.53,600.63Zm51.32-7.47.79,1.12,1.51,2.16c3.57,5.17,7.57,11.1,12.39,18.37l24.78,37.76,1.85,2.8,2.66,4c28.41,42.72,45.59,64.65,52.27,65.33s28-19.83,72.7-68.45l3.18-3.47c2.28,1.55,4.54,3.12,6.76,4.72l-6.3,6.87-4.27,4.65c-45.18,49-62.45,64.87-72.9,63.81-10.66-1.09-26.92-21.7-58.72-69.66l-26-39.59-2.9-4.39c-5.13-7.75-9.32-14-13.06-19.32l-2.3-3.27L727,594.86l-1.23-1.7h10Zm-85.19,0L620.28,623.9l-6.22,6.26-5.72,5.73c-44.7,44.7-65.65,63-74.8,62.49-6.18-.31-13.79-7.67-25.47-22.73l-5.81-7.6-1.65-2.22L498.55,663c-2.1-2.91-4.72-6.63-8.6-12.18l-5-7.17q3.63-1.89,7.36-3.75l10.23,14.64,1.4,2c4,5.57,6,8.18,9.82,13.17l1.82,2.33.91,1.15.92,1.16A126.19,126.19,0,0,0,527,685.14l.57.55c3.12,3,5.44,4.48,6.41,4.52,6.16.32,34.21-25.26,83.8-75.37l21.4-21.68Zm112.74,0,11.9,18.12,1.85,2.81,2.67,4c28.4,42.73,45.59,64.65,52.27,65.33,5.52.57,21.09-13.39,51.63-45.78,2.46,1.4,4.88,2.82,7.28,4.26l-2.11,2.25c-34,36.2-48.45,48.34-57.63,47.4-10.56-1.08-26.59-21.27-57.74-68.16l-6.66-10.09-13.22-20.16ZM533.52,657.09c-6-.3-13.46-7.35-24.72-21.75L507,633q3.81-1.71,7.72-3.37l.86,1.11.94,1.19A132.23,132.23,0,0,0,527,643.85c3.4,3.35,5.95,5,7,5.08,4.69.24,22.09-14.55,52-43.77q7.86-2.16,16-4.21l-3.58,3.54C560.45,642,542,657.52,533.52,657.09Zm261.6-57.68.31.45,1.14,1.64c18.54,26.5,30.25,40.12,35.5,40.66,3.59.36,11.46-5.43,24.95-18.47q4,1.89,7.89,3.86l-1.56,1.53c-16.61,16.06-25.66,21.86-32.11,21.2-9.49-1-23.4-17.37-48.72-54.71Q788.9,597.43,795.12,599.41Z"/><path class="cls-13" d="M381.4,1100.32a100,100,0,0,1-94.35-133.14q14.82-42.18,28.71-78.26H479a357.86,357.86,0,0,0,11.42,42.52l-14,32.58,191.92,64.9q34.3-11.13,61.19-8.35a75.61,75.61,0,0,1,19,5l144.24-70.79-21.61-65.84h186l1.64,4.27q13.13,34.29,27.07,74a100,100,0,0,1-94.35,133.14Z"/><line class="cls-14" x1="870.52" y1="890.3" x2="818.54" y2="743.36"/><path class="cls-14" d="M501.94,958.39Q464.46,872,480.12,824q9.9-30.28,50.53-85.8"/><line class="cls-14" x1="669.27" y1="1028.93" x2="431.91" y2="948.27"/><line class="cls-14" x1="748.08" y1="1025.22" x2="892.72" y2="955.68"/><path class="cls-14" d="M711,1019.66q43.57,0,75.1,26.89t33.38,53.77"/><path class="cls-13" d="M672.09,433c-3.36,30.82,18.8,36.12,31.87,35.68l3.14-.13c10.79-.41,14.59.08,13.16,6.67l0,.23c-1.68,7.29,4.4,16.79,12.21,7.65l.24-.29c7.93-9.62,19.81-1.13,21.51,9.06q1.68,10-13.12,20.06l-.36.24,8.95,77.06q-41.32,27.18-84.91,0l5.4-36.53c-10.5,2.31-20.65,2.08-29.17-2.53q-35.31-19.05,3.18-103.57l.78-1.71Z"/><line class="cls-14" x1="659.64" y1="466.43" x2="650.58" y2="489.63"/><ellipse cx="669.89" cy="473.21" rx="2.89" ry="3.21"/><ellipse cx="647.39" cy="464.21" rx="2.89" ry="3.21"/><path class="cls-15" d="M667.86,568.13l2.27-15.39.44-.09a69,69,0,0,0,15.53-5.06C692.29,544.56,689.64,566.72,667.86,568.13Z"/></g></g></g></svg>